<svg width="28" height="28" viewBox="0 0 28 28" fill="none" xmlns="http://www.w3.org/2000/svg">
<path d="M1.18262 26.8827V14.234H13.9466V26.8827H1.18262Z" fill="white"/>
<path d="M7.56445 14.2341V1.58533H20.3284V14.2341H7.56445Z" fill="white"/>
<path d="M13.9453 26.8827V14.234H26.7093V26.8827H13.9453Z" fill="white"/>
<path d="M4.74414 16.831V14.6375L10.3395 14.15V16.831H4.74414Z" fill="black"/>
<path d="M17.8711 16.831V14.6375L23.4665 14.15V16.831H17.8711Z" fill="black"/>
<path d="M11.415 4.1571V1.96353L17.0104 1.47607V4.1571H11.415Z" fill="black"/>
<path d="M26.943 13.3937H21.1977V1.34148C21.1977 1.23111 21.1784 1.12183 21.1408 1.01987C21.1033 0.917909 21.0482 0.825265 20.9788 0.747227C20.9094 0.66919 20.827 0.607289 20.7363 0.565058C20.6456 0.522827 20.5484 0.501093 20.4503 0.501099H7.46477C7.36661 0.501093 7.26942 0.522827 7.17873 0.565058C7.08805 0.607289 7.00565 0.66919 6.93624 0.747227C6.86684 0.825265 6.81178 0.917909 6.77422 1.01987C6.73666 1.12183 6.71733 1.23111 6.71733 1.34148V13.3937H0.972014C0.873863 13.3937 0.776674 13.4154 0.685995 13.4576C0.595315 13.4999 0.512922 13.5618 0.443519 13.6398C0.374116 13.7178 0.319063 13.8105 0.281502 13.9124C0.243942 14.0144 0.224609 14.1237 0.224609 14.234V27.1265C0.224605 27.2369 0.243935 27.3462 0.281495 27.4481C0.319055 27.5501 0.374111 27.6428 0.443517 27.7208C0.512923 27.7988 0.595322 27.8607 0.686006 27.903C0.776691 27.9452 0.873886 27.9669 0.972042 27.9669H26.943C27.0412 27.9669 27.1384 27.9452 27.2291 27.903C27.3197 27.8607 27.4021 27.7988 27.4715 27.7208C27.5409 27.6427 27.596 27.5501 27.6335 27.4481C27.6711 27.3462 27.6904 27.2369 27.6904 27.1265V14.234C27.6904 14.0111 27.6117 13.7974 27.4715 13.6398C27.3314 13.4822 27.1412 13.3937 26.943 13.3937ZM18.4219 15.0744H22.4773V16.0199C22.4772 16.1392 22.4349 16.2536 22.3599 16.338C22.2848 16.4224 22.1831 16.4699 22.0769 16.47H18.8222C18.7161 16.4699 18.6143 16.4224 18.5393 16.338C18.4642 16.2536 18.422 16.1392 18.4219 16.0199V15.0744ZM15.9845 2.18188V3.12736C15.9844 3.24669 15.9422 3.3611 15.8671 3.44548C15.7921 3.52986 15.6903 3.57732 15.5842 3.57744H12.3294C12.2233 3.57731 12.1216 3.52985 12.0465 3.44547C11.9715 3.36109 11.9292 3.24669 11.9291 3.12736V2.18188H15.9845ZM8.2122 2.18188H10.4343V3.12736C10.4348 3.69229 10.6347 4.2339 10.99 4.63337C11.3453 5.03284 11.827 5.25755 12.3294 5.2582H15.5842C16.0866 5.25756 16.5684 5.03286 16.9237 4.63339C17.279 4.23392 17.4788 3.6923 17.4794 3.12736V2.18188H19.7028V13.3937H8.2122V2.18188ZM7.46477 15.0744H9.4918V16.0199C9.49168 16.1392 9.44947 16.2536 9.37442 16.338C9.29937 16.4224 9.19762 16.4699 9.09149 16.47H5.8367C5.73056 16.4699 5.62881 16.4224 5.55376 16.338C5.47872 16.2536 5.4365 16.1392 5.43639 16.0199V15.0744H7.46477ZM1.71945 15.0744H3.94152V16.0199C3.9421 16.5848 4.14195 17.1264 4.49724 17.5259C4.85253 17.9254 5.33424 18.1501 5.8367 18.1507H9.09148C9.59394 18.1501 10.0756 17.9254 10.4309 17.5259C10.7862 17.1264 10.9861 16.5848 10.9867 16.0199V15.0744H13.2101V26.2861H1.71945V15.0744ZM26.1956 26.2861H14.705V15.0744H16.927V16.0199C16.9276 16.5848 17.1275 17.1264 17.4827 17.5259C17.838 17.9254 18.3197 18.1501 18.8222 18.1507H22.0769C22.5794 18.1501 23.0611 17.9254 23.4164 17.5259C23.7717 17.1265 23.9716 16.5848 23.9722 16.0199V15.0744H26.1956L26.1956 26.2861Z" fill="white"/>
</svg>
