<svg width="26" height="27" viewBox="0 0 26 27" fill="none" xmlns="http://www.w3.org/2000/svg">
<path d="M12.9587 17.0662L16.4507 19.7102C16.6915 19.8793 16.9344 19.8848 17.1795 19.7268C17.4246 19.5688 17.5002 19.3472 17.4063 19.062L16.0843 14.6888L19.4953 12.2632C19.7457 12.0767 19.8217 11.8442 19.7235 11.5658C19.6253 11.2874 19.4297 11.1482 19.1368 11.1482H14.9622L13.5403 6.55464C13.4383 6.26939 13.2446 6.12677 12.9591 6.12677C12.6736 6.12677 12.4797 6.26939 12.3772 6.55464L10.9553 11.1482H6.78069C6.48774 11.1482 6.29216 11.2874 6.19395 11.5658C6.09575 11.8442 6.17182 12.0767 6.42216 12.2632L9.83316 14.6888L8.51121 19.062C8.41726 19.3472 8.49285 19.5688 8.73795 19.7268C8.98303 19.8848 9.22599 19.8793 9.46681 19.7102L12.9587 17.0662ZM12.961 26.0228C11.2105 26.0228 9.5652 25.6907 8.02498 25.0263C6.48474 24.362 5.14496 23.4604 4.00563 22.3216C2.86627 21.1828 1.96428 19.8436 1.29966 18.304C0.635044 16.7645 0.302734 15.1195 0.302734 13.3691C0.302734 11.6186 0.6349 9.97328 1.29923 8.43306C1.96356 6.89282 2.86514 5.55304 4.00396 4.41371C5.1428 3.27435 6.482 2.37237 8.02155 1.70775C9.56108 1.04313 11.2061 0.710815 12.9565 0.710815C14.707 0.710815 16.3523 1.04298 17.8925 1.70731C19.4327 2.37164 20.7725 3.27322 21.9119 4.41204C23.0512 5.55088 23.9532 6.89008 24.6178 8.42963C25.2824 9.96916 25.6147 11.6142 25.6147 13.3646C25.6147 15.115 25.2826 16.7604 24.6182 18.3006C23.9539 19.8408 23.0523 21.1806 21.9135 22.3199C20.7747 23.4593 19.4355 24.3613 17.8959 25.0259C16.3564 25.6905 14.7114 26.0228 12.961 26.0228Z" fill="white"/>
</svg>
