<svg width="23" height="23" viewBox="0 0 23 23" fill="none" xmlns="http://www.w3.org/2000/svg">
<path d="M2.88475 22.7405C2.23229 22.7405 1.68001 22.5145 1.22793 22.0624C0.775846 21.6103 0.549805 21.058 0.549805 20.4056V3.11717C0.549805 2.46471 0.775846 1.91243 1.22793 1.46035C1.68001 1.00827 2.23229 0.782227 2.88475 0.782227H20.1731C20.8256 0.782227 21.3779 1.00827 21.83 1.46035C22.282 1.91243 22.5081 2.46471 22.5081 3.11717V20.4056C22.5081 21.058 22.282 21.6103 21.83 22.0624C21.3779 22.5145 20.8256 22.7405 20.1731 22.7405H2.88475ZM2.88475 20.803H20.1731C20.2725 20.803 20.3636 20.7616 20.4464 20.6788C20.5292 20.596 20.5706 20.5049 20.5706 20.4056V3.11717C20.5706 3.0178 20.5292 2.92671 20.4464 2.84389C20.3636 2.76109 20.2725 2.7197 20.1731 2.7197H2.88475C2.78538 2.7197 2.69428 2.76109 2.61147 2.84389C2.52867 2.92671 2.48727 3.0178 2.48727 3.11717V20.4056C2.48727 20.5049 2.52867 20.596 2.61147 20.6788C2.69428 20.7616 2.78538 20.803 2.88475 20.803ZM6.36227 17.8967H12.8206C13.0955 17.8967 13.3257 17.804 13.5111 17.6186C13.6966 17.4331 13.7893 17.2029 13.7893 16.928C13.7893 16.6531 13.6966 16.423 13.5111 16.2375C13.3257 16.052 13.0955 15.9593 12.8206 15.9593H6.36227C6.08738 15.9593 5.85721 16.052 5.67175 16.2375C5.48629 16.423 5.39356 16.6531 5.39356 16.928C5.39356 17.2029 5.48629 17.4331 5.67175 17.6186C5.85721 17.804 6.08738 17.8967 6.36227 17.8967ZM6.36227 12.7301H16.6956C16.9705 12.7301 17.2007 12.6373 17.3861 12.4519C17.5716 12.2664 17.6643 12.0363 17.6643 11.7614C17.6643 11.4865 17.5716 11.2563 17.3861 11.0708C17.2007 10.8854 16.9705 10.7926 16.6956 10.7926H6.36227C6.08738 10.7926 5.85721 10.8854 5.67175 11.0708C5.48629 11.2563 5.39356 11.4865 5.39356 11.7614C5.39356 12.0363 5.48629 12.2664 5.67175 12.4519C5.85721 12.6373 6.08738 12.7301 6.36227 12.7301ZM6.36227 7.56341H16.6956C16.9705 7.56341 17.2007 7.47068 17.3861 7.28522C17.5716 7.09976 17.6643 6.86958 17.6643 6.5947C17.6643 6.31981 17.5716 6.08963 17.3861 5.90417C17.2007 5.71871 16.9705 5.62598 16.6956 5.62598H6.36227C6.08738 5.62598 5.85721 5.71871 5.67175 5.90417C5.48629 6.08963 5.39356 6.31981 5.39356 6.5947C5.39356 6.86958 5.48629 7.09976 5.67175 7.28522C5.85721 7.47068 6.08738 7.56341 6.36227 7.56341Z" fill="white"/>
</svg>
