<svg width="28" height="26" viewBox="0 0 28 26" fill="none" xmlns="http://www.w3.org/2000/svg">
<path d="M13.958 18.037C15.4916 18.037 16.7917 17.52 17.8582 16.4858C18.9247 15.4516 19.4579 14.1909 19.4579 12.7037C19.4579 11.2166 18.9247 9.95591 17.8582 8.92171C16.7917 7.88753 15.4916 7.37044 13.958 7.37044C12.4243 7.37044 11.1243 7.88753 10.0578 8.92171C8.99126 9.95591 8.45801 11.2166 8.45801 12.7037C8.45801 14.1909 8.99126 15.4516 10.0578 16.4858C11.1243 17.52 12.4243 18.037 13.958 18.037ZM13.958 14.0371C13.5684 14.0371 13.2418 13.9093 12.9783 13.6537C12.7147 13.3982 12.583 13.0815 12.583 12.7037C12.583 12.326 12.7147 12.0093 12.9783 11.7537C13.2418 11.4982 13.5684 11.3704 13.958 11.3704C14.3476 11.3704 14.6741 11.4982 14.9377 11.7537C15.2012 12.0093 15.333 12.326 15.333 12.7037C15.333 13.0815 15.2012 13.3982 14.9377 13.6537C14.6741 13.9093 14.3476 14.0371 13.958 14.0371ZM13.9603 25.3704C12.1536 25.3704 10.4554 25.0379 8.86576 24.373C7.27606 23.7082 5.89324 22.8058 4.71732 21.666C3.54137 20.5262 2.61042 19.1859 1.92445 17.6451C1.23849 16.1043 0.895508 14.4579 0.895508 12.706C0.895508 10.9541 1.23834 9.30735 1.92401 7.76584C2.60967 6.22431 3.54021 4.8834 4.7156 3.74311C5.89102 2.6028 7.27323 1.70006 8.86222 1.03488C10.4512 0.3697 12.149 0.0371094 13.9557 0.0371094C15.7623 0.0371094 17.4605 0.369555 19.0502 1.03444C20.6399 1.69933 22.0227 2.60167 23.1986 3.74144C24.3746 4.88124 25.3055 6.22157 25.9915 7.76241C26.6775 9.30323 27.0204 10.9496 27.0204 12.7015C27.0204 14.4534 26.6776 16.1001 25.9919 17.6416C25.3063 19.1832 24.3757 20.5241 23.2003 21.6644C22.0249 22.8047 20.6427 23.7074 19.0537 24.3726C17.4648 25.0378 15.7669 25.3704 13.9603 25.3704Z" fill="#71301C"/>
</svg>
