<svg width="21" height="21" viewBox="0 0 21 21" fill="none" xmlns="http://www.w3.org/2000/svg">
<path d="M10.7637 0.489014C5.24351 0.489014 0.763672 5.04585 0.763672 10.6609C0.763672 16.2759 5.24351 20.8328 10.7637 20.8328C16.2838 20.8328 20.7637 16.2759 20.7637 10.6609C20.7637 5.04585 16.2838 0.489014 10.7637 0.489014ZM14.8242 15.4556C14.6548 15.4556 14.55 15.4023 14.3927 15.308C11.8766 13.7658 8.94916 13.7001 6.05803 14.3031C5.90077 14.3441 5.69512 14.4097 5.57819 14.4097C5.18706 14.4097 4.94109 14.0939 4.94109 13.7617C4.94109 13.3392 5.18706 13.1382 5.48948 13.0726C8.7919 12.3302 12.1669 12.3958 15.0459 14.1472C15.2919 14.3072 15.4371 14.4507 15.4371 14.824C15.4371 15.1972 15.1508 15.4556 14.8242 15.4556ZM15.9088 12.765C15.6992 12.765 15.558 12.6707 15.4129 12.5927C12.8927 11.0751 9.13464 10.464 5.7919 11.3869C5.59835 11.4402 5.49351 11.4935 5.31206 11.4935C4.88061 11.4935 4.5298 11.1367 4.5298 10.6978C4.5298 10.2589 4.73948 9.96772 5.1548 9.84878C6.27577 9.52886 7.42093 9.29097 9.09835 9.29097C11.7153 9.29097 14.2435 9.95132 16.2354 11.1572C16.5621 11.3541 16.6911 11.6083 16.6911 11.9652C16.6871 12.4082 16.3483 12.765 15.9088 12.765ZM17.1588 9.6396C16.9492 9.6396 16.8201 9.58628 16.6387 9.47964C13.7677 7.73647 8.63464 7.31812 5.31206 8.26147C5.1669 8.30249 4.98545 8.36812 4.7919 8.36812C4.25964 8.36812 3.85238 7.94565 3.85238 7.40015C3.85238 6.84233 4.19109 6.52651 4.55399 6.41987C5.97335 5.99741 7.56206 5.79644 9.2919 5.79644C12.2354 5.79644 15.3201 6.41987 17.5742 7.75698C17.8887 7.94155 18.0943 8.19585 18.0943 8.68394C18.0943 9.24175 17.6508 9.6396 17.1588 9.6396Z" fill="#EDECE8"/>
</svg>
