<svg width="30" height="30" viewBox="0 0 30 30" fill="none" xmlns="http://www.w3.org/2000/svg">
<path d="M7.44456 16.7187C7.96491 16.7187 8.40778 16.5366 8.77315 16.1723C9.13853 15.8081 9.32121 15.3658 9.32121 14.8454C9.32121 14.3251 9.13909 13.8822 8.77484 13.5168C8.41059 13.1514 7.96829 12.9688 7.44794 12.9688C6.92759 12.9688 6.48473 13.1509 6.11935 13.5151C5.75398 13.8794 5.57129 14.3217 5.57129 14.842C5.57129 15.3624 5.75341 15.8052 6.11766 16.1706C6.48191 16.536 6.92421 16.7187 7.44456 16.7187ZM14.9446 16.7187C15.4649 16.7187 15.9078 16.5366 16.2732 16.1723C16.6385 15.8081 16.8212 15.3658 16.8212 14.8454C16.8212 14.3251 16.6391 13.8822 16.2748 13.5168C15.9106 13.1514 15.4683 12.9688 14.9479 12.9688C14.4276 12.9688 13.9847 13.1509 13.6194 13.5151C13.254 13.8794 13.0713 14.3217 13.0713 14.842C13.0713 15.3624 13.2534 15.8052 13.6177 16.1706C13.9819 16.536 14.4242 16.7187 14.9446 16.7187ZM22.4446 16.7187C22.9649 16.7187 23.4078 16.5366 23.7732 16.1723C24.1385 15.8081 24.3212 15.3658 24.3212 14.8454C24.3212 14.3251 24.1391 13.8822 23.7748 13.5168C23.4106 13.1514 22.9683 12.9688 22.4479 12.9688C21.9276 12.9688 21.4847 13.1509 21.1194 13.5151C20.754 13.8794 20.5713 14.3217 20.5713 14.842C20.5713 15.3624 20.7534 15.8052 21.1177 16.1706C21.4819 16.536 21.9242 16.7187 22.4446 16.7187ZM14.9488 29.0937C12.9779 29.0937 11.1253 28.7197 9.39111 27.9717C7.65689 27.2237 6.14836 26.2086 4.86554 24.9263C3.58269 23.644 2.5671 22.1362 1.81878 20.4027C1.07045 18.6693 0.696289 16.8171 0.696289 14.8462C0.696289 12.8753 1.07029 11.0228 1.81829 9.28858C2.56629 7.55435 3.58141 6.04583 4.86366 4.763C6.14594 3.48015 7.6538 2.46456 9.38725 1.71624C11.1207 0.967914 12.9728 0.59375 14.9437 0.59375C16.9146 0.59375 18.7672 0.967752 20.5014 1.71575C22.2356 2.46375 23.7441 3.47888 25.027 4.76113C26.3098 6.0434 27.3254 7.55126 28.0737 9.28471C28.8221 11.0181 29.1962 12.8703 29.1962 14.8412C29.1962 16.8121 28.8222 18.6646 28.0742 20.3988C27.3262 22.1331 26.3111 23.6416 25.0288 24.9244C23.7466 26.2073 22.2387 27.2229 20.5053 27.9712C18.7718 28.7195 16.9197 29.0937 14.9488 29.0937ZM14.9463 26.8437C18.2963 26.8437 21.1338 25.6812 23.4588 23.3562C25.7838 21.0312 26.9463 18.1937 26.9463 14.8437C26.9463 11.4937 25.7838 8.65621 23.4588 6.33121C21.1338 4.00621 18.2963 2.84371 14.9463 2.84371C11.5963 2.84371 8.75875 4.00621 6.43375 6.33121C4.10875 8.65621 2.94625 11.4937 2.94625 14.8437C2.94625 18.1937 4.10875 21.0312 6.43375 23.3562C8.75875 25.6812 11.5963 26.8437 14.9463 26.8437Z" fill="white"/>
</svg>
