<svg width="118" height="20" viewBox="0 0 118 20" fill="none" xmlns="http://www.w3.org/2000/svg">
<path d="M22.32 1.576L21.864 2.272C20.152 4.928 18.68 7.28 17.448 9.328C16.232 11.36 15.216 13.232 14.4 14.944V19H8.136V14.536C7.544 13.336 6.848 12.104 6.048 10.84C5.248 9.56 4.112 7.808 2.64 5.584C1.488 3.888 0.608 2.552 0 1.576H6.72C7.2 2.552 7.984 4 9.072 5.92C10.16 7.872 10.904 9.248 11.304 10.048C11.864 8.88 12.616 7.448 13.56 5.752C14.664 3.768 15.408 2.376 15.792 1.576H22.32ZM28.4458 19.24C25.7098 19.24 23.6938 18.616 22.3978 17.368C21.1178 16.104 20.4778 14.448 20.4778 12.4C20.4778 10.4 21.1178 8.776 22.3978 7.528C23.6938 6.28 25.7098 5.656 28.4458 5.656C30.2858 5.656 31.8218 5.96 33.0538 6.568C34.3018 7.16 35.2218 7.968 35.8138 8.992C36.4058 10 36.7018 11.136 36.7018 12.4C36.7018 14.464 36.0138 16.12 34.6378 17.368C33.2778 18.616 31.2138 19.24 28.4458 19.24ZM28.5418 15.16C29.5818 15.16 30.3578 14.912 30.8698 14.416C31.3818 13.92 31.6378 13.256 31.6378 12.424C31.6378 11.64 31.3818 11 30.8698 10.504C30.3578 9.992 29.5818 9.736 28.5418 9.736C27.5018 9.736 26.7418 9.984 26.2618 10.48C25.7818 10.976 25.5418 11.624 25.5418 12.424C25.5418 13.256 25.7818 13.92 26.2618 14.416C26.7418 14.912 27.5018 15.16 28.5418 15.16ZM53.1497 5.896C53.0377 7.912 52.9817 10.088 52.9817 12.424C52.9817 14.776 53.0377 16.968 53.1497 19C52.1257 18.952 51.3177 18.928 50.7257 18.928C50.1657 18.928 49.3577 18.952 48.3017 19L47.6057 15.472C47.2377 16.752 46.6617 17.704 45.8777 18.328C45.0937 18.936 44.1817 19.24 43.1417 19.24C42.1817 19.24 41.3497 19.032 40.6457 18.616C39.9417 18.184 39.4057 17.608 39.0377 16.888C38.6857 16.168 38.5097 15.36 38.5097 14.464V11.008C38.5097 8.88 38.4697 7.176 38.3897 5.896H43.7897C43.6937 8.248 43.6457 10.576 43.6457 12.88C43.6457 13.584 43.8137 14.144 44.1497 14.56C44.5017 14.976 44.9417 15.184 45.4697 15.184C45.9657 15.184 46.3977 14.968 46.7657 14.536C47.1497 14.088 47.3817 13.48 47.4617 12.712V12.16C47.4937 10.912 47.5097 10.048 47.5097 9.568C47.5097 8.464 47.4777 7.24 47.4137 5.896H53.1497ZM65.9492 10.192C64.4772 10.096 63.1332 10.024 61.9172 9.976L61.8932 12.52C61.8932 13.384 62.0772 14.064 62.4452 14.56C62.8292 15.04 63.5012 15.28 64.4612 15.28C64.8292 15.28 65.1812 15.248 65.5172 15.184C65.4532 15.776 65.4212 16.376 65.4212 16.984C65.4212 17.272 65.4372 17.928 65.4692 18.952C64.7652 19.08 64.1732 19.16 63.6932 19.192C63.2132 19.224 62.5892 19.24 61.8212 19.24C59.9492 19.24 58.6212 18.792 57.8372 17.896C57.0692 16.984 56.6852 15.72 56.6852 14.104L56.7092 10.048C55.9572 10.08 55.1732 10.128 54.3572 10.192V5.944C55.1892 5.944 55.8932 5.68 56.4692 5.152C57.0452 4.624 57.3892 3.992 57.5012 3.256H64.0292C63.2132 4.376 62.3092 5.272 61.3172 5.944H65.9492V10.192ZM82.1419 5.896C82.0299 7.912 81.9739 10.088 81.9739 12.424C81.9739 14.776 82.0299 16.968 82.1419 19C81.1179 18.952 80.3099 18.928 79.7179 18.928C79.1579 18.928 78.3499 18.952 77.2939 19L76.5979 15.472C76.2299 16.752 75.6539 17.704 74.8699 18.328C74.0859 18.936 73.1739 19.24 72.1339 19.24C71.1739 19.24 70.3419 19.032 69.6379 18.616C68.9339 18.184 68.3979 17.608 68.0299 16.888C67.6779 16.168 67.5019 15.36 67.5019 14.464V11.008C67.5019 8.88 67.4619 7.176 67.3819 5.896H72.7819C72.6859 8.248 72.6379 10.576 72.6379 12.88C72.6379 13.584 72.8059 14.144 73.1419 14.56C73.4939 14.976 73.9339 15.184 74.4619 15.184C74.9579 15.184 75.3899 14.968 75.7579 14.536C76.1419 14.088 76.3739 13.48 76.4539 12.712V12.16C76.4859 10.912 76.5019 10.048 76.5019 9.568C76.5019 8.464 76.4699 7.24 76.4059 5.896H82.1419ZM94.4854 5.656C95.5574 5.656 96.5094 5.984 97.3414 6.64C98.1894 7.28 98.8454 8.136 99.3094 9.208C99.7734 10.264 100.005 11.392 100.005 12.592C100.005 13.808 99.7734 14.928 99.3094 15.952C98.8454 16.96 98.1974 17.76 97.3654 18.352C96.5334 18.944 95.5974 19.24 94.5574 19.24C93.3414 19.24 92.2854 18.984 91.3894 18.472C90.4934 17.944 89.8214 17.12 89.3734 16L88.6774 19H84.0694C84.1654 15.992 84.2134 12.88 84.2134 9.664C84.2134 6.416 84.1654 3.304 84.0694 0.327999H89.4934L89.4214 3.28C89.3414 5.36 89.3014 7.216 89.3014 8.848C89.7334 7.76 90.3894 6.96 91.2694 6.448C92.1654 5.92 93.2374 5.656 94.4854 5.656ZM92.0374 15.208C92.8054 15.208 93.4134 14.952 93.8614 14.44C94.3094 13.928 94.5334 13.264 94.5334 12.448C94.5334 11.712 94.2854 11.12 93.7894 10.672C93.3094 10.208 92.7094 9.976 91.9894 9.976C91.6214 9.976 91.2374 10.064 90.8374 10.24C90.4374 10.4 90.0934 10.672 89.8054 11.056C89.5174 11.424 89.3734 11.888 89.3734 12.448C89.3734 13.44 89.5974 14.152 90.0454 14.584C90.4934 15 91.1574 15.208 92.0374 15.208ZM114.625 13H106.801C106.929 13.704 107.241 14.28 107.737 14.728C108.249 15.16 108.969 15.376 109.897 15.376C110.569 15.376 111.201 15.248 111.793 14.992C112.385 14.72 112.857 14.344 113.209 13.864C114.281 14.392 115.705 14.96 117.481 15.568C116.985 16.688 116.081 17.584 114.769 18.256C113.473 18.912 111.777 19.24 109.681 19.24C106.961 19.24 104.945 18.616 103.633 17.368C102.337 16.104 101.689 14.448 101.689 12.4C101.689 10.4 102.337 8.776 103.633 7.528C104.929 6.28 106.945 5.656 109.681 5.656C111.313 5.656 112.729 5.928 113.929 6.472C115.129 7.016 116.049 7.776 116.689 8.752C117.329 9.712 117.649 10.816 117.649 12.064C117.649 12.48 117.633 12.792 117.601 13H114.625ZM110.017 9.28C109.217 9.28 108.561 9.432 108.049 9.736C107.537 10.04 107.177 10.456 106.969 10.984H112.633C112.441 10.472 112.129 10.064 111.697 9.76C111.265 9.44 110.705 9.28 110.017 9.28Z" fill="white"/>
</svg>
