<svg width="19" height="10" viewBox="0 0 19 10" fill="none" xmlns="http://www.w3.org/2000/svg">
<path d="M9.65527 0.553956C9.87052 0.553956 10.0723 0.582583 10.2607 0.639835C10.449 0.697087 10.6239 0.794415 10.7853 0.931819L18.2113 7.25243C18.5073 7.50434 18.6553 7.82495 18.6553 8.21426C18.6553 8.60357 18.5073 8.92418 18.2113 9.17609C17.9154 9.428 17.5387 9.55396 17.0813 9.55396C16.6239 9.55396 16.2472 9.428 15.9512 9.17609L9.65527 3.81732L3.35931 9.17609C3.06335 9.428 2.68666 9.55396 2.22927 9.55396C1.77187 9.55396 1.39518 9.428 1.09922 9.17609C0.803256 8.92419 0.655274 8.60358 0.655274 8.21426C0.655274 7.82495 0.803256 7.50434 1.09922 7.25243L8.52523 0.931819C8.68666 0.794415 8.86155 0.697087 9.04989 0.639835C9.23823 0.582583 9.44003 0.553956 9.65527 0.553956Z" fill="white"/>
</svg>
