<svg width="19" height="10" viewBox="0 0 19 10" fill="none" xmlns="http://www.w3.org/2000/svg">
<path d="M9.65527 9.07947C9.87052 9.07947 10.0723 9.05084 10.2607 8.99359C10.449 8.93634 10.6239 8.83901 10.7853 8.7016L18.2113 2.38099C18.5073 2.12909 18.6553 1.80848 18.6553 1.41916C18.6553 1.02985 18.5073 0.709239 18.2113 0.45733C17.9154 0.205422 17.5387 0.0794677 17.0813 0.0794676C16.6239 0.0794676 16.2472 0.205422 15.9512 0.45733L9.65527 5.81611L3.35931 0.457329C3.06335 0.205421 2.68666 0.0794664 2.22927 0.0794664C1.77187 0.0794664 1.39518 0.205421 1.09922 0.457329C0.803256 0.709237 0.655274 1.02985 0.655274 1.41916C0.655274 1.80847 0.803256 2.12908 1.09922 2.38099L8.52523 8.7016C8.68666 8.83901 8.86155 8.93634 9.04989 8.99359C9.23823 9.05084 9.44003 9.07947 9.65527 9.07947Z" fill="white"/>
</svg>
