<svg width="17" height="29" viewBox="0 0 17 29" fill="none" xmlns="http://www.w3.org/2000/svg">
<path d="M0.21146 14.9167C0.21146 14.5834 0.264411 14.2709 0.370315 13.9792C0.476217 13.6876 0.656251 13.4167 0.910418 13.1667L12.6021 1.66675C13.0681 1.20841 13.6611 0.979248 14.3813 0.979248C15.1014 0.979248 15.6944 1.20841 16.1604 1.66675C16.6264 2.12508 16.8594 2.70841 16.8594 3.41675C16.8594 4.12508 16.6264 4.70842 16.1604 5.16675L6.24792 14.9167L16.1604 24.6667C16.6264 25.1251 16.8594 25.7084 16.8594 26.4168C16.8594 27.1251 16.6264 27.7084 16.1604 28.1668C15.6944 28.6251 15.1014 28.8543 14.3812 28.8543C13.6611 28.8543 13.0681 28.6251 12.6021 28.1668L0.910418 16.6667C0.656251 16.4167 0.476217 16.1459 0.370315 15.8542C0.264411 15.5626 0.211459 15.2501 0.21146 14.9167Z" fill="white" fill-opacity="0.5"/>
</svg>
