<svg width="31" height="22" viewBox="0 0 31 22" fill="none" xmlns="http://www.w3.org/2000/svg">
<path d="M21.2089 21.2926C19.9614 21.2926 18.9023 20.8688 18.0316 20.0212C17.1609 19.1735 16.7255 18.1442 16.7255 16.9333C16.7255 15.7137 17.1618 14.677 18.0343 13.8233C18.9068 12.9696 19.9662 12.5427 21.2127 12.5427C21.5789 12.5427 21.9285 12.5917 22.2614 12.6896C22.5943 12.7875 22.9071 12.9354 23.1999 13.1334V1.57396C23.1999 1.17554 23.3381 0.841559 23.6145 0.572026C23.891 0.302492 24.2335 0.167725 24.6422 0.167725H29.1133C29.5219 0.167725 29.8645 0.302437 30.1409 0.571862C30.4174 0.841287 30.5556 1.17515 30.5556 1.57343C30.5556 1.97172 30.4174 2.30575 30.1409 2.57553C29.8645 2.84531 29.5219 2.9802 29.1133 2.9802H25.6998V16.9333C25.6998 18.1442 25.2632 19.1735 24.39 20.0212C23.5167 20.8688 22.4564 21.2926 21.2089 21.2926ZM1.80566 14.6051C1.4515 14.6051 1.15462 14.4883 0.915039 14.2546C0.675456 14.0209 0.555664 13.7313 0.555664 13.3858C0.555664 13.0404 0.675456 12.751 0.915039 12.5176C1.15462 12.2843 1.4515 12.1677 1.80566 12.1677H11.8377C12.1919 12.1677 12.4887 12.2845 12.7283 12.5182C12.9679 12.7519 13.0877 13.0415 13.0877 13.3869C13.0877 13.7324 12.9679 14.0218 12.7283 14.2551C12.4887 14.4885 12.1919 14.6051 11.8377 14.6051H1.80566ZM1.80566 8.60513C1.4515 8.60513 1.15462 8.48829 0.915039 8.25462C0.675456 8.02092 0.555664 7.73134 0.555664 7.38589C0.555664 7.04042 0.675456 6.75102 0.915039 6.5177C1.15462 6.28437 1.4515 6.16771 1.80566 6.16771H18.296C18.6502 6.16771 18.947 6.28456 19.1866 6.51827C19.4262 6.75194 19.546 7.04152 19.546 7.38699C19.546 7.73244 19.4262 8.02182 19.1866 8.25515C18.947 8.48847 18.6502 8.60513 18.296 8.60513H1.80566ZM1.80566 2.60518C1.4515 2.60518 1.15462 2.48833 0.915039 2.25463C0.675456 2.02096 0.555664 1.73138 0.555664 1.38591C0.555664 1.04046 0.675456 0.751074 0.915039 0.517751C1.15462 0.284401 1.4515 0.167725 1.80566 0.167725H18.296C18.6502 0.167725 18.947 0.284577 19.1866 0.518279C19.4262 0.751981 19.546 1.04155 19.546 1.387C19.546 1.73248 19.4262 2.02188 19.1866 2.2552C18.947 2.48852 18.6502 2.60518 18.296 2.60518H1.80566Z" fill="white"/>
</svg>
