<svg width="21" height="19" viewBox="0 0 21 19" fill="none" xmlns="http://www.w3.org/2000/svg">
<path d="M10.2947 18.2339C10.0697 18.2339 9.84372 18.1935 9.61673 18.1127C9.38973 18.0319 9.19 17.9052 9.01757 17.7328L7.5081 16.3607C5.64495 14.6619 3.98153 12.9931 2.51782 11.3543C1.05412 9.71545 0.322266 7.95975 0.322266 6.0872C0.322266 4.5959 0.825097 3.34741 1.83076 2.34175C2.83642 1.33608 4.08491 0.833252 5.57621 0.833252C6.42358 0.833252 7.26051 1.0286 8.08701 1.41928C8.9135 1.80997 9.65276 2.44449 10.3048 3.32285C10.9568 2.44449 11.6961 1.80997 12.5226 1.41928C13.3491 1.0286 14.186 0.833252 15.0334 0.833252C16.5247 0.833252 17.7732 1.33608 18.7788 2.34175C19.7845 3.34741 20.2873 4.5959 20.2873 6.0872C20.2873 7.97996 19.543 9.75519 18.0544 11.4129C16.5658 13.0706 14.906 14.7253 13.0752 16.3769L11.5819 17.7328C11.4095 17.9052 11.2081 18.0319 10.9777 18.1127C10.7473 18.1935 10.5197 18.2339 10.2947 18.2339ZM9.54904 4.91922C8.98054 4.05298 8.38206 3.41812 7.75359 3.01465C7.12513 2.61116 6.39934 2.40942 5.57621 2.40942C4.52542 2.40942 3.64976 2.75968 2.94923 3.46021C2.2487 4.16074 1.89843 5.03641 1.89843 6.0872C1.89843 6.93053 2.17022 7.81226 2.7138 8.73237C3.25737 9.65248 3.93971 10.5672 4.7608 11.4765C5.58191 12.3859 6.47138 13.2743 7.42921 14.1419C8.38705 15.0095 9.27484 15.8158 10.0926 16.5608C10.1532 16.6147 10.224 16.6416 10.3048 16.6416C10.3856 16.6416 10.4564 16.6147 10.517 16.5608C11.3347 15.8158 12.2225 15.0095 13.1804 14.1419C14.1382 13.2743 15.0277 12.3859 15.8488 11.4765C16.6699 10.5672 17.3522 9.65248 17.8958 8.73237C18.4394 7.81226 18.7112 6.93053 18.7112 6.0872C18.7112 5.03641 18.3609 4.16074 17.6604 3.46021C16.9598 2.75968 16.0842 2.40942 15.0334 2.40942C14.2102 2.40942 13.4845 2.61116 12.856 3.01465C12.2275 3.41812 11.629 4.05298 11.0606 4.91922C10.9716 5.05393 10.8598 5.15497 10.7251 5.22234C10.5904 5.2897 10.4503 5.32338 10.3048 5.32338C10.1593 5.32338 10.0192 5.2897 9.88447 5.22234C9.74976 5.15497 9.63795 5.05393 9.54904 4.91922Z" fill="black"/>
</svg>
