<svg width="22" height="21" viewBox="0 0 22 21" fill="none" xmlns="http://www.w3.org/2000/svg">
<path d="M6.98348 20.2342C6.44141 20.2342 5.9805 20.062 5.60075 19.7176C5.221 19.3732 5.03113 18.9551 5.03113 18.4634C5.03113 17.9718 5.221 17.5538 5.60075 17.2093C5.9805 16.8649 6.44141 16.6927 6.98348 16.6927C7.52557 16.6927 7.98649 16.8649 8.36624 17.2093C8.74599 17.5538 8.93586 17.9718 8.93586 18.4634C8.93586 18.9551 8.74599 19.3732 8.36624 19.7176C7.98649 20.062 7.52557 20.2342 6.98348 20.2342ZM17.7967 20.2342C17.2546 20.2342 16.7936 20.062 16.4139 19.7176C16.0342 19.3732 15.8443 18.9551 15.8443 18.4634C15.8443 17.9718 16.0342 17.5538 16.4139 17.2093C16.7936 16.8649 17.2546 16.6927 17.7967 16.6927C18.3387 16.6927 18.7996 16.8649 19.1794 17.2093C19.5591 17.5538 19.749 17.9718 19.749 18.4634C19.749 18.9551 19.5591 19.3732 19.1794 19.7176C18.7996 20.062 18.3387 20.2342 17.7967 20.2342ZM5.71334 4.23881L8.54109 9.60955H16.1468C16.2112 9.60955 16.2684 9.59495 16.3184 9.56576C16.3685 9.53657 16.4114 9.49602 16.4472 9.44413L19.4401 4.51123C19.483 4.43988 19.4866 4.37664 19.4508 4.3215C19.4151 4.26636 19.3543 4.23878 19.2685 4.23878L5.71334 4.23881ZM4.91094 2.72105H20.4012C20.8575 2.72105 21.2025 2.89715 21.4364 3.24935C21.6703 3.60156 21.6813 3.96123 21.4697 4.32836L17.8953 10.2011C17.7122 10.493 17.4702 10.7203 17.1691 10.8831C16.868 11.0459 16.538 11.1273 16.179 11.1273H8.03905L6.74747 13.2678C6.69025 13.3457 6.68847 13.43 6.74211 13.5208C6.79575 13.6116 6.87621 13.6571 6.98348 13.6571H18.9123C19.1497 13.6571 19.3485 13.7297 19.5087 13.875C19.6689 14.0203 19.749 14.2006 19.749 14.4159C19.749 14.6313 19.6689 14.8116 19.5087 14.9569C19.3485 15.1022 19.1497 15.1748 18.9123 15.1748H6.98348C6.23973 15.1748 5.68084 14.8839 5.3068 14.3021C4.93278 13.7203 4.91955 13.1394 5.26711 12.5595L6.85909 9.96368L2.79983 2.21503H1.51254C1.2751 2.21503 1.07629 2.14239 0.916119 1.9971C0.755894 1.85181 0.675781 1.67149 0.675781 1.45615C0.675781 1.2408 0.755885 1.06049 0.916091 0.9152C1.07628 0.769911 1.27509 0.697266 1.51252 0.697266H3.21814C3.40838 0.697266 3.58574 0.742995 3.75022 0.834452C3.91471 0.925908 4.03987 1.05466 4.1257 1.22071L4.91092 2.72102L4.91094 2.72105Z" fill="black"/>
</svg>
