<svg width="17" height="29" viewBox="0 0 17 29" fill="none" xmlns="http://www.w3.org/2000/svg">
<path d="M16.7885 14.6096C16.7885 14.943 16.7356 15.2555 16.6297 15.5471C16.5238 15.8388 16.3437 16.1096 16.0896 16.3596L4.39792 27.8596C3.93194 28.318 3.33889 28.5471 2.61875 28.5471C1.89861 28.5471 1.30556 28.318 0.839583 27.8596C0.373611 27.4013 0.140625 26.818 0.140625 26.1096C0.140625 25.4013 0.373611 24.818 0.839583 24.3596L10.7521 14.6096L0.839584 4.85962C0.373611 4.40128 0.140625 3.81795 0.140625 3.10962C0.140625 2.40128 0.373611 1.81795 0.839584 1.35962C1.30556 0.901283 1.89861 0.672115 2.61875 0.672115C3.33889 0.672115 3.93194 0.901283 4.39792 1.35962L16.0896 12.8596C16.3437 13.1096 16.5238 13.3805 16.6297 13.6721C16.7356 13.9638 16.7885 14.2763 16.7885 14.6096Z" fill="white" fill-opacity="0.5"/>
</svg>
