<svg width="23" height="21" viewBox="0 0 23 21" fill="none" xmlns="http://www.w3.org/2000/svg">
<path d="M2.84727 18.0014C2.25794 18.0014 1.75911 17.7972 1.35078 17.3889C0.942448 16.9806 0.738281 16.4817 0.738281 15.8924V2.61045C0.738281 2.02113 0.942448 1.5223 1.35078 1.11396C1.75911 0.705632 2.25794 0.501465 2.84727 0.501465H20.7959C21.3852 0.501465 21.8841 0.705632 22.2924 1.11396C22.7007 1.5223 22.9049 2.02113 22.9049 2.61045V19.5809C22.9049 20.0535 22.6891 20.3807 22.2576 20.5624C21.8261 20.7441 21.4443 20.669 21.1123 20.337L18.7767 18.0014H2.84727ZM19.5216 16.2514L21.1549 17.8668V2.61045C21.1549 2.52069 21.1175 2.43841 21.0427 2.36361C20.9679 2.28883 20.8857 2.25144 20.7959 2.25144H2.84727C2.75751 2.25144 2.67523 2.28883 2.60043 2.36361C2.52564 2.43841 2.48825 2.52069 2.48825 2.61045V15.8924C2.48825 15.9822 2.52564 16.0645 2.60043 16.1393C2.67523 16.214 2.75751 16.2514 2.84727 16.2514H19.5216Z" fill="#606060"/>
</svg>
