<svg width="23" height="20" viewBox="0 0 23 20" fill="none" xmlns="http://www.w3.org/2000/svg">
<path d="M11.8104 19.5792C11.5606 19.5792 11.3097 19.5344 11.0577 19.4446C10.8056 19.3549 10.5839 19.2143 10.3924 19.0228L8.7165 17.4995C6.6479 15.6133 4.80105 13.7605 3.17594 11.941C1.55084 10.1214 0.738281 8.17211 0.738281 6.09307C0.738281 4.43732 1.29656 3.05116 2.41312 1.9346C3.52968 0.818046 4.91583 0.259766 6.57158 0.259766C7.51238 0.259766 8.44161 0.47665 9.35925 0.910417C10.2769 1.34418 11.0976 2.04867 11.8216 3.02389C12.5455 2.04867 13.3663 1.34418 14.2839 0.910417C15.2016 0.47665 16.1308 0.259766 17.0716 0.259766C18.7273 0.259766 20.1135 0.818046 21.2301 1.9346C22.3466 3.05116 22.9049 4.43732 22.9049 6.09307C22.9049 8.19455 22.0785 10.1655 20.4257 12.006C18.7729 13.8465 16.9302 15.6836 14.8975 17.5174L13.2395 19.0228C13.0481 19.2143 12.8245 19.3549 12.5687 19.4446C12.3129 19.5344 12.0601 19.5792 11.8104 19.5792ZM10.9825 4.79629C10.3513 3.83453 9.68683 3.12967 8.98906 2.68171C8.2913 2.23373 7.48547 2.00974 6.57158 2.00974C5.40492 2.00974 4.4327 2.39863 3.65492 3.1764C2.87714 3.95418 2.48825 4.9264 2.48825 6.09307C2.48825 7.0294 2.79001 8.00835 3.39353 9.02992C3.99704 10.0515 4.75462 11.0671 5.66625 12.0767C6.5779 13.0863 7.56546 14.0727 8.62891 15.036C9.69237 15.9992 10.6781 16.8944 11.586 17.7216C11.6533 17.7814 11.7318 17.8113 11.8216 17.8113C11.9113 17.8113 11.9899 17.7814 12.0572 17.7216C12.9651 16.8944 13.9508 15.9992 15.0143 15.036C16.0777 14.0727 17.0653 13.0863 17.9769 12.0767C18.8886 11.0671 19.6461 10.0515 20.2496 9.02992C20.8532 8.00835 21.1549 7.0294 21.1549 6.09307C21.1549 4.9264 20.766 3.95418 19.9883 3.1764C19.2105 2.39863 18.2383 2.00974 17.0716 2.00974C16.1577 2.00974 15.3519 2.23373 14.6541 2.68171C13.9563 3.12967 13.2919 3.83453 12.6607 4.79629C12.562 4.94586 12.4378 5.05804 12.2883 5.13285C12.1387 5.20763 11.9831 5.24502 11.8216 5.24502C11.6601 5.24502 11.5045 5.20763 11.3549 5.13285C11.2054 5.05804 11.0812 4.94586 10.9825 4.79629Z" fill="#606060"/>
</svg>
