<svg width="24" height="23" viewBox="0 0 24 23" fill="none" xmlns="http://www.w3.org/2000/svg">
<path d="M7.33757 5.67911L10.6047 1.39185C10.8216 1.10163 11.0791 0.888487 11.3773 0.752429C11.6755 0.61637 11.9904 0.54834 12.3219 0.54834C12.6534 0.54834 12.9683 0.61637 13.2665 0.752429C13.5647 0.888487 13.8223 1.10163 14.0391 1.39185L17.3063 5.67911L22.3023 7.36612C22.7794 7.5195 23.1516 7.79005 23.4188 8.17779C23.686 8.56554 23.8196 8.99388 23.8196 9.46279C23.8196 9.6792 23.788 9.89497 23.7247 10.1101C23.6615 10.3252 23.5576 10.5313 23.413 10.7285L20.1598 15.2435L20.2806 20.035C20.3007 20.6713 20.091 21.2075 19.6515 21.6438C19.2119 22.0801 18.6997 22.2983 18.1149 22.2983C18.0979 22.2983 17.8957 22.2719 17.5084 22.2193L12.3219 20.7321L7.13538 22.2193C7.03469 22.2595 6.93076 22.2828 6.8236 22.289C6.71644 22.2952 6.6182 22.2983 6.52889 22.2983C5.93868 22.2983 5.42515 22.0801 4.98829 21.6438C4.55144 21.2075 4.34308 20.6713 4.36322 20.035L4.48406 15.2133L1.24944 10.7285C1.10484 10.5306 1.00091 10.3236 0.937658 10.1076C0.874402 9.8917 0.842773 9.67574 0.842773 9.45977C0.842773 9.00409 0.975509 8.5803 1.24098 8.18842C1.50645 7.79652 1.87719 7.51855 2.35319 7.35452L7.33757 5.67911ZM8.45757 7.24061L2.9341 9.08099C2.81792 9.11971 2.73852 9.19911 2.6959 9.31918C2.65331 9.43925 2.67074 9.54964 2.74819 9.65035L6.30813 14.6742L6.17566 20.0722C6.16793 20.2039 6.21441 20.3084 6.3151 20.3859C6.4158 20.4634 6.52812 20.4827 6.65208 20.444L12.3219 18.8522L17.9917 20.4742C18.1157 20.5129 18.228 20.4936 18.3287 20.4161C18.4294 20.3386 18.4759 20.2341 18.4682 20.1024L18.3357 14.6742L21.8956 9.71077C21.9731 9.61006 21.9905 9.49967 21.9479 9.3796C21.9053 9.25953 21.8259 9.18013 21.7097 9.1414L16.1862 7.24061L12.6124 2.52348C12.5427 2.42279 12.4458 2.37244 12.3219 2.37244C12.198 2.37244 12.1011 2.42279 12.0314 2.52348L8.45757 7.24061Z" fill="#606060"/>
</svg>
