<svg width="29" height="28" viewBox="0 0 29 28" fill="none" xmlns="http://www.w3.org/2000/svg">
<path d="M14.6836 18.0923L18.5464 21.017C18.8127 21.204 19.0815 21.2102 19.3526 21.0354C19.6237 20.8606 19.7073 20.6155 19.6034 20.3L18.1411 15.4623L21.9143 12.7792C22.1912 12.5728 22.2754 12.3157 22.1668 12.0077C22.0581 11.6997 21.8418 11.5458 21.5177 11.5458H16.8998L15.3269 6.46441C15.2141 6.14887 14.9998 5.9911 14.684 5.9911C14.3682 5.9911 14.1536 6.14887 14.0403 6.46441L12.4674 11.5458H7.84947C7.52541 11.5458 7.30906 11.6997 7.20043 12.0077C7.09179 12.3157 7.17594 12.5728 7.45287 12.7792L11.2261 15.4623L9.76376 20.3C9.65984 20.6155 9.74345 20.8606 10.0146 21.0354C10.2857 21.2102 10.5544 21.204 10.8208 21.017L14.6836 18.0923ZM14.6861 28C12.7497 28 10.9297 27.6326 9.2259 26.8977C7.5221 26.1628 6.04003 25.1655 4.77971 23.9057C3.51936 22.6459 2.52159 21.1645 1.78639 19.4615C1.05119 17.7585 0.683594 15.9388 0.683594 14.0025C0.683594 12.0661 1.05103 10.2461 1.78591 8.54231C2.52079 6.8385 3.51811 5.35644 4.77787 4.09612C6.03765 2.83577 7.51906 1.838 9.22211 1.1028C10.9251 0.367601 12.7448 0 14.6811 0C16.6175 0 18.4375 0.367441 20.1413 1.10232C21.8451 1.8372 23.3272 2.83452 24.5875 4.09427C25.8478 5.35406 26.8456 6.83547 27.5808 8.53851C28.316 10.2415 28.6836 12.0612 28.6836 13.9975C28.6836 15.9339 28.3162 17.7539 27.5813 19.4577C26.8464 21.1615 25.8491 22.6436 24.5893 23.9039C23.3295 25.1642 21.8481 26.162 20.1451 26.8972C18.4421 27.6324 16.6224 28 14.6861 28ZM14.6836 25.7895C17.9503 25.7895 20.7319 24.6413 23.0284 22.3448C25.3249 20.0483 26.4731 17.2667 26.4731 14C26.4731 10.7333 25.3249 7.95174 23.0284 5.65524C20.7319 3.35874 17.9503 2.2105 14.6836 2.2105C11.4169 2.2105 8.63533 3.35874 6.33883 5.65524C4.04234 7.95174 2.89409 10.7333 2.89409 14C2.89409 17.2667 4.04234 20.0483 6.33883 22.3448C8.63533 24.6413 11.4169 25.7895 14.6836 25.7895Z" fill="black"/>
</svg>
