<svg width="31" height="25" viewBox="0 0 31 25" fill="none" xmlns="http://www.w3.org/2000/svg">
<g clip-path="url(#clip0_2128_1850)">
<path d="M15.3444 20.9552C15.0768 20.9552 14.8079 20.9077 14.5379 20.8129C14.2679 20.718 14.0303 20.5695 13.8252 20.3671L12.0295 18.7571C9.81319 16.7638 7.83441 14.8056 6.09323 12.8826C4.35204 10.9596 3.48145 8.89952 3.48145 6.70229C3.48145 4.95241 4.0796 3.48745 5.27591 2.30741C6.47223 1.12737 7.95739 0.537354 9.73141 0.537354C10.7394 0.537354 11.735 0.766568 12.7182 1.225C13.7014 1.68342 14.5808 2.42796 15.3564 3.45862C16.1321 2.42796 17.0115 1.68342 17.9946 1.225C18.9778 0.766568 19.9734 0.537354 20.9814 0.537354C22.7554 0.537354 24.2406 1.12737 25.4369 2.30741C26.6332 3.48745 27.2314 4.95241 27.2314 6.70229C27.2314 8.92324 26.346 11.0063 24.5751 12.9514C22.8043 14.8965 20.8299 16.8381 18.652 18.7761L16.8756 20.3671C16.6705 20.5695 16.4309 20.718 16.1569 20.8129C15.8828 20.9077 15.612 20.9552 15.3444 20.9552ZM14.4574 5.33179C13.7811 4.31535 13.0692 3.57042 12.3216 3.09699C11.574 2.62354 10.7106 2.38681 9.73141 2.38681C8.48141 2.38681 7.43975 2.79781 6.60641 3.61981C5.77308 4.4418 5.35641 5.4693 5.35641 6.70229C5.35641 7.69185 5.67973 8.72645 6.32635 9.8061C6.97298 10.8858 7.78466 11.9591 8.76141 13.0261C9.73818 14.0931 10.7963 15.1356 11.9357 16.1536C13.0751 17.1716 14.1312 18.1177 15.104 18.9919C15.1761 19.0551 15.2602 19.0868 15.3564 19.0868C15.4526 19.0868 15.5367 19.0551 15.6089 18.9919C16.5816 18.1177 17.6377 17.1716 18.7771 16.1536C19.9166 15.1356 20.9746 14.0931 21.9514 13.0261C22.9282 11.9591 23.7399 10.8858 24.3865 9.8061C25.0331 8.72645 25.3564 7.69185 25.3564 6.70229C25.3564 5.4693 24.9398 4.4418 24.1064 3.61981C23.2731 2.79781 22.2314 2.38681 20.9814 2.38681C20.0023 2.38681 19.1389 2.62354 18.3913 3.09699C17.6437 3.57042 16.9317 4.31535 16.2554 5.33179C16.1497 5.48986 16.0167 5.60842 15.8564 5.68747C15.6961 5.76651 15.5295 5.80603 15.3564 5.80603C15.1834 5.80603 15.0167 5.76651 14.8564 5.68747C14.6962 5.60842 14.5632 5.48986 14.4574 5.33179Z" fill="black"/>
</g>
<defs>
<clipPath id="clip0_2128_1850">
<rect width="30" height="23.9011" fill="white" transform="translate(0.481445 0.461548)"/>
</clipPath>
</defs>
</svg>
