<svg width="1239" height="1400" viewBox="0 0 1239 1400" fill="none" xmlns="http://www.w3.org/2000/svg">
<path d="M250.184 20C250.184 9.23044 258.914 0.5 269.684 0.5H479.684C490.453 0.5 499.184 9.23045 499.184 20V80.5H250.184V20Z" fill="#D9D9D9" stroke="black"/>
<path d="M500.184 20C500.184 9.23044 508.914 0.5 519.684 0.5H729.684C740.453 0.5 749.184 9.23045 749.184 20V80.5H500.184V20Z" fill="#D9D9D9" stroke="black"/>
<g filter="url(#filter0_d_2516_307)">
<mask id="path-3-inside-1_2516_307" fill="white">
<path fill-rule="evenodd" clip-rule="evenodd" d="M20.6836 0C9.6379 0 0.683594 8.9543 0.683594 20V72V81V1349C0.683594 1371.09 18.5922 1389 40.6836 1389H1187.68C1209.78 1389 1227.68 1371.09 1227.68 1349V112C1227.68 89.9086 1209.78 72 1187.68 72H249.684V20C249.684 8.95431 240.729 0 229.684 0H20.6836Z"/>
</mask>
<path fill-rule="evenodd" clip-rule="evenodd" d="M20.6836 0C9.6379 0 0.683594 8.9543 0.683594 20V72V81V1349C0.683594 1371.09 18.5922 1389 40.6836 1389H1187.68C1209.78 1389 1227.68 1371.09 1227.68 1349V112C1227.68 89.9086 1209.78 72 1187.68 72H249.684V20C249.684 8.95431 240.729 0 229.684 0H20.6836Z" fill="white"/>
<path d="M249.684 72H247.684V74H249.684V72ZM2.68359 20C2.68359 10.0589 10.7425 2 20.6836 2V-2C8.53333 -2 -1.31641 7.84973 -1.31641 20H2.68359ZM2.68359 72V20H-1.31641V72H2.68359ZM2.68359 81V72H-1.31641V81H2.68359ZM2.68359 1349V81H-1.31641V1349H2.68359ZM40.6836 1387C19.6967 1387 2.68359 1369.99 2.68359 1349H-1.31641C-1.31641 1372.2 17.4876 1391 40.6836 1391V1387ZM1187.68 1387H40.6836V1391H1187.68V1387ZM1225.68 1349C1225.68 1369.99 1208.67 1387 1187.68 1387V1391C1210.88 1391 1229.68 1372.2 1229.68 1349H1225.68ZM1225.68 112V1349H1229.68V112H1225.68ZM1187.68 74C1208.67 74 1225.68 91.0132 1225.68 112H1229.68C1229.68 88.804 1210.88 70 1187.68 70V74ZM249.684 74H1187.68V70H249.684V74ZM247.684 20V72H251.684V20H247.684ZM229.684 2C239.625 2 247.684 10.0589 247.684 20H251.684C251.684 7.84974 241.834 -2 229.684 -2V2ZM20.6836 2H229.684V-2H20.6836V2Z" fill="black" mask="url(#path-3-inside-1_2516_307)"/>
</g>
<path d="M337.934 31.35C338.094 33.51 338.174 35.19 338.174 36.39C338.174 37.57 338.124 38.54 338.024 39.3V54.09H331.694V47.37C331.434 47.49 331.064 47.63 330.584 47.79C330.524 46.19 330.414 44.81 330.254 43.65C330.094 42.47 329.794 41.27 329.354 40.05C330.034 40.05 330.574 39.95 330.974 39.75C331.394 39.53 331.684 39.26 331.844 38.94C331.924 38.8 331.964 38.5 331.964 38.04C331.964 36.7 331.684 34.46 331.124 31.32L337.934 31.35ZM338.684 31.38H358.724V53.97H353.174V53.67H344.234V53.97H338.684V31.38ZM344.234 48.96H353.174V35.85H351.134V36.48H352.544V40.14H351.134V40.95H352.544V48.45H344.864V40.95H346.304V40.14H344.864V36.48H346.304V35.85H344.234V48.96ZM349.454 45.24V43.71H348.014V45.24H349.454ZM380.354 36.12C380.334 39.1 381.244 41.44 383.084 43.14C384.924 44.84 387.744 46.07 391.544 46.83C390.984 47.73 390.494 48.66 390.074 49.62C389.654 50.58 389.184 51.77 388.664 53.19C388.544 53.47 388.384 53.89 388.184 54.45C385.784 53.83 383.544 52.76 381.464 51.24C379.384 49.7 377.724 47.77 376.484 45.45C375.224 47.75 373.544 49.67 371.444 51.21C369.364 52.75 367.144 53.83 364.784 54.45C364.584 53.89 364.424 53.47 364.304 53.19C363.784 51.77 363.314 50.58 362.894 49.62C362.474 48.66 361.984 47.73 361.424 46.83C365.204 46.09 368.004 44.87 369.824 43.17C371.644 41.47 372.564 39.12 372.584 36.12L372.614 30.75L380.384 30.81L380.354 36.12ZM422.504 41.52H404.174L403.904 42.03H421.574V54.15H415.064V53.64H404.504V54.15H397.994V49.53C397.334 50.13 396.684 50.58 396.044 50.88C395.024 47.9 394.054 45.7 393.134 44.28C393.814 44.08 394.534 43.72 395.294 43.2C396.054 42.66 396.664 42.1 397.124 41.52H394.064V38.58H398.564L398.714 38.07H394.514V35.1H399.074V34.65H395.654L395.324 31.5C404.084 31.44 412.804 31.29 421.484 31.05L421.814 34.65H406.094L406.064 35.1H422.054V38.07H405.554L405.404 38.58H422.504V41.52ZM404.504 45.33H415.064V44.79H404.504V45.33ZM404.504 47.94H415.064V47.4H404.504V47.94ZM404.504 50.58H415.064V50.01H404.504V50.58ZM454.604 47.52C453.764 49.34 452.994 51.48 452.294 53.94C450.574 53.6 448.984 53 447.524 52.14C446.244 52.86 444.374 53.51 441.914 54.09C441.494 52.65 440.954 51.2 440.294 49.74C439.654 51.38 438.914 52.83 438.074 54.09C436.874 51.49 435.684 49.32 434.504 47.58V54.18H428.414V47.73C427.894 49.41 427.264 50.84 426.524 52.02C426.264 48.86 425.754 46.13 424.994 43.83C425.674 43.41 426.284 42.9 426.824 42.3C427.364 41.68 427.894 40.94 428.414 40.08V39.72H426.194V33.78H428.414V31.14H434.504V33.78H436.064V39.72H434.504V39.87C434.784 40.13 435.234 40.59 435.854 41.25L436.484 41.91C436.684 40.55 436.784 38.51 436.784 35.79C436.784 34.05 436.774 32.67 436.754 31.65H453.944V36.99H442.634V37.65H453.854C453.874 39.73 453.734 41.57 453.434 43.17C453.134 44.77 452.664 46.2 452.024 47.46C452.524 47.52 453.074 47.55 453.674 47.55C454.074 47.55 454.384 47.54 454.604 47.52ZM446.954 45.12C447.334 44.32 447.604 43.29 447.764 42.03H445.664C445.744 43.21 446.174 44.24 446.954 45.12ZM440.954 47.88C441.434 47.94 441.874 47.97 442.274 47.97C442.694 47.97 443.084 47.94 443.444 47.88C442.724 46.56 442.274 45.04 442.094 43.32C441.934 44.24 441.744 45.09 441.524 45.87C441.504 45.99 441.314 46.66 440.954 47.88ZM434.504 46.74C434.664 46.54 434.774 46.39 434.834 46.29C434.774 45.97 434.664 45.51 434.504 44.91V46.74Z" fill="black"/>
<path d="M306.184 41.4947C304.579 41.4947 303.206 40.9319 302.064 39.8064C300.921 38.6809 300.35 37.3279 300.35 35.7474C300.35 34.1668 300.921 32.8138 302.064 31.6883C303.206 30.5628 304.579 30 306.184 30C307.788 30 309.161 30.5628 310.303 31.6883C311.446 32.8138 312.017 34.1668 312.017 35.7474C312.017 37.3279 311.446 38.6809 310.303 39.8064C309.161 40.9319 307.788 41.4947 306.184 41.4947ZM293.684 51.5053V50.3495C293.684 49.5453 293.905 48.8006 294.349 48.1153C294.792 47.4301 295.384 46.9032 296.126 46.5348C297.773 45.739 299.435 45.1421 301.111 44.7443C302.788 44.3464 304.478 44.1474 306.184 44.1474C307.889 44.1474 309.579 44.3464 311.256 44.7443C312.932 45.1421 314.594 45.739 316.241 46.5348C316.983 46.9032 317.575 47.4301 318.019 48.1153C318.462 48.8006 318.684 49.5453 318.684 50.3495V51.5053C318.684 52.1979 318.437 52.7868 317.945 53.2721C317.452 53.7574 316.855 54 316.152 54H296.216C295.513 54 294.915 53.7574 294.422 53.2721C293.93 52.7868 293.684 52.1979 293.684 51.5053ZM296.184 51.5369H316.184V50.3495C316.184 50.0169 316.086 49.709 315.89 49.4258C315.695 49.1427 315.429 48.9116 315.094 48.7326C313.658 48.0358 312.194 47.5079 310.701 47.1489C309.209 46.79 307.703 46.6105 306.184 46.6105C304.664 46.6105 303.158 46.79 301.666 47.1489C300.173 47.5079 298.709 48.0358 297.273 48.7326C296.938 48.9116 296.672 49.1427 296.477 49.4258C296.281 49.709 296.184 50.0169 296.184 50.3495V51.5369ZM306.184 39.0316C307.1 39.0316 307.885 38.71 308.538 38.0668C309.191 37.4237 309.517 36.6505 309.517 35.7474C309.517 34.8442 309.191 34.071 308.538 33.4279C307.885 32.7847 307.1 32.4631 306.184 32.4631C305.267 32.4631 304.482 32.7847 303.829 33.4279C303.177 34.071 302.85 34.8442 302.85 35.7474C302.85 36.6505 303.177 37.4237 303.829 38.0668C304.482 38.71 305.267 39.0316 306.184 39.0316Z" fill="black"/>
<path d="M609.384 39.96H602.664V40.44H608.334V46.83H609.384V49.98H608.334V52.65C608.334 53.03 608.214 53.31 607.974 53.49C607.754 53.65 607.264 53.78 606.504 53.88C605.764 53.98 604.474 54.09 602.634 54.21C602.594 54.11 602.474 53.8 602.274 53.28C602.094 52.74 601.824 52.24 601.464 51.78C601.104 51.3 600.684 50.89 600.204 50.55C600.884 50.55 601.404 50.56 601.764 50.58C602.124 50.58 602.394 50.58 602.574 50.58C602.874 50.58 603.044 50.55 603.084 50.49C603.124 50.43 603.144 50.26 603.144 49.98H596.424V53.82H591.324V52.56C590.304 53.14 589.224 53.82 588.084 54.6C587.304 53.54 586.594 52.73 585.954 52.17L587.454 50.37H585.114L586.014 50.97C585.114 52.33 584.114 53.52 583.014 54.54C582.354 54.04 581.744 53.62 581.184 53.28C580.644 52.92 580.044 52.62 579.384 52.38C580.364 51.86 581.264 51.19 582.084 50.37H580.734V31.83H590.814V34.89H593.094V34.41H591.174V31.86H593.094V31.29H598.494V31.86H601.164V31.29H606.594V31.86H608.754V34.41H606.594V34.89H609.204V36.99H606.594V37.53H609.384V39.96ZM601.164 34.41H598.494V34.89H601.164V34.41ZM586.344 37.44V35.97H585.324V37.44H586.344ZM593.094 37.53V36.99H590.814V37.53H593.094ZM598.494 37.53H601.164V36.99H598.494V37.53ZM591.324 40.44H596.844L596.814 39.96H590.814V46.83H591.324V40.44ZM585.324 41.94H586.344V40.44H585.324V41.94ZM597.744 43.68V43.08H596.424V43.68H597.744ZM601.794 43.68H603.144V43.08H601.794V43.68ZM585.324 44.94V46.47H586.344V44.94H585.324ZM596.424 46.17V46.83H597.774V46.17H596.424ZM601.824 46.17V46.83H603.144V46.17H601.824ZM591.324 49.98H590.814V50.37H589.194C589.794 50.83 590.504 51.43 591.324 52.17V49.98ZM612.864 31.38H640.314V37.41H612.834L612.864 34.83V31.38ZM621.534 34.14H618.984V34.77H621.534V34.14ZM627.804 34.77V34.14H625.224V34.77H627.804ZM631.494 34.77H634.044V34.14H631.494V34.77ZM632.034 49.53C636.034 49.97 639.224 50.36 641.604 50.7C640.304 51.98 639.084 53.26 637.944 54.54C633.204 53.38 629.404 52.5 626.544 51.9C622.464 53.02 618.654 53.87 615.114 54.45C614.114 53.21 612.804 51.85 611.184 50.37C614.644 50.33 617.944 50.05 621.084 49.53H613.524V37.86H639.444V49.53H632.034ZM632.544 41.19V40.68H620.424V41.19H632.544ZM620.424 43.95H632.544V43.44H620.424V43.95ZM632.544 46.14H620.424V46.65H632.544V46.14ZM624.084 49.53L626.484 51.27C627.484 50.49 628.344 49.91 629.064 49.53H624.084ZM667.314 44.82C668.074 45.36 668.844 45.74 669.624 45.96C670.424 46.18 671.384 46.37 672.504 46.53C672.504 48.79 672.324 50.44 671.964 51.48C671.604 52.52 671.104 53.17 670.464 53.43C669.824 53.67 668.864 53.79 667.584 53.79L661.344 53.82C660.344 53.82 659.604 53.72 659.124 53.52C658.644 53.32 658.314 52.95 658.134 52.41C657.954 51.87 657.864 51.03 657.864 49.89V39.06H665.724V36.87H657.414V33.57L654.954 36.63L656.304 36.48C656.764 38.36 657.094 39.86 657.294 40.98C657.514 42.08 657.674 43.16 657.774 44.22L653.994 44.7L653.934 44.04L653.364 44.13V54.03H647.874V44.73C646.634 44.87 645.294 44.99 643.854 45.09C643.854 43.27 643.764 41.8 643.584 40.68L645.774 40.62L646.764 39.63C646.204 39.07 645.604 38.51 644.964 37.95C644.324 37.39 643.794 36.96 643.374 36.66L645.414 32.55L646.194 33.18C646.734 32.46 647.274 31.55 647.814 30.45L652.584 31.53L651.534 32.91C650.154 34.73 649.404 35.71 649.284 35.85L649.674 36.27C651.074 34.53 652.384 32.71 653.604 30.81L657.414 31.89V31.38H671.994V44.82H667.314ZM653.094 38.97L651.864 40.47C652.584 40.43 653.094 40.41 653.394 40.41L653.094 38.97ZM665.604 47.91C666.024 47.91 666.304 47.79 666.444 47.55C666.604 47.31 666.684 46.87 666.684 46.23C666.684 46.05 666.664 45.58 666.624 44.82H665.724V44.22H663.534V46.53C663.534 46.99 663.554 47.31 663.594 47.49C663.634 47.67 663.704 47.79 663.804 47.85C663.924 47.89 664.124 47.91 664.404 47.91H665.604ZM657.054 45C657.054 46.6 657.084 47.96 657.144 49.08C657.224 50.2 657.374 51.42 657.594 52.74L655.734 52.92L654.084 53.1C653.964 50.62 653.904 47.97 653.904 45.15L657.054 45ZM644.244 45.42C644.644 45.42 645.264 45.4 646.104 45.36L647.394 45.33C647.394 47.11 647.364 48.53 647.304 49.59C647.264 50.63 647.114 51.86 646.854 53.28C646.714 53.26 646.324 53.22 645.684 53.16C645.064 53.08 644.324 53.04 643.464 53.04C643.804 51.72 644.014 50.53 644.094 49.47C644.194 48.41 644.244 47.06 644.244 45.42ZM705.024 48.69C704.444 49.55 703.964 50.42 703.584 51.3C703.224 52.16 702.884 53.12 702.564 54.18C700.924 52.48 699.644 50.71 698.724 48.87V50.91C698.724 51.91 698.524 52.62 698.124 53.04C697.724 53.46 697.134 53.72 696.354 53.82C695.594 53.9 694.314 53.94 692.514 53.94C692.274 52.82 692.044 52.01 691.824 51.51C691.004 52.71 690.244 53.66 689.544 54.36C689.144 53.46 688.884 52.89 688.764 52.65C684.804 53.39 680.814 53.91 676.794 54.21C676.634 53.33 676.414 52.42 676.134 51.48C675.874 50.52 675.584 49.71 675.264 49.05C676.824 49.05 678.324 49.02 679.764 48.96V44.01H676.464V40.86H679.764V40.35H677.334V39.51L676.104 40.26C675.924 39.06 675.724 38.06 675.504 37.26C675.304 36.44 675.004 35.62 674.604 34.8C677.324 34.36 679.244 33.13 680.364 31.11H685.374C685.174 31.61 684.984 32.04 684.804 32.4C685.684 32.92 687.054 33.38 688.914 33.78C689.054 32.9 689.154 31.99 689.214 31.05H694.824L694.764 31.65H703.794L703.704 34.11C703.684 34.63 703.654 35.38 703.614 36.36C703.574 37.34 703.544 38.19 703.524 38.91H704.334V42.36H702.804C703.464 42.64 704.104 42.88 704.724 43.08C703.824 44.6 703.014 45.89 702.294 46.95L700.644 46.05C701.824 47.17 703.284 48.05 705.024 48.69ZM694.314 34.92L694.224 35.52L698.214 35.55C698.234 35.41 698.244 35.2 698.244 34.92H694.314ZM682.644 35.43C682.264 35.83 681.824 36.25 681.324 36.69H684.174C683.634 36.27 683.124 35.85 682.644 35.43ZM688.104 38.43L688.164 38.13L687.954 38.91H698.004L698.034 38.43H688.104ZM684.804 40.35V40.86H687.804V39.15L687.414 38.91V40.35H684.804ZM687.984 43.89L690.504 42.36H687.984V43.89ZM693.654 42.36H692.454C692.894 43 693.254 43.58 693.534 44.1L693.654 43.98V42.36ZM699.174 44.1C699.534 43.58 699.884 43 700.224 42.36H698.724V42.96C698.824 43.36 698.974 43.74 699.174 44.1ZM688.584 48.78C689.344 48.28 690.014 47.75 690.594 47.19C690.494 47.07 690.264 46.79 689.904 46.35C689.544 45.91 689.174 45.5 688.794 45.12C688.434 44.72 688.074 44.37 687.714 44.07L687.804 44.01H684.804V48.57C686.164 48.41 687.434 48.22 688.614 48L688.584 48.78ZM676.224 44.55L679.014 44.4L679.314 48.36L676.704 48.54L676.224 44.55ZM687.804 47.97L685.194 47.88L685.524 44.4L688.044 44.52L687.804 47.97ZM693.144 50.43C693.384 50.43 693.524 50.41 693.564 50.37C693.624 50.31 693.654 50.2 693.654 50.04V48.78C693.174 49.5 692.824 50.04 692.604 50.4L693.144 50.43Z" fill="black"/>
<path d="M551.107 49.8524C551.493 49.8524 551.817 49.7216 552.078 49.46C552.339 49.1985 552.469 48.8743 552.469 48.4876C552.469 48.1009 552.338 47.7771 552.077 47.5162C551.815 47.2553 551.491 47.1249 551.104 47.1249C550.718 47.1249 550.394 47.2557 550.133 47.5173C549.872 47.7788 549.742 48.103 549.742 48.4897C549.742 48.8764 549.873 49.2002 550.134 49.4611C550.396 49.722 550.72 49.8524 551.107 49.8524ZM551.107 43.8636C551.493 43.8636 551.817 43.7329 552.078 43.4713C552.339 43.2097 552.469 42.8855 552.469 42.4988C552.469 42.1121 552.338 41.7883 552.077 41.5274C551.815 41.2666 551.491 41.1361 551.104 41.1361C550.718 41.1361 550.394 41.2669 550.133 41.5285C549.872 41.7901 549.742 42.1142 549.742 42.5009C549.742 42.8876 549.873 43.2114 550.134 43.4723C550.396 43.7332 550.72 43.8636 551.107 43.8636ZM551.107 37.8749C551.493 37.8749 551.817 37.7441 552.078 37.4825C552.339 37.2209 552.469 36.8968 552.469 36.5101C552.469 36.1234 552.338 35.7996 552.077 35.5387C551.815 35.2778 551.491 35.1473 551.104 35.1473C550.718 35.1473 550.394 35.2781 550.133 35.5397C549.872 35.8013 549.742 36.1255 549.742 36.5122C549.742 36.8989 549.873 37.2227 550.134 37.4835C550.396 37.7444 550.72 37.8749 551.107 37.8749ZM556.946 49.6449H563.409C563.737 49.6449 564.011 49.534 564.233 49.3123C564.455 49.0906 564.565 48.8159 564.565 48.4881C564.565 48.1604 564.455 47.8858 564.233 47.6645C564.011 47.4431 563.737 47.3324 563.409 47.3324H556.946C556.618 47.3324 556.344 47.4433 556.122 47.665C555.901 47.8867 555.79 48.1614 555.79 48.4892C555.79 48.8169 555.901 49.0915 556.122 49.3128C556.344 49.5342 556.618 49.6449 556.946 49.6449ZM556.946 43.6561H563.409C563.737 43.6561 564.011 43.5452 564.233 43.3236C564.455 43.1018 564.565 42.8271 564.565 42.4994C564.565 42.1716 564.455 41.8971 564.233 41.6757C564.011 41.4543 563.737 41.3437 563.409 41.3437H556.946C556.618 41.3437 556.344 41.4545 556.122 41.6762C555.901 41.8979 555.79 42.1727 555.79 42.5004C555.79 42.8281 555.901 43.1027 556.122 43.3241C556.344 43.5454 556.618 43.6561 556.946 43.6561ZM556.946 37.6673H563.409C563.737 37.6673 564.011 37.5565 564.233 37.3348C564.455 37.1131 564.565 36.8383 564.565 36.5106C564.565 36.1829 564.455 35.9083 564.233 35.6869C564.011 35.4656 563.737 35.3549 563.409 35.3549H556.946C556.618 35.3549 556.344 35.4657 556.122 35.6874C555.901 35.9092 555.79 36.1839 555.79 36.5116C555.79 36.8394 555.901 37.1139 556.122 37.3353C556.344 37.5567 556.618 37.6673 556.946 37.6673ZM546.866 55.604C546.087 55.604 545.428 55.3342 544.888 54.7946C544.349 54.2551 544.079 53.5959 544.079 52.8171V32.1826C544.079 31.4039 544.349 30.7447 544.888 30.2051C545.428 29.6655 546.087 29.3958 546.866 29.3958H567.5C568.279 29.3958 568.938 29.6655 569.478 30.2051C570.018 30.7447 570.287 31.4039 570.287 32.1826V52.8171C570.287 53.5959 570.018 54.2551 569.478 54.7946C568.938 55.3342 568.279 55.604 567.5 55.604H546.866ZM546.866 53.2915H567.5C567.619 53.2915 567.728 53.2421 567.827 53.1433C567.925 53.0445 567.975 52.9357 567.975 52.8171V32.1826C567.975 32.064 567.925 31.9553 567.827 31.8564C567.728 31.7576 567.619 31.7082 567.5 31.7082H546.866C546.747 31.7082 546.639 31.7576 546.54 31.8564C546.441 31.9553 546.392 32.064 546.392 32.1826V52.8171C546.392 52.9357 546.441 53.0445 546.54 53.1433C546.639 53.2421 546.747 53.2915 546.866 53.2915Z" fill="black"/>
<path d="M110.654 47.73C110.014 48.71 109.504 49.64 109.124 50.52C108.764 51.4 108.404 52.42 108.044 53.58L107.834 54.27C106.234 53.35 104.874 52.37 103.754 51.33C102.074 52.45 99.7136 53.43 96.6736 54.27C96.4136 52.03 95.9436 50.14 95.2636 48.6V54.18H88.8736V51.48L81.1636 52.44V47.1L82.0036 46.98V32.4H88.2436V46.2L88.8736 46.14V31.41H95.2636V39.18C95.9036 38.42 96.3536 37.49 96.6136 36.39C96.8736 35.29 97.0036 33.94 97.0036 32.34L96.9736 31.05H102.464L102.494 31.95H109.904V38.13H109.274C109.234 39.85 109.104 41.39 108.884 42.75C108.664 44.09 108.324 45.32 107.864 46.44C108.444 46.78 109.374 47.21 110.654 47.73ZM103.214 42.18C103.434 41.2 103.524 39.85 103.484 38.13H101.744L101.564 38.82C102.044 40.08 102.594 41.2 103.214 42.18ZM95.2636 47.34C95.4636 47.36 95.7536 47.37 96.1336 47.37C97.5336 47.37 98.7936 47.13 99.9136 46.65C99.4736 45.87 99.1236 45.17 98.8636 44.55C98.3436 45.25 97.7736 45.91 97.1536 46.53C96.6536 44.63 96.0236 42.8 95.2636 41.04V47.34ZM142.004 37.23V40.71H138.134L141.374 41.55C140.674 43.43 140.054 44.93 139.514 46.05C140.014 46.39 140.714 46.75 141.614 47.13C141.674 48.07 141.724 48.91 141.764 49.65C141.804 50.39 141.824 51.31 141.824 52.41C141.824 52.97 141.734 53.34 141.554 53.52C141.394 53.68 141.124 53.76 140.744 53.76C138.964 53.76 137.424 52.99 136.124 51.45C135.244 52.45 134.244 53.41 133.124 54.33C132.964 54.23 132.624 53.94 132.104 53.46L131.564 52.95H127.544V53.46H123.584V41.16H132.254C132.214 40.96 132.194 40.81 132.194 40.71H123.194C123.174 40.83 123.164 41.08 123.164 41.46L123.194 43.11C123.194 46.51 123.154 48.94 123.074 50.4C122.994 51.86 122.884 53.07 122.744 54.03C121.424 53.67 119.984 53.36 118.424 53.1L117.704 52.95C117.984 51.63 118.184 50.3 118.304 48.96H117.704C117.544 51.04 117.324 52.6 117.044 53.64C115.964 53.4 114.704 53.22 113.264 53.1C113.784 51.9 114.134 50.52 114.314 48.96H113.804V44.52H118.484V43.8H114.194V37.26H117.824V39.81H118.484V37.17L131.864 37.2L131.834 36.6H129.314V36.06H125.624V36.6H119.234V36.06H113.624V31.77H119.234V31.02H125.624V31.77H129.314V31.02H135.704V31.77H141.344V36.06H138.644C139.264 36.32 139.924 36.71 140.624 37.23H142.004ZM135.704 36.57H136.364V37.23H137.414L138.164 36.06H135.704V36.57ZM136.844 43.08C137.164 42.24 137.394 41.45 137.534 40.71H136.514C136.594 41.49 136.704 42.28 136.844 43.08ZM128.354 44.67V43.95H127.544V44.67H128.354ZM131.804 49.95C132.604 49.31 133.334 48.62 133.994 47.88C133.434 46.68 133.004 45.37 132.704 43.95H131.774V44.67H132.644V49.23H131.774V49.95H131.804ZM127.544 46.44V47.16H130.154V46.44H127.544ZM139.094 48.69C139.134 48.69 139.154 48.6 139.154 48.42C139.154 48.34 139.114 47.88 139.034 47.04C138.854 47.44 138.654 47.81 138.434 48.15C138.634 48.41 138.854 48.59 139.094 48.69ZM128.354 49.23H127.544V49.95H128.354V49.23ZM166.214 37.92H173.504V40.89H152.534V40.17L150.614 43.2L153.044 43.56L152.684 45.15C151.944 48.63 151.274 51.61 150.674 54.09C149.594 53.85 148.484 53.61 147.344 53.37C146.224 53.13 145.174 52.94 144.194 52.8C144.814 51.18 145.324 49.64 145.724 48.18C146.144 46.72 146.564 45.08 146.984 43.26L147.134 42.66L149.324 42.99C148.044 42.33 146.434 41.76 144.494 41.28L147.494 36.69C148.154 36.87 148.834 37.1 149.534 37.38C150.234 37.64 150.914 37.91 151.574 38.19C151.754 38.27 151.924 38.35 152.084 38.43C152.244 38.49 152.394 38.55 152.534 38.61V37.92H159.824V37.41H153.284V34.89H159.824V34.38H153.074V34.26L151.364 37.5C149.144 36.54 146.824 35.84 144.404 35.4L147.164 30.6C148.084 30.84 149.424 31.28 151.184 31.92L153.074 32.61V31.53H159.824V30.9H166.214V31.53H172.994V34.38H166.214V34.89H172.694V37.41H166.214V37.92ZM172.724 51.39C172.724 52.13 172.514 52.71 172.094 53.13C171.694 53.53 170.954 53.82 169.874 54C168.794 54.18 167.224 54.27 165.164 54.27C164.984 53.47 164.784 52.79 164.564 52.23C164.344 51.67 163.984 51.09 163.484 50.49L164.864 50.52C165.624 50.52 166.124 50.49 166.364 50.43C166.604 50.37 166.724 50.28 166.724 50.16V49.95H159.284V53.82H153.284V41.4H172.724V51.39ZM166.724 44.76V44.25H159.284V44.76H166.724ZM159.284 47.1V47.61H166.724V47.1H159.284ZM176.984 31.53H190.814V37.47H176.984V31.53ZM191.354 37.47V31.53H205.184V37.47H191.354ZM183.314 34.92H184.934V33.99H183.314V34.92ZM197.144 34.92H198.854V33.99H197.144V34.92ZM204.044 48.21H193.904V48.69H204.944V52.35H193.904V54H187.784V52.35H176.744V48.69H187.784V48.21H177.644V37.92H204.044V48.21ZM187.784 41.88V41.19H183.884V41.88H187.784ZM193.904 41.88H197.804V41.19H193.904V41.88ZM183.884 44.28V44.94H187.784V44.28H183.884ZM193.904 44.28V44.94H197.804V44.28H193.904Z" fill="black"/>
<path d="M56.6836 45.0923L60.5464 48.017C60.8127 48.204 61.0815 48.2102 61.3526 48.0354C61.6237 47.8606 61.7073 47.6155 61.6034 47.3L60.1411 42.4623L63.9143 39.7792C64.1912 39.5728 64.2754 39.3157 64.1668 39.0077C64.0581 38.6997 63.8418 38.5458 63.5177 38.5458H58.8998L57.3269 33.4644C57.2141 33.1489 56.9998 32.9911 56.684 32.9911C56.3682 32.9911 56.1536 33.1489 56.0403 33.4644L54.4674 38.5458H49.8495C49.5254 38.5458 49.3091 38.6997 49.2004 39.0077C49.0918 39.3157 49.1759 39.5728 49.4529 39.7792L53.2261 42.4623L51.7638 47.3C51.6598 47.6155 51.7434 47.8606 52.0146 48.0354C52.2857 48.2102 52.5544 48.204 52.8208 48.017L56.6836 45.0923ZM56.6861 55C54.7497 55 52.9297 54.6326 51.2259 53.8977C49.5221 53.1628 48.04 52.1655 46.7797 50.9057C45.5194 49.6459 44.5216 48.1645 43.7864 46.4615C43.0512 44.7585 42.6836 42.9388 42.6836 41.0025C42.6836 39.0661 43.051 37.2461 43.7859 35.5423C44.5208 33.8385 45.5181 32.3564 46.7779 31.0961C48.0376 29.8358 49.5191 28.838 51.2221 28.1028C52.9251 27.3676 54.7448 27 56.6811 27C58.6175 27 60.4375 27.3674 62.1413 28.1023C63.8451 28.8372 65.3272 29.8345 66.5875 31.0943C67.8478 32.3541 68.8456 33.8355 69.5808 35.5385C70.316 37.2415 70.6836 39.0612 70.6836 40.9975C70.6836 42.9339 70.3162 44.7539 69.5813 46.4577C68.8464 48.1615 67.8491 49.6436 66.5893 50.9039C65.3295 52.1642 63.8481 53.162 62.1451 53.8972C60.4421 54.6324 58.6224 55 56.6861 55ZM56.6836 52.7895C59.9503 52.7895 62.7319 51.6413 65.0284 49.3448C67.3249 47.0483 68.4731 44.2667 68.4731 41C68.4731 37.7333 67.3249 34.9517 65.0284 32.6552C62.7319 30.3587 59.9503 29.2105 56.6836 29.2105C53.4169 29.2105 50.6353 30.3587 48.3388 32.6552C46.0423 34.9517 44.8941 37.7333 44.8941 41C44.8941 44.2667 46.0423 47.0483 48.3388 49.3448C50.6353 51.6413 53.4169 52.7895 56.6836 52.7895Z" fill="black"/>
<defs>
<filter id="filter0_d_2516_307" x="0.683594" y="0" width="1238" height="1400" filterUnits="userSpaceOnUse" color-interpolation-filters="sRGB">
<feFlood flood-opacity="0" result="BackgroundImageFix"/>
<feColorMatrix in="SourceAlpha" type="matrix" values="0 0 0 0 0 0 0 0 0 0 0 0 0 0 0 0 0 0 127 0" result="hardAlpha"/>
<feMorphology radius="3" operator="dilate" in="SourceAlpha" result="effect1_dropShadow_2516_307"/>
<feOffset dx="8" dy="8"/>
<feComposite in2="hardAlpha" operator="out"/>
<feColorMatrix type="matrix" values="0 0 0 0 0 0 0 0 0 0 0 0 0 0 0 0 0 0 0.25 0"/>
<feBlend mode="normal" in2="BackgroundImageFix" result="effect1_dropShadow_2516_307"/>
<feBlend mode="normal" in="SourceGraphic" in2="effect1_dropShadow_2516_307" result="shape"/>
</filter>
</defs>
</svg>
