<?xml version="1.0" encoding="UTF-8"?>
<svg id="_圖層_2" data-name="圖層 2" xmlns="http://www.w3.org/2000/svg" viewBox="0 0 71.38 71.38">
  <defs>
    <style>
      .cls-1, .cls-2 {
        fill: #070001;
      }

      .cls-1, .cls-3, .cls-4 {
        stroke-width: 0px;
      }

      .cls-2 {
        stroke-width: 9px;
      }

      .cls-2, .cls-5, .cls-6 {
        stroke: #070001;
        stroke-miterlimit: 10;
      }

      .cls-3, .cls-5, .cls-6 {
        fill: #fff;
      }

      .cls-4 {
        fill: #e6215a;
      }

      .cls-5 {
        stroke-width: 5px;
      }

      .cls-6 {
        stroke-width: 2px;
      }
    </style>
  </defs>
  <g id="_圖層_5" data-name="圖層 5">
    <g>
      <rect class="cls-4" width="71.38" height="71.38" rx="12" ry="12"/>
      <g>
        <circle class="cls-2" cx="35.69" cy="35.69" r="26.22"/>
        <path class="cls-3" d="m56.97,20.81l-.2-.37c-.75.42-.95,1-1.12,1.5-.17.49-.31.91-.91,1.25-.6.33-1.02.23-1.52.12-.51-.12-1.09-.26-1.85.16-.75.42-.95.99-1.12,1.5-.17.49-.31.91-.91,1.24-.6.33-1.02.23-1.52.12-.51-.12-1.09-.26-1.85.16-.75.42-.95,1-1.12,1.5-.17.49-.31.91-.91,1.24-.59.33-1.02.23-1.52.12-.51-.12-1.09-.26-1.84.16l.22.41c.6-.33,1.02-.23,1.52-.12.12.03.24.06.37.08,3.63,5.17,1.53,9.26.76,10.45,0-.02-.02-.05-.03-.07-.17-.51-.37-1.08-1.12-1.5l-.22.41c.6.33.74.76.91,1.24.17.51.37,1.08,1.12,1.5.75.42,1.33.28,1.85.16.49-.12.92-.22,1.52.12.6.33.74.76.91,1.24.17.51.37,1.08,1.12,1.5.75.42,1.33.28,1.84.16.49-.12.92-.22,1.52.12.6.33.74.76.91,1.24.17.51.37,1.08,1.12,1.5.38.22.73.29,1.03.29s.56-.06.81-.12c.5-.12.97-.12,1.57.22l.18-.33c7.71-13.76-.95-26.39-1.53-27.22Z"/>
        <path class="cls-3" d="m14.39,50.61l.2.37c.74-.42.94-1,1.11-1.5.17-.49.31-.91.9-1.25.59-.33,1.01-.23,1.5-.12.51.12,1.08.26,1.83-.16.74-.42.94-.99,1.11-1.5.16-.49.31-.91.9-1.24.59-.33,1.01-.23,1.5-.12.51.12,1.08.26,1.83-.16.74-.42.94-1,1.11-1.5.17-.49.31-.91.9-1.24.59-.33,1.01-.23,1.5-.12.51.12,1.08.26,1.83-.16l-.22-.41c-.59.33-1.01.23-1.5.12-.12-.03-.24-.06-.36-.08-3.59-5.17-1.52-9.26-.75-10.45,0,.02.02.05.02.07.17.51.36,1.08,1.11,1.5l.22-.41c-.59-.33-.73-.76-.9-1.24-.17-.51-.36-1.08-1.11-1.5-.74-.42-1.32-.28-1.83-.16-.49.12-.91.22-1.5-.12-.59-.33-.73-.76-.9-1.24-.17-.51-.36-1.08-1.11-1.5-.74-.42-1.32-.28-1.83-.16-.49.12-.91.22-1.5-.12-.59-.33-.73-.76-.9-1.24-.17-.51-.36-1.08-1.11-1.5-.38-.22-.72-.29-1.02-.29s-.56.06-.8.12c-.49.12-.96.12-1.55-.22l-.18.33c-7.63,13.76.94,26.39,1.52,27.22Z"/>
        <circle class="cls-5" cx="35.69" cy="35.69" r="9.21"/>
        <circle class="cls-1" cx="35.69" cy="35.69" r="1.97"/>
      </g>
      <g>
        <path class="cls-6" d="m33.93,21.97c2.81,7.2,8.61,11.52,12.95,9.58,4.34-1.94,5.58-9.47,2.76-16.94-2.82-7.49-8.62-11.88-12.95-9.65-4.33,2.24-5.57,9.82-2.76,17Z"/>
        <path class="cls-1" d="m42.06,20.04c1.13-.58,2.27-1.17,3.4-1.77.29-.15.65,0,.78.35,1.92,5.17,1.11,10.43-1.91,11.9-3.14,1.53-7.57-1.54-9.79-6.76-2.23-5.21-1.48-10.84,1.66-12.53,2.17-1.16,5.03-.11,7.36,2.69.19.22.22.57.08.83-.78,1.45-1.56,2.89-2.34,4.31-.3.55.23,1.24.75.98Z"/>
        <path class="cls-6" d="m17.81,24.76c2.81,7.2,8.61,11.52,12.95,9.58,4.34-1.94,5.58-9.47,2.76-16.94-2.82-7.49-8.62-11.88-12.95-9.65-4.33,2.24-5.57,9.82-2.76,17Z"/>
        <path class="cls-1" d="m25.94,22.83c1.13-.58,2.27-1.17,3.4-1.77.29-.15.65,0,.78.35,1.92,5.17,1.11,10.43-1.91,11.9-3.14,1.53-7.57-1.54-9.79-6.76-2.23-5.21-1.48-10.84,1.66-12.53,2.17-1.16,5.03-.11,7.36,2.69.19.22.22.57.08.83-.78,1.45-1.56,2.89-2.34,4.31-.3.55.23,1.24.75.98Z"/>
      </g>
    </g>
  </g>
</svg>