<svg width="29" height="31" viewBox="0 0 29 31" fill="none" xmlns="http://www.w3.org/2000/svg">
<path d="M14.3806 7.50871C10.3833 7.50871 7.15906 10.9255 7.15906 15.1614C7.15906 19.3974 10.3833 22.8141 14.3806 22.8141C18.378 22.8141 21.6022 19.3974 21.6022 15.1614C21.6022 10.9255 18.378 7.50871 14.3806 7.50871ZM14.3806 20.1367C11.7975 20.1367 9.68566 17.9055 9.68566 15.1614C9.68566 12.4174 11.7912 10.1862 14.3806 10.1862C16.9701 10.1862 19.0756 12.4174 19.0756 15.1614C19.0756 17.9055 16.9638 20.1367 14.3806 20.1367ZM23.582 7.19568C23.582 8.18806 22.8278 8.98064 21.8976 8.98064C20.9611 8.98064 20.2132 8.1814 20.2132 7.19568C20.2132 6.20995 20.9674 5.41071 21.8976 5.41071C22.8278 5.41071 23.582 6.20995 23.582 7.19568ZM28.365 9.00728C28.2581 6.61623 27.7428 4.49825 26.0898 2.75324C24.4431 1.00824 22.4444 0.462091 20.1881 0.342205C17.8626 0.202338 10.8924 0.202338 8.56692 0.342205C6.31685 0.45543 4.31819 1.00158 2.66521 2.74658C1.01223 4.49158 0.503138 6.60957 0.390006 9.00062C0.258019 11.4649 0.258019 18.8512 0.390006 21.3156C0.496853 23.7066 1.01223 25.8246 2.66521 27.5696C4.31819 29.3146 6.31057 29.8607 8.56692 29.9806C10.8924 30.1205 17.8626 30.1205 20.1881 29.9806C22.4444 29.8674 24.4431 29.3213 26.0898 27.5696C27.7365 25.8246 28.2518 23.7066 28.365 21.3156C28.497 18.8512 28.497 11.4716 28.365 9.00728ZM25.3607 23.9597C24.8705 25.2651 23.9214 26.2708 22.6833 26.797C20.8291 27.5763 16.4296 27.3964 14.3806 27.3964C12.3317 27.3964 7.92584 27.5696 6.07802 26.797C4.84614 26.2775 3.89709 25.2718 3.40057 23.9597C2.66521 21.9949 2.83491 17.3327 2.83491 15.1614C2.83491 12.9902 2.6715 8.32127 3.40057 6.36314C3.89081 5.05771 4.83985 4.052 6.07802 3.52584C7.93212 2.74658 12.3317 2.92641 14.3806 2.92641C16.4296 2.92641 20.8354 2.75324 22.6833 3.52584C23.9151 4.04534 24.8642 5.05105 25.3607 6.36314C26.0961 8.32793 25.9264 12.9902 25.9264 15.1614C25.9264 17.3327 26.0961 22.0016 25.3607 23.9597Z" fill="white"/>
</svg>
