<svg width="38" height="41" viewBox="0 0 38 41" fill="none" xmlns="http://www.w3.org/2000/svg">
<g clip-path="url(#clip0_2128_1661)">
<path d="M2.14275 26.2409L2.74485 23.4531L2.14275 20.5737C2.12623 20.4882 1.97387 20.4225 1.79214 20.4225C1.6049 20.4225 1.45437 20.4882 1.44152 20.5737L0.90918 23.4531L1.43969 26.2389C1.45437 26.3285 1.6049 26.3902 1.7903 26.3902C1.97387 26.3921 2.12623 26.3305 2.14275 26.2409ZM5.90771 27.787L6.41619 23.4809L5.90771 16.8188C5.89119 16.6517 5.69845 16.5164 5.46899 16.5164C5.23586 16.5164 5.04128 16.6517 5.0321 16.8188L4.58052 23.4809L5.0321 27.787C5.04311 27.9582 5.23586 28.0895 5.46899 28.0895C5.69845 28.0895 5.89119 27.9582 5.90771 27.787ZM9.66166 27.7174L10.0875 23.4849L9.66166 14.616C9.65065 14.4051 9.42486 14.2419 9.144 14.2419C8.86498 14.2419 8.63919 14.4051 8.62818 14.616L8.25187 23.4849L8.62818 27.7214C8.63919 27.9263 8.86498 28.0915 9.144 28.0915C9.42486 28.0895 9.65065 27.9263 9.66166 27.7174ZM13.4101 27.6557L13.7589 23.4849L13.4101 14.5504C13.4009 14.3056 13.1421 14.1106 12.8227 14.1106C12.4996 14.1106 12.2426 14.3056 12.2334 14.5504L11.9232 23.4849L12.2353 27.6557C12.2426 27.9005 12.5014 28.0955 12.8227 28.0955C13.1421 28.0935 13.4009 27.9044 13.4101 27.6557ZM17.1549 27.6L17.4302 23.4889L17.1549 13.243C17.1475 12.9604 16.8538 12.7356 16.4977 12.7356C16.1416 12.7356 15.8479 12.9644 15.8424 13.245L15.5946 23.4849L15.8424 27.6C15.8479 27.8806 16.1416 28.1094 16.4977 28.1094C16.8538 28.1094 17.1475 27.8846 17.1549 27.6ZM19.7744 28.1134L32.8903 28.1213C35.5042 28.1213 37.6226 25.8986 37.6226 23.1586C37.6226 20.4185 35.5042 18.1998 32.8903 18.1998C32.2423 18.1998 31.6255 18.3391 31.0619 18.5838C30.6856 14.1146 27.1097 10.6084 22.7482 10.6084C21.7155 10.6105 20.6913 10.8106 19.723 11.1994C19.3632 11.3466 19.2696 11.4939 19.2659 11.7864V27.5264C19.2702 27.6745 19.3242 27.8159 19.4178 27.924C19.5115 28.0321 19.6382 28.0994 19.7744 28.1134Z" fill="white"/>
</g>
<defs>
<clipPath id="clip0_2128_1661">
<rect width="36.7134" height="39.7976" fill="white" transform="translate(0.90918 0.262695)"/>
</clipPath>
</defs>
</svg>
