<svg width="29" height="31" viewBox="0 0 29 31" fill="none" xmlns="http://www.w3.org/2000/svg">
<g clip-path="url(#clip0_2128_1659)">
<path d="M14.574 0.704102C6.98608 0.704102 0.828125 7.18093 0.828125 15.1618C0.828125 23.1427 6.98608 29.6196 14.574 29.6196C22.162 29.6196 28.32 23.1427 28.32 15.1618C28.32 7.18093 22.162 0.704102 14.574 0.704102ZM20.1556 21.9768C19.9228 21.9768 19.7787 21.901 19.5625 21.7669C16.1038 19.5749 12.0798 19.4817 8.1057 20.3386C7.88954 20.3969 7.60686 20.4902 7.44612 20.4902C6.90848 20.4902 6.57037 20.0413 6.57037 19.5691C6.57037 18.9687 6.90848 18.683 7.32418 18.5897C11.8637 17.5345 16.5029 17.6278 20.4604 20.1171C20.7985 20.3445 20.9981 20.5485 20.9981 21.079C20.9981 21.6095 20.6045 21.9768 20.1556 21.9768ZM21.6465 18.1525C21.3583 18.1525 21.1643 18.0184 20.9648 17.9076C17.5006 15.7506 12.3348 14.882 7.73989 16.1937C7.47384 16.2695 7.32973 16.3453 7.0803 16.3453C6.48723 16.3453 6.00502 15.8381 6.00502 15.2143C6.00502 14.5905 6.29324 14.1766 6.86414 14.0076C8.40501 13.5528 9.97914 13.2147 12.2849 13.2147C15.8821 13.2147 19.3574 14.1533 22.0955 15.8672C22.5445 16.1471 22.7218 16.5085 22.7218 17.0157C22.7163 17.6453 22.2507 18.1525 21.6465 18.1525ZM23.3648 13.7102C23.0766 13.7102 22.8992 13.6344 22.6498 13.4829C18.7034 11.0052 11.6475 10.4106 7.0803 11.7514C6.88077 11.8097 6.63134 11.903 6.36529 11.903C5.63366 11.903 5.07384 11.3026 5.07384 10.5272C5.07384 9.73436 5.53943 9.28547 6.03827 9.13389C7.98931 8.53343 10.1731 8.24777 12.551 8.24777C16.5971 8.24777 20.8373 9.13389 23.9357 11.0344C24.368 11.2967 24.6507 11.6582 24.6507 12.3519C24.6507 13.1447 24.041 13.7102 23.3648 13.7102Z" fill="white"/>
</g>
<defs>
<clipPath id="clip0_2128_1659">
<rect width="27.4918" height="29.8482" fill="white" transform="translate(0.828125 0.237305)"/>
</clipPath>
</defs>
</svg>
