<svg width="1921" height="98" viewBox="0 0 1921 98" fill="none" xmlns="http://www.w3.org/2000/svg">
<path d="M-502.566 3.2C-485.585 3.2 -473.766 6.22933 -467.11 12.288C-460.454 18.2613 -457.126 26.7093 -457.126 37.632C-457.126 45.1413 -458.449 51.5413 -461.094 56.832C-463.739 62.0373 -468.39 66.1333 -475.046 69.12C-481.702 72.0213 -490.875 73.472 -502.566 73.472H-529.19V96H-560.678C-559.995 79.4453 -559.654 63.9573 -559.654 49.536C-559.654 35.1147 -559.995 19.6267 -560.678 3.072H-529.19V3.2H-502.566ZM-511.526 48.768C-504.443 48.768 -499.153 48.512 -495.654 48C-492.07 47.4027 -489.595 46.3787 -488.23 44.928C-486.779 43.4773 -486.054 41.344 -486.054 38.528C-486.054 35.712 -486.737 33.6213 -488.102 32.256C-489.382 30.8053 -491.814 29.824 -495.398 29.312C-498.897 28.8 -504.273 28.544 -511.526 28.544H-529.19V48.768H-511.526ZM-416.72 72.576C-384.293 72.4053 -360.784 71.936 -346.192 71.168C-346.789 74.6667 -347.173 78.2933 -347.344 82.048C-347.429 85.7173 -347.472 90.368 -347.472 96H-446.928C-446.245 79.4453 -445.904 63.9573 -445.904 49.536C-445.904 35.1147 -446.245 19.6267 -446.928 3.072H-347.472V26.24H-416.72V38.528C-412.624 38.6133 -406.565 38.656 -398.544 38.656C-384.976 38.656 -370.939 38.4 -356.432 37.888V59.904C-370.939 59.392 -384.976 59.136 -398.544 59.136C-406.565 59.136 -412.624 59.1787 -416.72 59.264V72.576ZM-233.144 34.048C-233.144 41.472 -234.979 47.744 -238.648 52.864C-242.232 57.984 -248.419 61.696 -257.208 64C-256.184 65.3653 -255.459 66.432 -255.032 67.2L-234.296 96H-269.112C-272.867 89.0027 -278.797 79.104 -286.904 66.304H-305.72V96H-335.928C-335.245 79.4453 -334.904 63.9573 -334.904 49.536C-334.904 35.1147 -335.245 19.6267 -335.928 3.072H-305.72V3.2H-279.48C-262.243 3.2 -250.211 5.97333 -243.384 11.52C-236.557 17.0667 -233.144 24.576 -233.144 34.048ZM-305.72 27.776V42.368H-288.44C-281.187 42.368 -275.725 42.1547 -272.056 41.728C-268.301 41.216 -265.699 40.448 -264.248 39.424C-262.797 38.4 -262.072 36.9067 -262.072 34.944C-262.072 33.0667 -262.755 31.616 -264.12 30.592C-265.485 29.568 -268.045 28.8427 -271.8 28.416C-275.555 27.9893 -281.101 27.776 -288.44 27.776H-305.72ZM-222.928 84.992C-220.027 80.64 -217.637 76.5867 -215.76 72.832C-213.797 69.0773 -211.92 64.7253 -210.128 59.776C-204.069 63.2747 -197.029 66.0053 -189.008 67.968C-180.987 69.9307 -173.52 70.912 -166.608 70.912C-159.525 70.912 -154.533 70.3147 -151.632 69.12C-148.731 67.84 -147.28 66.4747 -147.28 65.024C-147.28 59.8187 -155.216 57.216 -171.088 57.216C-188.496 57.216 -201.125 55.424 -208.976 51.84C-216.827 48.1707 -220.752 42.2827 -220.752 34.176C-220.752 22.656 -215.973 14.1653 -206.416 8.70399C-196.859 3.24266 -184.443 0.511993 -169.168 0.511993C-160.293 0.511993 -151.205 1.66399 -141.904 3.96799C-132.517 6.18666 -124.069 9.25866 -116.56 13.184C-119.035 18.816 -121.637 25.6853 -124.368 33.792C-124.88 35.4987 -125.307 36.7787 -125.648 37.632C-130 34.1333 -136.571 31.232 -145.36 28.928C-154.149 26.5387 -161.915 25.344 -168.656 25.344C-176.763 25.344 -182.224 25.8987 -185.04 27.008C-187.856 28.032 -189.264 29.568 -189.264 31.616C-189.264 33.664 -187.344 35.328 -183.504 36.608C-179.579 37.8027 -173.947 38.4 -166.608 38.4C-148.517 38.4 -135.376 40.4907 -127.184 44.672C-118.992 48.768 -114.896 55.0827 -114.896 63.616C-114.896 75.5627 -119.248 84.1813 -127.952 89.472C-136.656 94.6773 -149.84 97.28 -167.504 97.28C-176.976 97.28 -186.619 96.256 -196.432 94.208C-206.245 92.0747 -215.077 89.0027 -222.928 84.992ZM-47.7178 97.28C-67.2592 97.28 -81.6379 93.056 -90.8539 84.608C-100.07 76.0747 -104.678 64.128 -104.678 48.768C-104.678 33.5787 -100.113 21.7173 -90.9819 13.184C-81.7658 4.65066 -67.3445 0.383995 -47.7178 0.383995C-28.0058 0.383995 -13.5845 4.65066 -4.45385 13.184C4.76215 21.7173 9.37016 33.5787 9.37016 48.768C9.37016 64.2133 4.80482 76.16 -4.32584 84.608C-13.4565 93.056 -27.9205 97.28 -47.7178 97.28ZM-47.7178 71.168C-38.2458 71.168 -31.4192 69.376 -27.2378 65.792C-23.0565 62.1227 -20.9659 56.448 -20.9659 48.768C-20.9659 41.2587 -23.0565 35.6693 -27.2378 32C-31.4192 28.3307 -38.2458 26.496 -47.7178 26.496C-57.1045 26.496 -63.8885 28.3307 -68.0699 32C-72.2512 35.6693 -74.3419 41.2587 -74.3419 48.768C-74.3419 56.3627 -72.2512 61.9947 -68.0699 65.664C-63.8885 69.3333 -57.1045 71.168 -47.7178 71.168ZM126.964 3.2C126.367 17.6213 126.068 33.0667 126.068 49.536C126.068 66.0907 126.367 81.5787 126.964 96H81.1402L50.1642 26.112L52.4682 96H19.5721C20.2548 79.4453 20.5961 63.9573 20.5961 49.536C20.5961 35.2 20.2548 19.7547 19.5721 3.2H66.6762L97.7802 75.008L95.6041 3.2H126.964ZM217.965 96C216.344 91.136 214.168 85.0347 211.437 77.696H170.605L164.205 96H132.077L167.917 3.072H215.021L251.117 96H217.965ZM204.141 57.728C200.898 48.768 197.57 39.808 194.157 30.848L191.085 22.528C188.098 30.2933 183.704 42.0267 177.901 57.728H204.141ZM286.679 70.144C311.426 69.9733 331.906 69.5467 348.119 68.864C347.01 73.216 346.327 77.3973 346.071 81.408C345.815 85.4187 345.687 90.2827 345.687 96H255.447C256.13 79.4453 256.471 63.9573 256.471 49.536C256.471 35.1147 256.13 19.6267 255.447 3.072H286.679V70.144ZM458.955 49.792C478.411 49.792 488.139 55.9787 488.139 68.352C488.139 74.1547 486.816 79.104 484.171 83.2C481.526 87.2107 476.79 90.368 469.963 92.672C463.136 94.8907 453.664 96 441.547 96H383.947C384.63 79.4453 384.971 63.9573 384.971 49.536C384.971 35.1147 384.63 19.6267 383.947 3.072H414.027V3.2H441.291C451.872 3.2 460.192 4.096 466.251 5.88799C472.395 7.59466 476.704 10.112 479.179 13.44C481.739 16.768 483.019 20.992 483.019 26.112C483.019 31.3173 481.184 35.968 477.515 40.064C473.931 44.0747 467.744 47.3173 458.955 49.792ZM414.027 26.496V38.4H438.603C443.894 38.4 447.563 37.9307 449.611 36.992C451.744 36.0533 452.811 34.3467 452.811 31.872C452.811 29.9093 451.702 28.544 449.483 27.776C447.35 26.9227 443.723 26.496 438.603 26.496H414.027ZM438.603 72.576C443.04 72.576 446.411 72.4053 448.715 72.064C451.104 71.6373 452.811 70.9547 453.835 70.016C454.859 68.992 455.371 67.6267 455.371 65.92C455.371 63.7013 454.134 62.1227 451.659 61.184C449.27 60.16 444.918 59.648 438.603 59.648H414.027V72.576H438.603ZM529.554 70.144C554.301 69.9733 574.781 69.5467 590.994 68.864C589.885 73.216 589.202 77.3973 588.946 81.408C588.69 85.4187 588.562 90.2827 588.562 96H498.322C499.005 79.4453 499.346 63.9573 499.346 49.536C499.346 35.1147 499.005 19.6267 498.322 3.072H529.554V70.144ZM651.782 97.28C632.241 97.28 617.862 93.056 608.646 84.608C599.43 76.0747 594.822 64.128 594.822 48.768C594.822 33.5787 599.387 21.7173 608.518 13.184C617.734 4.65066 632.155 0.383995 651.782 0.383995C671.494 0.383995 685.915 4.65066 695.046 13.184C704.262 21.7173 708.87 33.5787 708.87 48.768C708.87 64.2133 704.305 76.16 695.174 84.608C686.043 93.056 671.579 97.28 651.782 97.28ZM651.782 71.168C661.254 71.168 668.081 69.376 672.262 65.792C676.443 62.1227 678.534 56.448 678.534 48.768C678.534 41.2587 676.443 35.6693 672.262 32C668.081 28.3307 661.254 26.496 651.782 26.496C642.395 26.496 635.611 28.3307 631.43 32C627.249 35.6693 625.158 41.2587 625.158 48.768C625.158 56.3627 627.249 61.9947 631.43 65.664C635.611 69.3333 642.395 71.168 651.782 71.168ZM771.808 43.008H826.464V96H803.936L801.248 73.344C798.688 81.4507 794.123 87.4667 787.552 91.392C780.981 95.3173 772.96 97.28 763.488 97.28C754.869 97.28 747.189 95.36 740.448 91.52C733.792 87.68 728.544 82.176 724.704 75.008C720.949 67.84 719.072 59.4773 719.072 49.92C719.072 34.6453 723.637 22.5707 732.768 13.696C741.899 4.82133 756.107 0.383995 775.392 0.383995C786.4 0.383995 796.085 2.17599 804.448 5.75999C812.896 9.34399 820.064 14.8907 825.952 22.4C822.112 24.3627 814.603 28.288 803.424 34.176L800.224 35.968C796.896 32.64 793.013 30.1653 788.576 28.544C784.139 26.8373 779.445 25.984 774.496 25.984C766.304 25.984 760.203 28.16 756.192 32.512C752.181 36.7787 750.176 42.0693 750.176 48.384C750.176 55.2107 752.309 60.7147 756.576 64.896C760.928 69.0773 767.541 71.168 776.416 71.168C780.256 71.168 783.968 70.6133 787.552 69.504C791.221 68.3947 794.293 66.4747 796.768 63.744H771.808V43.008ZM971.684 3.2C988.665 3.2 1000.48 6.22933 1007.14 12.288C1013.8 18.2613 1017.12 26.7093 1017.12 37.632C1017.12 45.1413 1015.8 51.5413 1013.16 56.832C1010.51 62.0373 1005.86 66.1333 999.204 69.12C992.548 72.0213 983.375 73.472 971.684 73.472H945.06V96H913.572C914.255 79.4453 914.596 63.9573 914.596 49.536C914.596 35.1147 914.255 19.6267 913.572 3.072H945.06V3.2H971.684ZM962.724 48.768C969.807 48.768 975.097 48.512 978.596 48C982.18 47.4027 984.655 46.3787 986.02 44.928C987.471 43.4773 988.196 41.344 988.196 38.528C988.196 35.712 987.513 33.6213 986.148 32.256C984.868 30.8053 982.436 29.824 978.852 29.312C975.353 28.8 969.977 28.544 962.724 28.544H945.06V48.768H962.724ZM1057.53 72.576C1089.96 72.4053 1113.47 71.936 1128.06 71.168C1127.46 74.6667 1127.08 78.2933 1126.91 82.048C1126.82 85.7173 1126.78 90.368 1126.78 96H1027.32C1028 79.4453 1028.35 63.9573 1028.35 49.536C1028.35 35.1147 1028 19.6267 1027.32 3.072H1126.78V26.24H1057.53V38.528C1061.63 38.6133 1067.68 38.656 1075.71 38.656C1089.27 38.656 1103.31 38.4 1117.82 37.888V59.904C1103.31 59.392 1089.27 59.136 1075.71 59.136C1067.68 59.136 1061.63 59.1787 1057.53 59.264V72.576ZM1241.11 34.048C1241.11 41.472 1239.27 47.744 1235.6 52.864C1232.02 57.984 1225.83 61.696 1217.04 64C1218.07 65.3653 1218.79 66.432 1219.22 67.2L1239.95 96H1205.14C1201.38 89.0027 1195.45 79.104 1187.35 66.304H1168.53V96H1138.32C1139 79.4453 1139.35 63.9573 1139.35 49.536C1139.35 35.1147 1139 19.6267 1138.32 3.072H1168.53V3.2H1194.77C1212.01 3.2 1224.04 5.97333 1230.87 11.52C1237.69 17.0667 1241.11 24.576 1241.11 34.048ZM1168.53 27.776V42.368H1185.81C1193.06 42.368 1198.52 42.1547 1202.19 41.728C1205.95 41.216 1208.55 40.448 1210 39.424C1211.45 38.4 1212.18 36.9067 1212.18 34.944C1212.18 33.0667 1211.5 31.616 1210.13 30.592C1208.76 29.568 1206.2 28.8427 1202.45 28.416C1198.7 27.9893 1193.15 27.776 1185.81 27.776H1168.53ZM1251.32 84.992C1254.22 80.64 1256.61 76.5867 1258.49 72.832C1260.45 69.0773 1262.33 64.7253 1264.12 59.776C1270.18 63.2747 1277.22 66.0053 1285.24 67.968C1293.26 69.9307 1300.73 70.912 1307.64 70.912C1314.72 70.912 1319.72 70.3147 1322.62 69.12C1325.52 67.84 1326.97 66.4747 1326.97 65.024C1326.97 59.8187 1319.03 57.216 1303.16 57.216C1285.75 57.216 1273.12 55.424 1265.27 51.84C1257.42 48.1707 1253.5 42.2827 1253.5 34.176C1253.5 22.656 1258.28 14.1653 1267.83 8.70399C1277.39 3.24266 1289.81 0.511993 1305.08 0.511993C1313.96 0.511993 1323.04 1.66399 1332.35 3.96799C1341.73 6.18666 1350.18 9.25866 1357.69 13.184C1355.22 18.816 1352.61 25.6853 1349.88 33.792C1349.37 35.4987 1348.94 36.7787 1348.6 37.632C1344.25 34.1333 1337.68 31.232 1328.89 28.928C1320.1 26.5387 1312.34 25.344 1305.59 25.344C1297.49 25.344 1292.03 25.8987 1289.21 27.008C1286.39 28.032 1284.99 29.568 1284.99 31.616C1284.99 33.664 1286.91 35.328 1290.75 36.608C1294.67 37.8027 1300.3 38.4 1307.64 38.4C1325.73 38.4 1338.87 40.4907 1347.07 44.672C1355.26 48.768 1359.35 55.0827 1359.35 63.616C1359.35 75.5627 1355 84.1813 1346.3 89.472C1337.59 94.6773 1324.41 97.28 1306.75 97.28C1297.27 97.28 1287.63 96.256 1277.82 94.208C1268 92.0747 1259.17 89.0027 1251.32 84.992ZM1426.53 97.28C1406.99 97.28 1392.61 93.056 1383.4 84.608C1374.18 76.0747 1369.57 64.128 1369.57 48.768C1369.57 33.5787 1374.14 21.7173 1383.27 13.184C1392.48 4.65066 1406.91 0.383995 1426.53 0.383995C1446.24 0.383995 1460.67 4.65066 1469.8 13.184C1479.01 21.7173 1483.62 33.5787 1483.62 48.768C1483.62 64.2133 1479.05 76.16 1469.92 84.608C1460.79 93.056 1446.33 97.28 1426.53 97.28ZM1426.53 71.168C1436 71.168 1442.83 69.376 1447.01 65.792C1451.19 62.1227 1453.28 56.448 1453.28 48.768C1453.28 41.2587 1451.19 35.6693 1447.01 32C1442.83 28.3307 1436 26.496 1426.53 26.496C1417.15 26.496 1410.36 28.3307 1406.18 32C1402 35.6693 1399.91 41.2587 1399.91 48.768C1399.91 56.3627 1402 61.9947 1406.18 65.664C1410.36 69.3333 1417.15 71.168 1426.53 71.168ZM1601.21 3.2C1600.62 17.6213 1600.32 33.0667 1600.32 49.536C1600.32 66.0907 1600.62 81.5787 1601.21 96H1555.39L1524.41 26.112L1526.72 96H1493.82C1494.5 79.4453 1494.85 63.9573 1494.85 49.536C1494.85 35.2 1494.5 19.7547 1493.82 3.2H1540.93L1572.03 75.008L1569.85 3.2H1601.21ZM1692.22 96C1690.59 91.136 1688.42 85.0347 1685.69 77.696H1644.86L1638.46 96H1606.33L1642.17 3.072H1689.27L1725.37 96H1692.22ZM1678.39 57.728C1675.15 48.768 1671.82 39.808 1668.41 30.848L1665.34 22.528C1662.35 30.2933 1657.95 42.0267 1652.15 57.728H1678.39ZM1760.93 70.144C1785.68 69.9733 1806.16 69.5467 1822.37 68.864C1821.26 73.216 1820.58 77.3973 1820.32 81.408C1820.07 85.4187 1819.94 90.2827 1819.94 96H1729.7C1730.38 79.4453 1730.72 63.9573 1730.72 49.536C1730.72 35.1147 1730.38 19.6267 1729.7 3.072H1760.93V70.144ZM1933.21 49.792C1952.66 49.792 1962.39 55.9787 1962.39 68.352C1962.39 74.1547 1961.07 79.104 1958.42 83.2C1955.78 87.2107 1951.04 90.368 1944.21 92.672C1937.39 94.8907 1927.91 96 1915.8 96H1858.2C1858.88 79.4453 1859.22 63.9573 1859.22 49.536C1859.22 35.1147 1858.88 19.6267 1858.2 3.072H1888.28V3.2H1915.54C1926.12 3.2 1934.44 4.096 1940.5 5.88799C1946.65 7.59466 1950.95 10.112 1953.43 13.44C1955.99 16.768 1957.27 20.992 1957.27 26.112C1957.27 31.3173 1955.43 35.968 1951.77 40.064C1948.18 44.0747 1941.99 47.3173 1933.21 49.792ZM1888.28 26.496V38.4H1912.85C1918.14 38.4 1921.81 37.9307 1923.86 36.992C1925.99 36.0533 1927.06 34.3467 1927.06 31.872C1927.06 29.9093 1925.95 28.544 1923.73 27.776C1921.6 26.9227 1917.97 26.496 1912.85 26.496H1888.28ZM1912.85 72.576C1917.29 72.576 1920.66 72.4053 1922.97 72.064C1925.35 71.6373 1927.06 70.9547 1928.09 70.016C1929.11 68.992 1929.62 67.6267 1929.62 65.92C1929.62 63.7013 1928.38 62.1227 1925.91 61.184C1923.52 60.16 1919.17 59.648 1912.85 59.648H1888.28V72.576H1912.85ZM2003.8 70.144C2028.55 69.9733 2049.03 69.5467 2065.24 68.864C2064.13 73.216 2063.45 77.3973 2063.2 81.408C2062.94 85.4187 2062.81 90.2827 2062.81 96H1972.57C1973.25 79.4453 1973.6 63.9573 1973.6 49.536C1973.6 35.1147 1973.25 19.6267 1972.57 3.072H2003.8V70.144ZM2126.03 97.28C2106.49 97.28 2092.11 93.056 2082.9 84.608C2073.68 76.0747 2069.07 64.128 2069.07 48.768C2069.07 33.5787 2073.64 21.7173 2082.77 13.184C2091.98 4.65066 2106.41 0.383995 2126.03 0.383995C2145.74 0.383995 2160.17 4.65066 2169.3 13.184C2178.51 21.7173 2183.12 33.5787 2183.12 48.768C2183.12 64.2133 2178.55 76.16 2169.42 84.608C2160.29 93.056 2145.83 97.28 2126.03 97.28ZM2126.03 71.168C2135.5 71.168 2142.33 69.376 2146.51 65.792C2150.69 62.1227 2152.78 56.448 2152.78 48.768C2152.78 41.2587 2150.69 35.6693 2146.51 32C2142.33 28.3307 2135.5 26.496 2126.03 26.496C2116.65 26.496 2109.86 28.3307 2105.68 32C2101.5 35.6693 2099.41 41.2587 2099.41 48.768C2099.41 56.3627 2101.5 61.9947 2105.68 65.664C2109.86 69.3333 2116.65 71.168 2126.03 71.168ZM2246.06 43.008H2300.71V96H2278.19L2275.5 73.344C2272.94 81.4507 2268.37 87.4667 2261.8 91.392C2255.23 95.3173 2247.21 97.28 2237.74 97.28C2229.12 97.28 2221.44 95.36 2214.7 91.52C2208.04 87.68 2202.79 82.176 2198.95 75.008C2195.2 67.84 2193.32 59.4773 2193.32 49.92C2193.32 34.6453 2197.89 22.5707 2207.02 13.696C2216.15 4.82133 2230.36 0.383995 2249.64 0.383995C2260.65 0.383995 2270.34 2.17599 2278.7 5.75999C2287.15 9.34399 2294.31 14.8907 2300.2 22.4C2296.36 24.3627 2288.85 28.288 2277.67 34.176L2274.47 35.968C2271.15 32.64 2267.26 30.1653 2262.83 28.544C2258.39 26.8373 2253.7 25.984 2248.75 25.984C2240.55 25.984 2234.45 28.16 2230.44 32.512C2226.43 36.7787 2224.43 42.0693 2224.43 48.384C2224.43 55.2107 2226.56 60.7147 2230.83 64.896C2235.18 69.0773 2241.79 71.168 2250.67 71.168C2254.51 71.168 2258.22 70.6133 2261.8 69.504C2265.47 68.3947 2268.54 66.4747 2271.02 63.744H2246.06V43.008Z" fill="#FF005C"/>
</svg>
