<svg width="31" height="24" viewBox="0 0 31 24" fill="none" xmlns="http://www.w3.org/2000/svg">
<path d="M15.8564 12.1547C14.6533 12.1547 13.6234 11.7321 12.7666 10.887C11.9098 10.0419 11.4814 9.02598 11.4814 7.83925C11.4814 6.65249 11.9098 5.63657 12.7666 4.79147C13.6234 3.94636 14.6533 3.5238 15.8564 3.5238C17.0595 3.5238 18.0895 3.94636 18.9462 4.79147C19.803 5.63657 20.2314 6.65249 20.2314 7.83925C20.2314 9.02598 19.803 10.0419 18.9462 10.887C18.0895 11.7321 17.0595 12.1547 15.8564 12.1547ZM6.48145 19.6712V18.8034C6.48145 18.1995 6.64772 17.6403 6.98026 17.1258C7.31278 16.6113 7.75708 16.2157 8.31316 15.9391C9.54875 15.3415 10.7951 14.8934 12.0524 14.5946C13.3096 14.2959 14.5776 14.1465 15.8564 14.1465C17.1352 14.1465 18.4033 14.2959 19.6605 14.5946C20.9177 14.8934 22.1641 15.3415 23.3997 15.9391C23.9557 16.2157 24.4 16.6113 24.7326 17.1258C25.0651 17.6403 25.2314 18.1995 25.2314 18.8034V19.6712C25.2314 20.1913 25.0467 20.6335 24.6773 20.9978C24.3079 21.3622 23.8596 21.5444 23.3324 21.5444H8.38045C7.85322 21.5444 7.40491 21.3622 7.03554 20.9978C6.66614 20.6335 6.48145 20.1913 6.48145 19.6712ZM8.35641 19.6949H23.3564V18.8034C23.3564 18.5536 23.2831 18.3224 23.1364 18.1098C22.9898 17.8972 22.7907 17.7237 22.5391 17.5893C21.4622 17.0661 20.3641 16.6697 19.2448 16.4002C18.1255 16.1307 16.996 15.9959 15.8564 15.9959C14.7168 15.9959 13.5873 16.1307 12.468 16.4002C11.3487 16.6697 10.2506 17.0661 9.17373 17.5893C8.92212 17.7237 8.72301 17.8972 8.57638 18.1098C8.42974 18.3224 8.35641 18.5536 8.35641 18.8034V19.6949ZM15.8564 10.3052C16.5439 10.3052 17.1325 10.0638 17.622 9.58085C18.1116 9.09793 18.3564 8.5174 18.3564 7.83925C18.3564 7.1611 18.1116 6.58057 17.622 6.09765C17.1325 5.61472 16.5439 5.37326 15.8564 5.37326C15.1689 5.37326 14.5804 5.61472 14.0908 6.09765C13.6012 6.58057 13.3564 7.1611 13.3564 7.83925C13.3564 8.5174 13.6012 9.09793 14.0908 9.58085C14.5804 10.0638 15.1689 10.3052 15.8564 10.3052Z" fill="black"/>
</svg>
