<svg width="26" height="25" viewBox="0 0 26 25" fill="none" xmlns="http://www.w3.org/2000/svg">
<path d="M12.6875 12.0223C11.0834 12.0223 9.7101 11.4595 8.56774 10.334C7.42537 9.20848 6.85419 7.85546 6.85419 6.27495C6.85419 4.69441 7.42537 3.34139 8.56774 2.21589C9.7101 1.09035 11.0834 0.527588 12.6875 0.527588C14.2916 0.527588 15.6649 1.09035 16.8073 2.21589C17.9496 3.34139 18.5208 4.69441 18.5208 6.27495C18.5208 7.85546 17.9496 9.20848 16.8073 10.334C15.6649 11.4595 14.2916 12.0223 12.6875 12.0223ZM0.1875 22.0329V20.8771C0.1875 20.0729 0.409195 19.3282 0.852585 18.6429C1.29595 17.9577 1.88835 17.4308 2.6298 17.0624C4.27725 16.2666 5.93912 15.6697 7.6154 15.2718C9.29168 14.874 10.9824 14.675 12.6875 14.675C14.3926 14.675 16.0833 14.874 17.7596 15.2718C19.4359 15.6697 21.0977 16.2666 22.7452 17.0624C23.4866 17.4308 24.0791 17.9577 24.5224 18.6429C24.9658 19.3282 25.1875 20.0729 25.1875 20.8771V22.0329C25.1875 22.7255 24.9412 23.3144 24.4487 23.7997C23.9562 24.285 23.3585 24.5276 22.6555 24.5276H2.71951C2.01653 24.5276 1.4188 24.285 0.926294 23.7997C0.433764 23.3144 0.1875 22.7255 0.1875 22.0329ZM2.68747 22.0645H22.6875V20.8771C22.6875 20.5444 22.5898 20.2366 22.3942 19.9534C22.1987 19.6702 21.9333 19.4392 21.5978 19.2602C20.1619 18.5634 18.6977 18.0355 17.2053 17.6765C15.713 17.3176 14.207 17.1381 12.6875 17.1381C11.168 17.1381 9.66204 17.3176 8.16965 17.6765C6.67726 18.0355 5.21311 18.5634 3.77722 19.2602C3.44175 19.4392 3.17626 19.6702 2.98076 19.9534C2.78523 20.2366 2.68747 20.5444 2.68747 20.8771V22.0645ZM12.6875 9.55918C13.6042 9.55918 14.3889 9.2376 15.0417 8.59444C15.6945 7.95127 16.0208 7.17811 16.0208 6.27495C16.0208 5.37179 15.6945 4.59862 15.0417 3.95546C14.3889 3.3123 13.6042 2.99072 12.6875 2.99072C11.7708 2.99072 10.9861 3.3123 10.3333 3.95546C9.68054 4.59862 9.35415 5.37179 9.35415 6.27495C9.35415 7.17811 9.68054 7.95127 10.3333 8.59444C10.9861 9.2376 11.7708 9.55918 12.6875 9.55918Z" fill="black"/>
</svg>
