<svg width="21" height="22" viewBox="0 0 21 22" fill="none" xmlns="http://www.w3.org/2000/svg">
<path d="M10.0225 0.855713C4.5023 0.855713 0.0224609 5.41255 0.0224609 11.0276C0.0224609 16.6426 4.5023 21.1995 10.0225 21.1995C15.5426 21.1995 20.0225 16.6426 20.0225 11.0276C20.0225 5.41255 15.5426 0.855713 10.0225 0.855713ZM14.0829 15.8223C13.9136 15.8223 13.8088 15.769 13.6515 15.6747C11.1354 14.1325 8.20794 14.0668 5.31682 14.6698C5.15956 14.7108 4.95391 14.7764 4.83698 14.7764C4.44585 14.7764 4.19988 14.4606 4.19988 14.1284C4.19988 13.7059 4.44585 13.5049 4.74827 13.4393C8.05069 12.6969 11.4257 12.7625 14.3047 14.5139C14.5507 14.6739 14.6958 14.8174 14.6958 15.1907C14.6958 15.5639 14.4096 15.8223 14.0829 15.8223ZM15.1676 13.1317C14.9579 13.1317 14.8168 13.0374 14.6717 12.9594C12.1515 11.4418 8.39343 10.8307 5.05069 11.7536C4.85714 11.8069 4.7523 11.8602 4.57085 11.8602C4.1394 11.8602 3.78859 11.5034 3.78859 11.0645C3.78859 10.6256 3.99827 10.3344 4.41359 10.2155C5.53456 9.89556 6.67972 9.65767 8.35714 9.65767C10.9741 9.65767 13.5023 10.318 15.4942 11.5239C15.8208 11.7208 15.9499 11.975 15.9499 12.3319C15.9458 12.7749 15.6071 13.1317 15.1676 13.1317ZM16.4176 10.0063C16.2079 10.0063 16.0789 9.95298 15.8975 9.84634C13.0265 8.10317 7.89343 7.68481 4.57085 8.62817C4.42569 8.66919 4.24424 8.73481 4.05069 8.73481C3.51843 8.73481 3.11117 8.31235 3.11117 7.76685C3.11117 7.20903 3.44988 6.89321 3.81278 6.78657C5.23214 6.36411 6.82085 6.16313 8.55069 6.16313C11.4942 6.16313 14.5789 6.78657 16.8329 8.12368C17.1475 8.30825 17.3531 8.56255 17.3531 9.05064C17.3531 9.60845 16.9096 10.0063 16.4176 10.0063Z" fill="#999999"/>
</svg>
