<svg width="27" height="28" viewBox="0 0 27 28" fill="none" xmlns="http://www.w3.org/2000/svg">
<path d="M7.61046 21.38C7.99717 21.38 8.32095 21.2492 8.58183 20.9876C8.84273 20.726 8.97318 20.4019 8.97318 20.0152C8.97318 19.6285 8.84238 19.3047 8.58079 19.0438C8.31922 18.7829 7.99508 18.6525 7.60838 18.6525C7.22168 18.6525 6.89788 18.7833 6.63698 19.0449C6.3761 19.3064 6.24567 19.6306 6.24567 20.0173C6.24567 20.404 6.37645 20.7278 6.63802 20.9887C6.89961 21.2496 7.22376 21.38 7.61046 21.38ZM7.61046 15.3912C7.99717 15.3912 8.32095 15.2604 8.58183 14.9989C8.84273 14.7373 8.97318 14.4131 8.97318 14.0264C8.97318 13.6397 8.84238 13.3159 8.58079 13.055C8.31922 12.7942 7.99508 12.6637 7.60838 12.6637C7.22168 12.6637 6.89788 12.7945 6.63698 13.0561C6.3761 13.3177 6.24567 13.6418 6.24567 14.0285C6.24567 14.4152 6.37645 14.739 6.63802 14.9999C6.89961 15.2608 7.22376 15.3912 7.61046 15.3912ZM7.61046 9.40247C7.99717 9.40247 8.32095 9.27167 8.58183 9.01008C8.84273 8.74851 8.97318 8.42437 8.97318 8.03767C8.97318 7.65097 8.84238 7.32717 8.58079 7.06627C8.31922 6.80537 7.99508 6.67491 7.60838 6.67491C7.22168 6.67491 6.89788 6.80571 6.63698 7.06731C6.3761 7.3289 6.24567 7.65305 6.24567 8.03975C6.24567 8.42645 6.37645 8.75024 6.63802 9.01112C6.89961 9.27202 7.22376 9.40247 7.61046 9.40247ZM13.45 21.1725H19.9131C20.2407 21.1725 20.5153 21.0616 20.7369 20.8399C20.9585 20.6182 21.0693 20.3435 21.0693 20.0157C21.0693 19.688 20.9585 19.4134 20.7369 19.1921C20.5153 18.9707 20.2407 18.86 19.9131 18.86H13.45C13.1223 18.86 12.8477 18.9709 12.6261 19.1926C12.4045 19.4143 12.2937 19.689 12.2937 20.0168C12.2937 20.3445 12.4045 20.619 12.6261 20.8404C12.8477 21.0618 13.1223 21.1725 13.45 21.1725ZM13.45 15.1837H19.9131C20.2407 15.1837 20.5153 15.0728 20.7369 14.8511C20.9585 14.6294 21.0693 14.3547 21.0693 14.027C21.0693 13.6992 20.9585 13.4247 20.7369 13.2033C20.5153 12.9819 20.2407 12.8713 19.9131 12.8713H13.45C13.1223 12.8713 12.8477 12.9821 12.6261 13.2038C12.4045 13.4255 12.2937 13.7002 12.2937 14.028C12.2937 14.3557 12.4045 14.6303 12.6261 14.8516C12.8477 15.073 13.1223 15.1837 13.45 15.1837ZM13.45 9.19492H19.9131C20.2407 9.19492 20.5153 9.08407 20.7369 8.86235C20.9585 8.64066 21.0693 8.36593 21.0693 8.03817C21.0693 7.71044 20.9585 7.43589 20.7369 7.21454C20.5153 6.99315 20.2407 6.88246 19.9131 6.88246H13.45C13.1223 6.88246 12.8477 6.99332 12.6261 7.21504C12.4045 7.43675 12.2937 7.71148 12.2937 8.03921C12.2937 8.36697 12.4045 8.64153 12.6261 8.86289C12.8477 9.08424 13.1223 9.19492 13.45 9.19492ZM3.36988 27.1316C2.59113 27.1316 1.93197 26.8618 1.39238 26.3222C0.8528 25.7826 0.583008 25.1235 0.583008 24.3447V3.71021C0.583008 2.93147 0.8528 2.2723 1.39238 1.73271C1.93197 1.19313 2.59113 0.92334 3.36988 0.92334H24.0044C24.7831 0.92334 25.4423 1.19313 25.9819 1.73271C26.5215 2.2723 26.7913 2.93147 26.7913 3.71021V24.3447C26.7913 25.1235 26.5215 25.7826 25.9819 26.3222C25.4423 26.8618 24.7831 27.1316 24.0044 27.1316H3.36988ZM3.36988 24.8191H24.0044C24.123 24.8191 24.2317 24.7697 24.3306 24.6709C24.4294 24.5721 24.4788 24.4633 24.4788 24.3447V3.71021C24.4788 3.59161 24.4294 3.48288 24.3306 3.38403C24.2317 3.28521 24.123 3.2358 24.0044 3.2358H3.36988C3.25127 3.2358 3.14255 3.28521 3.0437 3.38403C2.94488 3.48288 2.89547 3.59161 2.89547 3.71021V24.3447C2.89547 24.4633 2.94488 24.5721 3.0437 24.6709C3.14255 24.7697 3.25127 24.8191 3.36988 24.8191Z" fill="black"/>
</svg>
