<svg width="26" height="25" viewBox="0 0 26 25" fill="none" xmlns="http://www.w3.org/2000/svg">
<g clip-path="url(#clip0_2128_1859)">
<path d="M10.5085 14.4139C8.54451 14.4139 6.88235 13.7429 5.52199 12.4011C4.16163 11.0592 3.48145 9.41969 3.48145 7.48245C3.48145 5.5452 4.16163 3.90566 5.52199 2.5638C6.88235 1.22195 8.54451 0.551025 10.5085 0.551025C12.4724 0.551025 14.1346 1.22195 15.495 2.5638C16.8553 3.90566 17.5355 5.5452 17.5355 7.48245C17.5355 8.26445 17.4094 9.00203 17.1571 9.69517C16.9049 10.3883 16.5625 11.0015 16.1301 11.5347L22.1841 17.5063C22.3823 17.7019 22.4814 17.9507 22.4814 18.2528C22.4814 18.5549 22.3823 18.8038 22.1841 18.9993C21.986 19.1948 21.7337 19.2925 21.4274 19.2925C21.1211 19.2925 20.8688 19.1948 20.6706 18.9993L14.6166 13.0276C14.076 13.4541 13.4544 13.7918 12.7517 14.0406C12.049 14.2895 11.3013 14.4139 10.5085 14.4139ZM10.5085 12.2811C11.8598 12.2811 13.0085 11.8146 13.9544 10.8815C14.9004 9.94843 15.3733 8.81541 15.3733 7.48245C15.3733 6.14948 14.9004 5.01646 13.9544 4.08338C13.0085 3.15031 11.8598 2.68377 10.5085 2.68377C9.15712 2.68377 8.00847 3.15031 7.06253 4.08338C6.11658 5.01646 5.64361 6.14948 5.64361 7.48245C5.64361 8.81541 6.11658 9.94843 7.06253 10.8815C8.00847 11.8146 9.15712 12.2811 10.5085 12.2811Z" fill="black"/>
</g>
<defs>
<clipPath id="clip0_2128_1859">
<rect width="25" height="23.9011" fill="white" transform="translate(0.481445 0.551025)"/>
</clipPath>
</defs>
</svg>
