<svg width="44" height="43" viewBox="0 0 44 43" fill="none" xmlns="http://www.w3.org/2000/svg">
<path d="M19.4619 38.5208C19.0599 38.5208 18.7119 38.3859 18.4179 38.116C18.1239 37.8461 17.947 37.5101 17.8873 37.1081L17.367 33.0631C16.887 32.9023 16.3948 32.6772 15.8906 32.3878C15.3864 32.0984 14.9356 31.7883 14.5382 31.4575L10.7964 33.0355C10.4128 33.2032 10.0321 33.2227 9.65422 33.0941C9.27636 32.9655 8.97947 32.7243 8.76354 32.3706L6.06923 27.6778C5.86477 27.3241 5.8016 26.9463 5.87972 26.5443C5.9578 26.1423 6.15878 25.8184 6.48266 25.5727L9.72145 23.1229C9.6801 22.8564 9.6508 22.5888 9.63357 22.3201C9.61634 22.0513 9.60773 21.7837 9.60773 21.5173C9.60773 21.2623 9.61634 21.0033 9.63357 20.7403C9.6508 20.4773 9.6801 20.1896 9.72145 19.8772L6.48266 17.4274C6.15878 17.1816 5.95494 16.8578 5.87112 16.4558C5.78727 16.0538 5.85331 15.676 6.06923 15.3222L8.76354 10.664C8.97947 10.3103 9.27349 10.0691 9.64562 9.94043C10.0177 9.81179 10.3956 9.83131 10.7792 9.99901L14.521 11.5598C14.9528 11.2176 15.414 10.9046 15.9044 10.6209C16.3948 10.3372 16.8766 10.1092 17.3498 9.93693L17.8873 5.89193C17.947 5.48994 18.1239 5.154 18.4179 4.88412C18.7119 4.61421 19.0599 4.47925 19.4619 4.47925H24.8885C25.2905 4.47925 25.6413 4.61421 25.9411 4.88412C26.2408 5.154 26.4206 5.48994 26.4803 5.89193L27.0006 9.95418C27.5381 10.1494 28.0245 10.3774 28.4598 10.6381C28.8951 10.8988 29.3344 11.2061 29.7777 11.5598L33.5884 9.99901C33.972 9.83131 34.3499 9.80892 34.722 9.93183C35.0941 10.0547 35.3881 10.293 35.604 10.6467L38.2984 15.3222C38.5143 15.676 38.5803 16.0538 38.4965 16.4558C38.4126 16.8578 38.2088 17.1816 37.8849 17.4274L34.5772 19.9288C34.6416 20.2183 34.6766 20.4888 34.6823 20.7403C34.6881 20.9918 34.6909 21.2451 34.6909 21.5C34.6909 21.7435 34.6852 21.991 34.6737 22.2425C34.6622 22.4941 34.6209 22.7818 34.5497 23.1057L37.8229 25.5727C38.1468 25.8184 38.3506 26.1423 38.4345 26.5443C38.5183 26.9463 38.4523 27.3241 38.2364 27.6778L35.542 32.343C35.3261 32.6967 35.0246 32.9396 34.6376 33.0717C34.2505 33.2038 33.8652 33.186 33.4816 33.0183L29.7777 31.4403C29.3344 31.794 28.8818 32.107 28.4201 32.3792C27.9584 32.6514 27.4852 32.8736 27.0006 33.0459L26.4803 37.1081C26.4206 37.5101 26.2408 37.8461 25.9411 38.116C25.6413 38.3859 25.2905 38.5208 24.8885 38.5208H19.4619ZM20.3921 35.8334H23.9134L24.5578 31.0338C25.4719 30.7949 26.3075 30.4555 27.0643 30.0156C27.8212 29.5758 28.5511 29.0101 29.254 28.3187L33.7056 30.1896L35.4697 27.1438L31.5831 24.2151C31.7324 23.7511 31.8341 23.2963 31.8881 22.8507C31.942 22.4051 31.969 21.9549 31.969 21.5C31.969 21.0338 31.942 20.5835 31.8881 20.1494C31.8341 19.7153 31.7324 19.272 31.5831 18.8194L35.5042 15.8563L33.74 12.8105L29.2367 14.709C28.6372 14.0681 27.9189 13.5019 27.0816 13.0103C26.2443 12.5187 25.3973 12.1707 24.5405 11.9663L23.9755 7.1667H20.4197L19.8271 11.9491C18.9129 12.165 18.0687 12.4958 17.2946 12.9414C16.5205 13.387 15.782 13.9613 15.0792 14.6642L10.6275 12.8105L8.86343 15.8563L12.7328 18.7402C12.5834 19.1651 12.4789 19.6073 12.4192 20.0667C12.3595 20.5261 12.3296 21.0096 12.3296 21.5173C12.3296 21.9836 12.3595 22.4407 12.4192 22.8886C12.4789 23.3365 12.5777 23.7787 12.7155 24.2151L8.86343 27.1438L10.6275 30.1896L15.0619 28.3084C15.7418 29.0067 16.4688 29.5786 17.2429 30.0243C18.017 30.4699 18.8726 30.8121 19.8098 31.051L20.3921 35.8334ZM22.2044 26.875C23.6952 26.875 24.9637 26.3519 26.01 25.3056C27.0563 24.2593 27.5794 22.9908 27.5794 21.5C27.5794 20.0093 27.0563 18.7408 26.01 17.6945C24.9637 16.6482 23.6952 16.1251 22.2044 16.1251C20.6954 16.1251 19.4223 16.6482 18.3851 17.6945C17.3481 18.7408 16.8295 20.0093 16.8295 21.5C16.8295 22.9908 17.3481 24.2593 18.3851 25.3056C19.4223 26.3519 20.6954 26.875 22.2044 26.875Z" fill="white"/>
</svg>
