<svg width="31" height="30" viewBox="0 0 31 30" fill="none" xmlns="http://www.w3.org/2000/svg">
<g clip-path="url(#clip0_2128_1854)">
<path d="M8.36607 23.9914C7.73465 23.9914 7.2002 23.7756 6.7627 23.3441C6.3252 22.9125 6.10645 22.3853 6.10645 21.7625V7.72543C6.10645 7.10261 6.3252 6.57542 6.7627 6.14387C7.2002 5.71232 7.73465 5.49655 8.36607 5.49655H10.7939V5.1883C10.7939 3.91104 11.2515 2.82111 12.1665 1.9185C13.0816 1.01588 14.1865 0.564575 15.4814 0.564575C16.7763 0.564575 17.8812 1.01588 18.7963 1.9185C19.7113 2.82111 20.1689 3.91104 20.1689 5.1883V5.49655H22.5968C23.2282 5.49655 23.7626 5.71232 24.2001 6.14387C24.6376 6.57542 24.8564 7.10261 24.8564 7.72543V21.7625C24.8564 22.3853 24.6376 22.9125 24.2001 23.3441C23.7626 23.7756 23.2282 23.9914 22.5968 23.9914H8.36607ZM8.36607 22.1419H22.5968C22.6929 22.1419 22.7811 22.1024 22.8612 22.0234C22.9413 21.9443 22.9814 21.8574 22.9814 21.7625V7.72543C22.9814 7.63057 22.9413 7.54362 22.8612 7.46456C22.7811 7.38553 22.6929 7.34601 22.5968 7.34601H20.1689V10.1203C20.1689 10.3827 20.0791 10.6024 19.8997 10.7794C19.7202 10.9565 19.4974 11.045 19.2314 11.045C18.9654 11.045 18.7426 10.9565 18.5632 10.7794C18.3837 10.6024 18.2939 10.3827 18.2939 10.1203V7.34601H12.6689V10.1203C12.6689 10.3827 12.5791 10.6024 12.3997 10.7794C12.2202 10.9565 11.9974 11.045 11.7314 11.045C11.4654 11.045 11.2426 10.9565 11.0632 10.7794C10.8837 10.6024 10.7939 10.3827 10.7939 10.1203V7.34601H8.36607C8.2699 7.34601 8.18175 7.38553 8.1016 7.46456C8.02148 7.54362 7.98141 7.63057 7.98141 7.72543V21.7625C7.98141 21.8574 8.02148 21.9443 8.1016 22.0234C8.18175 22.1024 8.2699 22.1419 8.36607 22.1419ZM12.6689 5.49655H18.2939V5.1883C18.2939 4.4153 18.0211 3.75967 17.4754 3.22143C16.9297 2.68317 16.2651 2.41404 15.4814 2.41404C14.6977 2.41404 14.0331 2.68317 13.4874 3.22143C12.9417 3.75967 12.6689 4.4153 12.6689 5.1883V5.49655Z" fill="black"/>
<ellipse cx="22.7676" cy="18.6016" rx="6" ry="5.91837" fill="black"/>
<path d="M22.4814 15.1349C23.3314 15.1349 23.9714 15.5049 24.4114 16.2649C24.7914 16.9049 24.9814 17.7649 24.9814 18.8449C24.9814 19.9249 24.7914 20.7849 24.4114 21.4249C23.9714 22.1749 23.3314 22.5549 22.4814 22.5549C21.6214 22.5549 20.9814 22.1749 20.5514 21.4249C20.1714 20.7849 19.9814 19.9249 19.9814 18.8449C19.9814 17.7649 20.1714 16.9049 20.5514 16.2649C20.9814 15.5049 21.6214 15.1349 22.4814 15.1349ZM22.4814 15.8349C21.8414 15.8349 21.3814 16.1749 21.1014 16.8649C20.9014 17.3449 20.8014 18.0049 20.8014 18.8449C20.8014 19.6749 20.9014 20.3349 21.1014 20.8249C21.3814 21.5049 21.8414 21.8549 22.4814 21.8549C23.1214 21.8549 23.5814 21.5049 23.8614 20.8249C24.0614 20.3349 24.1714 19.6749 24.1714 18.8449C24.1714 18.0049 24.0614 17.3449 23.8614 16.8649C23.5814 16.1749 23.1214 15.8349 22.4814 15.8349Z" fill="white"/>
</g>
<defs>
<clipPath id="clip0_2128_1854">
<rect width="30" height="28.6054" fill="white" transform="translate(0.481445 0.564575)"/>
</clipPath>
</defs>
</svg>
