<svg width="29" height="29" viewBox="0 0 29 29" fill="none" xmlns="http://www.w3.org/2000/svg">
<path d="M14.1875 18.6199L18.0503 21.5446C18.3167 21.7316 18.5854 21.7378 18.8565 21.563C19.1276 21.3882 19.2113 21.1431 19.1073 20.8276L17.645 15.9899L21.4182 13.3068C21.6952 13.1004 21.7793 12.8432 21.6707 12.5353C21.562 12.2273 21.3457 12.0733 21.0216 12.0733H16.4037L14.8308 6.992C14.718 6.67645 14.5037 6.51868 14.1879 6.51868C13.8721 6.51868 13.6575 6.67645 13.5442 6.992L11.9713 12.0733H7.35338C7.02932 12.0733 6.81297 12.2273 6.70433 12.5353C6.5957 12.8432 6.67984 13.1004 6.95678 13.3068L10.73 15.9899L9.26767 20.8276C9.16375 21.1431 9.24735 21.3882 9.51849 21.563C9.7896 21.7378 10.0583 21.7316 10.3247 21.5446L14.1875 18.6199ZM14.19 28.5276C12.2536 28.5276 10.4336 28.1601 8.72981 27.4253C7.026 26.6904 5.54394 25.6931 4.28362 24.4333C3.02327 23.1735 2.0255 21.6921 1.2903 19.9891C0.555099 18.2861 0.1875 16.4664 0.1875 14.5301C0.1875 12.5937 0.55494 10.7737 1.28982 9.06989C2.0247 7.36609 3.02202 5.88403 4.28177 4.62371C5.54156 3.36336 7.02297 2.36559 8.72601 1.63039C10.429 0.895189 12.2487 0.527588 14.185 0.527588C16.1214 0.527588 17.9414 0.895029 19.6452 1.62991C21.349 2.36479 22.8311 3.3621 24.0914 4.62186C25.3517 5.88164 26.3495 7.36306 27.0847 9.0661C27.8199 10.7691 28.1875 12.5888 28.1875 14.5251C28.1875 16.4614 27.8201 18.2815 27.0852 19.9853C26.3503 21.6891 25.353 23.1711 24.0932 24.4315C22.8334 25.6918 21.352 26.6896 19.649 27.4248C17.946 28.16 16.1263 28.5276 14.19 28.5276ZM14.1875 26.3171C17.4542 26.3171 20.2358 25.1688 22.5323 22.8723C24.8288 20.5758 25.977 17.7943 25.977 14.5276C25.977 11.2609 24.8288 8.47933 22.5323 6.18283C20.2358 3.88633 17.4542 2.73808 14.1875 2.73808C10.9208 2.73808 8.13924 3.88633 5.84274 6.18283C3.54624 8.47933 2.398 11.2609 2.398 14.5276C2.398 17.7943 3.54624 20.5758 5.84274 22.8723C8.13924 25.1688 10.9208 26.3171 14.1875 26.3171Z" fill="black"/>
</svg>
