<svg width="54" height="51" viewBox="0 0 54 51" fill="none" xmlns="http://www.w3.org/2000/svg">
<path d="M27.2016 37.4421C29.2591 37.4421 31.0932 36.8238 32.7037 35.5873C34.3143 34.3507 35.4882 32.775 36.2255 30.8603H18.1871C18.9244 32.775 20.0968 34.3507 21.7042 35.5873C23.3116 36.8238 25.1441 37.4421 27.2016 37.4421ZM20.7703 26.9197C21.7862 26.9197 22.6475 26.5642 23.3544 25.8531C24.0612 25.1421 24.4146 24.2786 24.4146 23.2628C24.4146 22.247 24.0591 21.3856 23.348 20.6788C22.637 19.9719 21.7735 19.6185 20.7577 19.6185C19.7419 19.6185 18.8806 19.9741 18.1737 20.6851C17.4669 21.3962 17.1135 22.2596 17.1135 23.2755C17.1135 24.2913 17.469 25.1526 18.18 25.8594C18.8911 26.5663 19.7545 26.9197 20.7703 26.9197ZM33.6549 26.9197C34.6707 26.9197 35.532 26.5642 36.2389 25.8531C36.9457 25.1421 37.2992 24.2786 37.2992 23.2628C37.2992 22.247 36.9436 21.3856 36.2326 20.6788C35.5215 19.9719 34.6581 19.6185 33.6423 19.6185C32.6264 19.6185 31.7651 19.9741 31.0583 20.6851C30.3514 21.3962 29.998 22.2596 29.998 23.2755C29.998 24.2913 30.3535 25.1526 31.0646 25.8594C31.7756 26.5663 32.6391 26.9197 33.6549 26.9197ZM15.6908 12.3602L23.2389 2.45514C23.74 1.78463 24.335 1.2922 25.024 0.977863C25.713 0.663521 26.4404 0.506348 27.2063 0.506348C27.9722 0.506348 28.6996 0.663521 29.3886 0.977863C30.0776 1.2922 30.6726 1.78463 31.1737 2.45514L38.7219 12.3602L50.2644 16.2578C51.3667 16.6121 52.2266 17.2372 52.8439 18.133C53.4613 19.0288 53.77 20.0184 53.77 21.1018C53.77 21.6018 53.6969 22.1003 53.5508 22.5973C53.4046 23.0943 53.1645 23.5705 52.8305 24.0261L45.3145 34.4572L45.5936 45.5272C45.6402 46.9972 45.1557 48.2362 44.1401 49.2442C43.1246 50.2522 41.9413 50.7562 40.5902 50.7562C40.5508 50.7562 40.0837 50.6954 39.189 50.5736L27.2063 47.1377L15.2236 50.5736C14.991 50.6667 14.7509 50.7204 14.5033 50.7347C14.2557 50.749 14.0288 50.7562 13.8224 50.7562C12.4588 50.7562 11.2724 50.2522 10.2631 49.2442C9.25385 48.2362 8.77247 46.9972 8.819 45.5272L9.09816 34.3874L1.62508 24.0261C1.29101 23.5687 1.05091 23.0906 0.904762 22.5916C0.758619 22.0927 0.685547 21.5938 0.685547 21.0948C0.685547 20.042 0.992211 19.063 1.60554 18.1576C2.21887 17.2521 3.0754 16.6099 4.17513 16.231L15.6908 12.3602ZM18.2784 15.9678L5.51722 20.2197C5.24881 20.3092 5.06537 20.4926 4.96692 20.77C4.86851 21.0474 4.90878 21.3025 5.08773 21.5351L13.3124 33.1419L13.0064 45.6131C12.9885 45.9174 13.0959 46.159 13.3285 46.3379C13.5612 46.5169 13.8207 46.5616 14.107 46.4721L27.2063 42.7947L40.3056 46.5419C40.592 46.6314 40.8515 46.5867 41.0841 46.4077C41.3167 46.2288 41.4241 45.9872 41.4063 45.6829L41.1002 33.1419L49.3249 21.6747C49.5038 21.442 49.5441 21.187 49.4457 20.9096C49.3473 20.6322 49.1638 20.4488 48.8954 20.3593L36.1343 15.9678L27.8774 5.06961C27.7163 4.83697 27.4926 4.72065 27.2063 4.72065C26.92 4.72065 26.6963 4.83697 26.5352 5.06961L18.2784 15.9678Z" fill="white"/>
</svg>
