<svg width="196" height="37" viewBox="0 0 196 37" fill="none" xmlns="http://www.w3.org/2000/svg">
<path d="M22.32 10.576L21.864 11.272C20.152 13.928 18.68 16.28 17.448 18.328C16.232 20.36 15.216 22.232 14.4 23.944V28H8.136V23.536C7.544 22.336 6.848 21.104 6.048 19.84C5.248 18.56 4.112 16.808 2.64 14.584C1.488 12.888 0.608 11.552 0 10.576H6.72C7.2 11.552 7.984 13 9.072 14.92C10.16 16.872 10.904 18.248 11.304 19.048C11.864 17.88 12.616 16.448 13.56 14.752C14.664 12.768 15.408 11.376 15.792 10.576H22.32ZM28.4458 28.24C25.7098 28.24 23.6938 27.616 22.3978 26.368C21.1178 25.104 20.4778 23.448 20.4778 21.4C20.4778 19.4 21.1178 17.776 22.3978 16.528C23.6938 15.28 25.7098 14.656 28.4458 14.656C30.2858 14.656 31.8218 14.96 33.0538 15.568C34.3018 16.16 35.2218 16.968 35.8138 17.992C36.4058 19 36.7018 20.136 36.7018 21.4C36.7018 23.464 36.0138 25.12 34.6378 26.368C33.2778 27.616 31.2138 28.24 28.4458 28.24ZM28.5418 24.16C29.5818 24.16 30.3578 23.912 30.8698 23.416C31.3818 22.92 31.6378 22.256 31.6378 21.424C31.6378 20.64 31.3818 20 30.8698 19.504C30.3578 18.992 29.5818 18.736 28.5418 18.736C27.5018 18.736 26.7418 18.984 26.2618 19.48C25.7818 19.976 25.5418 20.624 25.5418 21.424C25.5418 22.256 25.7818 22.92 26.2618 23.416C26.7418 23.912 27.5018 24.16 28.5418 24.16ZM53.1497 14.896C53.0377 16.912 52.9817 19.088 52.9817 21.424C52.9817 23.776 53.0377 25.968 53.1497 28C52.1257 27.952 51.3177 27.928 50.7257 27.928C50.1657 27.928 49.3577 27.952 48.3017 28L47.6057 24.472C47.2377 25.752 46.6617 26.704 45.8777 27.328C45.0937 27.936 44.1817 28.24 43.1417 28.24C42.1817 28.24 41.3497 28.032 40.6457 27.616C39.9417 27.184 39.4057 26.608 39.0377 25.888C38.6857 25.168 38.5097 24.36 38.5097 23.464V20.008C38.5097 17.88 38.4697 16.176 38.3897 14.896H43.7897C43.6937 17.248 43.6457 19.576 43.6457 21.88C43.6457 22.584 43.8137 23.144 44.1497 23.56C44.5017 23.976 44.9417 24.184 45.4697 24.184C45.9657 24.184 46.3977 23.968 46.7657 23.536C47.1497 23.088 47.3817 22.48 47.4617 21.712V21.16C47.4937 19.912 47.5097 19.048 47.5097 18.568C47.5097 17.464 47.4777 16.24 47.4137 14.896H53.1497ZM65.9492 19.192C64.4772 19.096 63.1332 19.024 61.9172 18.976L61.8932 21.52C61.8932 22.384 62.0772 23.064 62.4452 23.56C62.8292 24.04 63.5012 24.28 64.4612 24.28C64.8292 24.28 65.1812 24.248 65.5172 24.184C65.4532 24.776 65.4212 25.376 65.4212 25.984C65.4212 26.272 65.4372 26.928 65.4692 27.952C64.7652 28.08 64.1732 28.16 63.6932 28.192C63.2132 28.224 62.5892 28.24 61.8212 28.24C59.9492 28.24 58.6212 27.792 57.8372 26.896C57.0692 25.984 56.6852 24.72 56.6852 23.104L56.7092 19.048C55.9572 19.08 55.1732 19.128 54.3572 19.192V14.944C55.1892 14.944 55.8932 14.68 56.4692 14.152C57.0452 13.624 57.3892 12.992 57.5012 12.256H64.0292C63.2132 13.376 62.3092 14.272 61.3172 14.944H65.9492V19.192ZM82.1419 14.896C82.0299 16.912 81.9739 19.088 81.9739 21.424C81.9739 23.776 82.0299 25.968 82.1419 28C81.1179 27.952 80.3099 27.928 79.7179 27.928C79.1579 27.928 78.3499 27.952 77.2939 28L76.5979 24.472C76.2299 25.752 75.6539 26.704 74.8699 27.328C74.0859 27.936 73.1739 28.24 72.1339 28.24C71.1739 28.24 70.3419 28.032 69.6379 27.616C68.9339 27.184 68.3979 26.608 68.0299 25.888C67.6779 25.168 67.5019 24.36 67.5019 23.464V20.008C67.5019 17.88 67.4619 16.176 67.3819 14.896H72.7819C72.6859 17.248 72.6379 19.576 72.6379 21.88C72.6379 22.584 72.8059 23.144 73.1419 23.56C73.4939 23.976 73.9339 24.184 74.4619 24.184C74.9579 24.184 75.3899 23.968 75.7579 23.536C76.1419 23.088 76.3739 22.48 76.4539 21.712V21.16C76.4859 19.912 76.5019 19.048 76.5019 18.568C76.5019 17.464 76.4699 16.24 76.4059 14.896H82.1419ZM94.4854 14.656C95.5574 14.656 96.5094 14.984 97.3414 15.64C98.1894 16.28 98.8454 17.136 99.3094 18.208C99.7734 19.264 100.005 20.392 100.005 21.592C100.005 22.808 99.7734 23.928 99.3094 24.952C98.8454 25.96 98.1974 26.76 97.3654 27.352C96.5334 27.944 95.5974 28.24 94.5574 28.24C93.3414 28.24 92.2854 27.984 91.3894 27.472C90.4934 26.944 89.8214 26.12 89.3734 25L88.6774 28H84.0694C84.1654 24.992 84.2134 21.88 84.2134 18.664C84.2134 15.416 84.1654 12.304 84.0694 9.328H89.4934L89.4214 12.28C89.3414 14.36 89.3014 16.216 89.3014 17.848C89.7334 16.76 90.3894 15.96 91.2694 15.448C92.1654 14.92 93.2374 14.656 94.4854 14.656ZM92.0374 24.208C92.8054 24.208 93.4134 23.952 93.8614 23.44C94.3094 22.928 94.5334 22.264 94.5334 21.448C94.5334 20.712 94.2854 20.12 93.7894 19.672C93.3094 19.208 92.7094 18.976 91.9894 18.976C91.6214 18.976 91.2374 19.064 90.8374 19.24C90.4374 19.4 90.0934 19.672 89.8054 20.056C89.5174 20.424 89.3734 20.888 89.3734 21.448C89.3734 22.44 89.5974 23.152 90.0454 23.584C90.4934 24 91.1574 24.208 92.0374 24.208ZM114.625 22H106.801C106.929 22.704 107.241 23.28 107.737 23.728C108.249 24.16 108.969 24.376 109.897 24.376C110.569 24.376 111.201 24.248 111.793 23.992C112.385 23.72 112.857 23.344 113.209 22.864C114.281 23.392 115.705 23.96 117.481 24.568C116.985 25.688 116.081 26.584 114.769 27.256C113.473 27.912 111.777 28.24 109.681 28.24C106.961 28.24 104.945 27.616 103.633 26.368C102.337 25.104 101.689 23.448 101.689 21.4C101.689 19.4 102.337 17.776 103.633 16.528C104.929 15.28 106.945 14.656 109.681 14.656C111.313 14.656 112.729 14.928 113.929 15.472C115.129 16.016 116.049 16.776 116.689 17.752C117.329 18.712 117.649 19.816 117.649 21.064C117.649 21.48 117.633 21.792 117.601 22H114.625ZM110.017 18.28C109.217 18.28 108.561 18.432 108.049 18.736C107.537 19.04 107.177 19.456 106.969 19.984H112.633C112.441 19.472 112.129 19.064 111.697 18.76C111.265 18.44 110.705 18.28 110.017 18.28Z" fill="white"/>
<path d="M181.908 11.678L168.083 11.678L168.102 9.10156L186.305 9.10156L186.305 27.3047L183.728 27.3233L183.728 13.4982L169.012 28.2148L167.191 26.3946L181.908 11.678Z" fill="white"/>
</svg>
