<svg width="482" height="31" viewBox="0 0 482 31" fill="none" xmlns="http://www.w3.org/2000/svg">
<path d="M38 0.96L41.12 30H30.76L30.12 9.28L26.12 30H15.64L11.56 9.44L10.96 30H0.6L3.72 0.96H17.32L20.8 19.88L23.84 0.96H38ZM67.9909 0.919998H77.9109V16.84C77.8576 20.76 76.5109 24 73.8709 26.56C71.2576 29.12 66.8443 30.4 60.6309 30.4C54.3376 30.4 50.0309 29.1867 47.7109 26.76C45.3909 24.3067 44.2576 21.0933 44.3109 17.12V0.919998H54.2309V16.48C54.2309 17.6533 54.3109 18.6133 54.4709 19.36C54.6576 20.08 55.2176 20.76 56.1509 21.4C57.1109 22.04 58.6443 22.36 60.7509 22.36C63.0443 22.36 64.7243 22.04 65.7909 21.4C66.8576 20.7333 67.4843 20 67.6709 19.2C67.8843 18.4 67.9909 17.3733 67.9909 16.12V0.919998ZM81.1078 26.56C82.0145 25.2 82.7611 23.9333 83.3478 22.76C83.9611 21.5867 84.5478 20.2267 85.1078 18.68C87.0011 19.7733 89.2011 20.6267 91.7078 21.24C94.2145 21.8533 96.5478 22.16 98.7078 22.16C100.921 22.16 102.481 21.9733 103.388 21.6C104.294 21.2 104.748 20.7733 104.748 20.32C104.748 18.6933 102.268 17.88 97.3078 17.88C91.8678 17.88 87.9211 17.32 85.4678 16.2C83.0145 15.0533 81.7878 13.2133 81.7878 10.68C81.7878 7.08 83.2811 4.42667 86.2678 2.72C89.2545 1.01333 93.1345 0.159998 97.9078 0.159998C100.681 0.159998 103.521 0.519998 106.428 1.24C109.361 1.93333 112.001 2.89333 114.348 4.12C113.574 5.88 112.761 8.02667 111.908 10.56C111.748 11.0933 111.614 11.4933 111.508 11.76C110.148 10.6667 108.094 9.76 105.348 9.04C102.601 8.29333 100.174 7.92 98.0678 7.92C95.5345 7.92 93.8278 8.09333 92.9478 8.44C92.0678 8.76 91.6278 9.24 91.6278 9.88C91.6278 10.52 92.2278 11.04 93.4278 11.44C94.6545 11.8133 96.4145 12 98.7078 12C104.361 12 108.468 12.6533 111.028 13.96C113.588 15.24 114.868 17.2133 114.868 19.88C114.868 23.6133 113.508 26.3067 110.788 27.96C108.068 29.5867 103.948 30.4 98.4278 30.4C95.4678 30.4 92.4545 30.08 89.3878 29.44C86.3211 28.7733 83.5611 27.8133 81.1078 26.56ZM141.301 8.92C138.128 8.76 135.781 8.66666 134.261 8.64V22.32C135.808 22.2933 138.154 22.2 141.301 22.04V30H118.061V22.04C121.128 22.2 123.461 22.2933 125.061 22.32V8.64C123.461 8.66666 121.128 8.76 118.061 8.92V0.96H141.301V8.92ZM162.106 30.4C156.08 30.4 151.64 29.12 148.786 26.56C145.933 24 144.506 20.3467 144.506 15.6C144.506 10.8267 145.933 7.05333 148.786 4.28C151.64 1.50667 156.08 0.119998 162.106 0.119998C170.533 0.119998 176.173 3.01333 179.026 8.8C176.626 9.62667 173.813 10.8667 170.586 12.52C169.813 11.0267 168.586 9.92 166.906 9.2C165.253 8.48 163.56 8.12 161.826 8.12C159.266 8.12 157.36 8.8 156.106 10.16C154.853 11.4933 154.226 13.1467 154.226 15.12C154.226 17.2533 154.893 19 156.226 20.36C157.586 21.6933 159.653 22.36 162.426 22.36C164.64 22.36 166.4 22 167.706 21.28C169.013 20.5333 169.973 19.36 170.586 17.76C172.773 18.9333 175.573 20.2533 178.986 21.72C177.653 24.9467 175.426 27.2 172.306 28.48C169.186 29.76 165.786 30.4 162.106 30.4ZM208.408 0.999999C213.715 0.999999 217.408 1.94667 219.488 3.84C221.568 5.70666 222.608 8.34666 222.608 11.76C222.608 14.1067 222.195 16.1067 221.368 17.76C220.542 19.3867 219.088 20.6667 217.008 21.6C214.928 22.5067 212.062 22.96 208.408 22.96H200.088V30H190.248C190.462 24.8267 190.568 19.9867 190.568 15.48C190.568 10.9733 190.462 6.13333 190.248 0.96H200.088V0.999999H208.408ZM205.608 15.24C207.822 15.24 209.475 15.16 210.568 15C211.688 14.8133 212.462 14.4933 212.888 14.04C213.342 13.5867 213.568 12.92 213.568 12.04C213.568 11.16 213.355 10.5067 212.928 10.08C212.528 9.62667 211.768 9.32 210.648 9.16C209.555 9 207.875 8.92 205.608 8.92H200.088V15.24H205.608ZM257.915 10.64C257.915 12.96 257.342 14.92 256.195 16.52C255.075 18.12 253.142 19.28 250.395 20C250.715 20.4267 250.942 20.76 251.075 21L257.555 30H246.675C245.502 27.8133 243.649 24.72 241.115 20.72H235.235V30H225.795C226.009 24.8267 226.115 19.9867 226.115 15.48C226.115 10.9733 226.009 6.13333 225.795 0.96H235.235V0.999999H243.435C248.822 0.999999 252.582 1.86667 254.715 3.6C256.849 5.33333 257.915 7.68 257.915 10.64ZM235.235 8.68V13.24H240.635C242.902 13.24 244.609 13.1733 245.755 13.04C246.929 12.88 247.742 12.64 248.195 12.32C248.649 12 248.875 11.5333 248.875 10.92C248.875 10.3333 248.662 9.88 248.235 9.56C247.809 9.24 247.009 9.01333 245.835 8.88C244.662 8.74667 242.929 8.68 240.635 8.68H235.235ZM278.908 30.4C272.801 30.4 268.308 29.08 265.428 26.44C262.548 23.7733 261.108 20.04 261.108 15.24C261.108 10.4933 262.534 6.78667 265.388 4.12C268.268 1.45333 272.774 0.119998 278.908 0.119998C285.068 0.119998 289.574 1.45333 292.428 4.12C295.308 6.78667 296.748 10.4933 296.748 15.24C296.748 20.0667 295.321 23.8 292.468 26.44C289.614 29.08 285.094 30.4 278.908 30.4ZM278.908 22.24C281.868 22.24 284.001 21.68 285.308 20.56C286.614 19.4133 287.268 17.64 287.268 15.24C287.268 12.8933 286.614 11.1467 285.308 10C284.001 8.85333 281.868 8.28 278.908 8.28C275.974 8.28 273.854 8.85333 272.548 10C271.241 11.1467 270.588 12.8933 270.588 15.24C270.588 17.6133 271.241 19.3733 272.548 20.52C273.854 21.6667 275.974 22.24 278.908 22.24ZM312.736 0.519998C317.749 0.519998 321.709 1.13333 324.616 2.36C327.523 3.56 329.549 5.24 330.696 7.4C331.869 9.53333 332.456 12.16 332.456 15.28C332.456 18.24 331.789 20.8267 330.456 23.04C329.123 25.2533 327.123 26.9733 324.456 28.2C321.789 29.4 318.509 30 314.616 30C312.243 30 309.829 30 307.376 30C304.923 30 302.443 29.9867 299.936 29.96C300.149 24.7067 300.256 19.8133 300.256 15.28C300.256 10.6933 300.149 5.90667 299.936 0.919998C303.109 0.653331 307.376 0.519998 312.736 0.519998ZM315.736 22.04C318.216 22.04 319.869 21.44 320.696 20.24C321.523 19.04 321.936 17.3867 321.936 15.28C321.936 13.2533 321.496 11.6133 320.616 10.36C319.763 9.10667 318.136 8.48 315.736 8.48C313.149 8.48 311.216 8.56 309.936 8.72V22.04H315.736ZM359.319 0.919998H369.239V16.84C369.186 20.76 367.839 24 365.199 26.56C362.586 29.12 358.172 30.4 351.959 30.4C345.666 30.4 341.359 29.1867 339.039 26.76C336.719 24.3067 335.586 21.0933 335.639 17.12V0.919998H345.559V16.48C345.559 17.6533 345.639 18.6133 345.799 19.36C345.986 20.08 346.546 20.76 347.479 21.4C348.439 22.04 349.972 22.36 352.079 22.36C354.372 22.36 356.052 22.04 357.119 21.4C358.186 20.7333 358.812 20 358.999 19.2C359.212 18.4 359.319 17.3733 359.319 16.12V0.919998ZM390.036 30.4C384.009 30.4 379.569 29.12 376.716 26.56C373.863 24 372.436 20.3467 372.436 15.6C372.436 10.8267 373.863 7.05333 376.716 4.28C379.569 1.50667 384.009 0.119998 390.036 0.119998C398.463 0.119998 404.103 3.01333 406.956 8.8C404.556 9.62667 401.743 10.8667 398.516 12.52C397.743 11.0267 396.516 9.92 394.836 9.2C393.183 8.48 391.489 8.12 389.756 8.12C387.196 8.12 385.289 8.8 384.036 10.16C382.783 11.4933 382.156 13.1467 382.156 15.12C382.156 17.2533 382.823 19 384.156 20.36C385.516 21.6933 387.583 22.36 390.356 22.36C392.569 22.36 394.329 22 395.636 21.28C396.943 20.5333 397.903 19.36 398.516 17.76C400.703 18.9333 403.503 20.2533 406.916 21.72C405.583 24.9467 403.356 27.2 400.236 28.48C397.116 29.76 393.716 30.4 390.036 30.4ZM444.53 9.36C440.344 9.22667 436.277 9.14667 432.33 9.12V30H422.33V9.12C418.357 9.14667 414.304 9.22667 410.17 9.36V0.96H444.53V9.36ZM447.748 26.56C448.655 25.2 449.402 23.9333 449.988 22.76C450.602 21.5867 451.188 20.2267 451.748 18.68C453.642 19.7733 455.842 20.6267 458.348 21.24C460.855 21.8533 463.188 22.16 465.348 22.16C467.562 22.16 469.122 21.9733 470.028 21.6C470.935 21.2 471.388 20.7733 471.388 20.32C471.388 18.6933 468.908 17.88 463.948 17.88C458.508 17.88 454.562 17.32 452.108 16.2C449.655 15.0533 448.428 13.2133 448.428 10.68C448.428 7.08 449.922 4.42667 452.908 2.72C455.895 1.01333 459.775 0.159998 464.548 0.159998C467.322 0.159998 470.162 0.519998 473.068 1.24C476.002 1.93333 478.642 2.89333 480.988 4.12C480.215 5.88 479.402 8.02667 478.548 10.56C478.388 11.0933 478.255 11.4933 478.148 11.76C476.788 10.6667 474.735 9.76 471.988 9.04C469.242 8.29333 466.815 7.92 464.708 7.92C462.175 7.92 460.468 8.09333 459.588 8.44C458.708 8.76 458.268 9.24 458.268 9.88C458.268 10.52 458.868 11.04 460.068 11.44C461.295 11.8133 463.055 12 465.348 12C471.002 12 475.108 12.6533 477.668 13.96C480.228 15.24 481.508 17.2133 481.508 19.88C481.508 23.6133 480.148 26.3067 477.428 27.96C474.708 29.5867 470.588 30.4 465.068 30.4C462.108 30.4 459.095 30.08 456.028 29.44C452.962 28.7733 450.202 27.8133 447.748 26.56Z" fill="white"/>
</svg>
