<svg width="102" height="39" viewBox="0 0 102 39" fill="none" xmlns="http://www.w3.org/2000/svg">
<g filter="url(#filter0_d_2047_275)">
<path d="M20.608 24.0356C22.048 24.0036 23.112 23.9716 23.8 23.9396V28.4756H11.104V23.9396C12.832 24.0036 14.136 24.0356 15.016 24.0356V15.7556C14.44 17.0196 13.264 17.8356 11.488 18.2036C11.44 16.3156 11.264 14.5956 10.96 13.0436C12.24 12.8676 13.128 12.6516 13.624 12.3956C14.136 12.1236 14.528 11.8276 14.8 11.5076C15.088 11.1876 15.28 10.9716 15.376 10.8596V10.8116H20.608V24.0356ZM35.9174 10.8116C37.7094 10.8116 39.3014 11.1716 40.6934 11.8916C42.1014 12.5956 43.1894 13.5796 43.9574 14.8436C44.7414 16.1076 45.1334 17.5476 45.1334 19.1636C45.1334 22.3796 44.2374 24.7796 42.4454 26.3636C40.6694 27.9316 38.2694 28.7156 35.2454 28.7156C31.5654 28.7156 28.6614 27.7876 26.5334 25.9316C27.4934 24.9076 28.3734 23.7796 29.1734 22.5476C29.7974 23.0596 30.6854 23.4596 31.8374 23.7476C32.9894 24.0196 34.0374 24.1556 34.9814 24.1556C36.3734 24.1556 37.5414 23.8116 38.4854 23.1236C39.4294 22.4196 40.0054 21.4196 40.2134 20.1236C40.2294 20.0436 40.2374 19.9316 40.2374 19.7876C39.4694 20.9076 38.4534 21.7316 37.1894 22.2596C35.9254 22.7716 34.6374 23.0276 33.3254 23.0276C32.0454 23.0276 30.8854 22.7956 29.8454 22.3316C28.8054 21.8676 27.9894 21.2356 27.3974 20.4356C26.8054 19.6196 26.5094 18.7076 26.5094 17.6996C26.5094 16.2436 26.9174 14.9956 27.7334 13.9556C28.5654 12.9156 29.6934 12.1316 31.1174 11.6036C32.5414 11.0756 34.1414 10.8116 35.9174 10.8116ZM35.6774 19.2596C36.2854 19.2596 36.8454 19.1716 37.3574 18.9956C37.8854 18.8036 38.3014 18.5556 38.6054 18.2516C38.9254 17.9476 39.0854 17.6196 39.0854 17.2676C39.0854 16.7236 38.7494 16.2596 38.0774 15.8756C37.4214 15.4916 36.6214 15.2996 35.6774 15.2996C34.7334 15.2996 33.9254 15.4916 33.2534 15.8756C32.5974 16.2596 32.2694 16.7236 32.2694 17.2676C32.2694 17.8276 32.5974 18.2996 33.2534 18.6836C33.9254 19.0676 34.7334 19.2596 35.6774 19.2596ZM61.8961 19.6436C62.4721 19.5316 63.0401 19.4756 63.6001 19.4756C64.5761 19.4756 65.3681 19.6436 65.9761 19.9796C66.6001 20.2996 67.0481 20.7156 67.3201 21.2276C67.5921 21.7236 67.7281 22.2436 67.7281 22.7876C67.7281 24.0516 67.3121 25.1316 66.4801 26.0276C65.6481 26.9076 64.5201 27.5796 63.0961 28.0436C61.6721 28.4916 60.0881 28.7156 58.3441 28.7156C53.2881 28.7156 50.0161 26.9556 48.5281 23.4356L49.8721 23.0996C50.8641 22.8596 51.7041 22.6356 52.3921 22.4276C53.0961 22.2036 53.7121 21.9556 54.2401 21.6836C54.5601 22.4836 55.0161 23.0596 55.6081 23.4116C56.2161 23.7476 57.0481 23.9156 58.1041 23.9156C59.2241 23.9156 60.1361 23.7876 60.8401 23.5316C61.5441 23.2756 61.8961 22.8916 61.8961 22.3796C61.8961 22.1076 61.7601 21.8996 61.4881 21.7556C61.2161 21.6116 60.7841 21.5156 60.1921 21.4676C59.6001 21.4036 58.7681 21.3716 57.6961 21.3716H55.8721V17.1716H56.9761C58.1921 17.1716 59.1841 17.1236 59.9521 17.0276C60.7201 16.9156 61.1041 16.6836 61.1041 16.3316C61.1041 15.9316 60.8961 15.6116 60.4801 15.3716C60.0801 15.1156 59.4481 14.9876 58.5841 14.9876C57.4641 14.9876 56.5521 15.2196 55.8481 15.6836C55.1601 16.1476 54.6241 16.8196 54.2401 17.6996C52.5281 17.0116 50.7041 16.5236 48.7681 16.2356C49.5361 14.5076 50.7121 13.1716 52.2961 12.2276C53.8961 11.2836 55.9521 10.8116 58.4641 10.8116C60.0961 10.8116 61.5601 11.0276 62.8561 11.4596C64.1681 11.8756 65.1921 12.4596 65.9281 13.2116C66.6801 13.9636 67.0561 14.8036 67.0561 15.7316C67.0561 16.2756 66.9281 16.7636 66.6721 17.1956C66.4161 17.6116 65.9121 18.0276 65.1601 18.4436C64.4081 18.8436 63.3201 19.2436 61.8961 19.6436ZM81.1407 28.7156C77.7007 28.7156 75.1647 27.9236 73.5327 26.3396C71.9007 24.7556 71.0847 22.5556 71.0847 19.7396C71.0847 16.9396 71.9007 14.7556 73.5327 13.1876C75.1807 11.6036 77.7167 10.8116 81.1407 10.8116C84.5647 10.8116 87.0927 11.6036 88.7247 13.1876C90.3567 14.7556 91.1727 16.9396 91.1727 19.7396C91.1727 22.5556 90.3567 24.7556 88.7247 26.3396C87.0927 27.9236 84.5647 28.7156 81.1407 28.7156ZM81.1647 24.5156C82.6367 24.5156 83.7087 24.0676 84.3807 23.1716C85.0527 22.2596 85.3887 21.1156 85.3887 19.7396C85.3887 18.3796 85.0527 17.2516 84.3807 16.3556C83.7087 15.4436 82.6367 14.9876 81.1647 14.9876C79.6447 14.9876 78.5407 15.4436 77.8527 16.3556C77.1807 17.2516 76.8447 18.3796 76.8447 19.7396C76.8447 21.0996 77.1807 22.2356 77.8527 23.1476C78.5407 24.0596 79.6447 24.5156 81.1647 24.5156Z" fill="#FF005C"/>
</g>
<defs>
<filter id="filter0_d_2047_275" x="0.960938" y="0.811523" width="100.211" height="37.9043" filterUnits="userSpaceOnUse" color-interpolation-filters="sRGB">
<feFlood flood-opacity="0" result="BackgroundImageFix"/>
<feColorMatrix in="SourceAlpha" type="matrix" values="0 0 0 0 0 0 0 0 0 0 0 0 0 0 0 0 0 0 127 0" result="hardAlpha"/>
<feOffset/>
<feGaussianBlur stdDeviation="5"/>
<feComposite in2="hardAlpha" operator="out"/>
<feColorMatrix type="matrix" values="0 0 0 0 1 0 0 0 0 0 0 0 0 0 0.360784 0 0 0 1 0"/>
<feBlend mode="normal" in2="BackgroundImageFix" result="effect1_dropShadow_2047_275"/>
<feBlend mode="normal" in="SourceGraphic" in2="effect1_dropShadow_2047_275" result="shape"/>
</filter>
</defs>
</svg>
