<svg width="100" height="39" viewBox="0 0 100 39" fill="none" xmlns="http://www.w3.org/2000/svg">
<g filter="url(#filter0_d_2047_277)">
<path d="M20.608 24.0356C22.048 24.0036 23.112 23.9716 23.8 23.9396V28.4756H11.104V23.9396C12.832 24.0036 14.136 24.0356 15.016 24.0356V15.7556C14.44 17.0196 13.264 17.8356 11.488 18.2036C11.44 16.3156 11.264 14.5956 10.96 13.0436C12.24 12.8676 13.128 12.6516 13.624 12.3956C14.136 12.1236 14.528 11.8276 14.8 11.5076C15.088 11.1876 15.28 10.9716 15.376 10.8596V10.8116H20.608V24.0356ZM35.9174 10.8116C37.7094 10.8116 39.3014 11.1716 40.6934 11.8916C42.1014 12.5956 43.1894 13.5796 43.9574 14.8436C44.7414 16.1076 45.1334 17.5476 45.1334 19.1636C45.1334 22.3796 44.2374 24.7796 42.4454 26.3636C40.6694 27.9316 38.2694 28.7156 35.2454 28.7156C31.5654 28.7156 28.6614 27.7876 26.5334 25.9316C27.4934 24.9076 28.3734 23.7796 29.1734 22.5476C29.7974 23.0596 30.6854 23.4596 31.8374 23.7476C32.9894 24.0196 34.0374 24.1556 34.9814 24.1556C36.3734 24.1556 37.5414 23.8116 38.4854 23.1236C39.4294 22.4196 40.0054 21.4196 40.2134 20.1236C40.2294 20.0436 40.2374 19.9316 40.2374 19.7876C39.4694 20.9076 38.4534 21.7316 37.1894 22.2596C35.9254 22.7716 34.6374 23.0276 33.3254 23.0276C32.0454 23.0276 30.8854 22.7956 29.8454 22.3316C28.8054 21.8676 27.9894 21.2356 27.3974 20.4356C26.8054 19.6196 26.5094 18.7076 26.5094 17.6996C26.5094 16.2436 26.9174 14.9956 27.7334 13.9556C28.5654 12.9156 29.6934 12.1316 31.1174 11.6036C32.5414 11.0756 34.1414 10.8116 35.9174 10.8116ZM35.6774 19.2596C36.2854 19.2596 36.8454 19.1716 37.3574 18.9956C37.8854 18.8036 38.3014 18.5556 38.6054 18.2516C38.9254 17.9476 39.0854 17.6196 39.0854 17.2676C39.0854 16.7236 38.7494 16.2596 38.0774 15.8756C37.4214 15.4916 36.6214 15.2996 35.6774 15.2996C34.7334 15.2996 33.9254 15.4916 33.2534 15.8756C32.5974 16.2596 32.2694 16.7236 32.2694 17.2676C32.2694 17.8276 32.5974 18.2996 33.2534 18.6836C33.9254 19.0676 34.7334 19.2596 35.6774 19.2596ZM64.3441 19.0676C65.0481 19.3236 65.6481 19.6836 66.1441 20.1476C66.6401 20.6116 67.0081 21.1236 67.2481 21.6836C67.4881 22.2276 67.6081 22.7396 67.6081 23.2196C67.6081 25.1076 66.7681 26.4996 65.0881 27.3956C63.4241 28.2756 61.0881 28.7156 58.0801 28.7156C55.0561 28.7156 52.7041 28.2756 51.0241 27.3956C49.3441 26.4996 48.5041 25.1076 48.5041 23.2196C48.5041 22.4516 48.7761 21.6676 49.3201 20.8676C49.8801 20.0516 50.6561 19.4516 51.6481 19.0676C50.7681 18.6516 50.1041 18.1956 49.6561 17.6996C49.2241 17.1876 49.0081 16.5076 49.0081 15.6596C49.0081 14.6676 49.3521 13.7876 50.0401 13.0196C50.7281 12.2356 51.7521 11.6276 53.1121 11.1956C54.4881 10.7636 56.1441 10.5476 58.0801 10.5476C60.0001 10.5476 61.6401 10.7636 63.0001 11.1956C64.3601 11.6276 65.3841 12.2356 66.0721 13.0196C66.7601 13.7876 67.1041 14.6676 67.1041 15.6596C67.1041 16.5236 66.8721 17.2036 66.4081 17.6996C65.9601 18.1956 65.2721 18.6516 64.3441 19.0676ZM58.1281 17.6516C59.0561 17.6516 59.8241 17.4916 60.4321 17.1716C61.0561 16.8516 61.3681 16.4276 61.3681 15.8996C61.3681 15.3716 61.0561 14.9556 60.4321 14.6516C59.8081 14.3316 59.0401 14.1716 58.1281 14.1716C57.2001 14.1716 56.4241 14.3316 55.8001 14.6516C55.1761 14.9556 54.8641 15.3716 54.8641 15.8996C54.8641 16.4436 55.1761 16.8756 55.8001 17.1956C56.4241 17.4996 57.2001 17.6516 58.1281 17.6516ZM58.1281 24.3716C59.0561 24.3716 59.8241 24.2116 60.4321 23.8916C61.0561 23.5716 61.3681 23.1476 61.3681 22.6196C61.3681 22.0916 61.0561 21.6756 60.4321 21.3716C59.8081 21.0516 59.0401 20.8916 58.1281 20.8916C57.2001 20.8916 56.4241 21.0516 55.8001 21.3716C55.1761 21.6756 54.8641 22.0916 54.8641 22.6196C54.8641 23.1636 55.1761 23.5956 55.8001 23.9156C56.4241 24.2196 57.2001 24.3716 58.1281 24.3716ZM76.9915 24.2756C82.1915 23.9876 86.2235 23.6676 89.0875 23.3156C88.8155 24.1476 88.6075 25.0276 88.4635 25.9556C88.3195 26.8836 88.2475 27.7236 88.2475 28.4756H71.0875L71.0635 27.9716C71.0635 26.4036 71.5195 25.0436 72.4315 23.8916C73.3595 22.7396 74.6475 21.6756 76.2955 20.6996C76.7755 20.4116 77.5275 20.0436 78.5515 19.5956C79.8795 19.0196 80.9035 18.5156 81.6235 18.0836C82.3435 17.6356 82.7035 17.1956 82.7035 16.7636C82.7035 16.2196 82.4795 15.7876 82.0315 15.4676C81.5835 15.1476 80.8875 14.9876 79.9435 14.9876C78.9035 14.9876 78.1115 15.2516 77.5675 15.7796C77.0395 16.3076 76.7755 16.9796 76.7755 17.7956C76.7755 18.0516 76.7995 18.3156 76.8475 18.5876C74.8315 18.3316 72.8715 18.1556 70.9675 18.0596C70.9675 16.6996 71.3195 15.4756 72.0235 14.3876C72.7435 13.2836 73.8155 12.4116 75.2395 11.7716C76.6795 11.1316 78.4395 10.8116 80.5195 10.8116C82.4235 10.8116 84.0075 11.0756 85.2715 11.6036C86.5515 12.1156 87.4875 12.7716 88.0795 13.5716C88.6875 14.3556 88.9915 15.1636 88.9915 15.9956C88.9915 16.9556 88.7755 17.7796 88.3435 18.4676C87.9275 19.1556 87.3195 19.7716 86.5195 20.3156C85.7355 20.8436 84.6795 21.4196 83.3515 22.0436C83.1595 22.1396 82.8475 22.2516 82.4155 22.3796C81.9835 22.4916 81.7115 22.5636 81.5995 22.5956C80.4635 22.9316 79.5595 23.2116 78.8875 23.4356C78.2155 23.6596 77.5835 23.9396 76.9915 24.2756Z" fill="#FF005C"/>
</g>
<defs>
<filter id="filter0_d_2047_277" x="0.960938" y="0.547852" width="98.127" height="38.168" filterUnits="userSpaceOnUse" color-interpolation-filters="sRGB">
<feFlood flood-opacity="0" result="BackgroundImageFix"/>
<feColorMatrix in="SourceAlpha" type="matrix" values="0 0 0 0 0 0 0 0 0 0 0 0 0 0 0 0 0 0 127 0" result="hardAlpha"/>
<feOffset/>
<feGaussianBlur stdDeviation="5"/>
<feComposite in2="hardAlpha" operator="out"/>
<feColorMatrix type="matrix" values="0 0 0 0 1 0 0 0 0 0 0 0 0 0 0.360784 0 0 0 1 0"/>
<feBlend mode="normal" in2="BackgroundImageFix" result="effect1_dropShadow_2047_277"/>
<feBlend mode="normal" in="SourceGraphic" in2="effect1_dropShadow_2047_277" result="shape"/>
</filter>
</defs>
</svg>
