<svg width="29" height="31" viewBox="0 0 29 31" fill="none" xmlns="http://www.w3.org/2000/svg">
<g clip-path="url(#clip0_313_59)">
<path d="M14.3861 1.17578C6.79809 1.17578 0.640137 7.65261 0.640137 15.6335C0.640137 23.6144 6.79809 30.0913 14.3861 30.0913C21.974 30.0913 28.132 23.6144 28.132 15.6335C28.132 7.65261 21.974 1.17578 14.3861 1.17578ZM19.9676 22.4485C19.7348 22.4485 19.5907 22.3727 19.3745 22.2386C15.9158 20.0466 11.8918 19.9533 7.91772 20.8103C7.70155 20.8686 7.41887 20.9619 7.25813 20.9619C6.72049 20.9619 6.38239 20.513 6.38239 20.0408C6.38239 19.4403 6.72049 19.1547 7.13619 19.0614C11.6757 18.0062 16.3149 18.0995 20.2724 20.5888C20.6105 20.8161 20.8101 21.0202 20.8101 21.5507C20.8101 22.0812 20.4165 22.4485 19.9676 22.4485ZM21.4586 18.6242C21.1703 18.6242 20.9763 18.4901 20.7768 18.3793C17.3126 16.2223 12.1468 15.3537 7.5519 16.6654C7.28585 16.7412 7.14174 16.817 6.89231 16.817C6.29924 16.817 5.81703 16.3098 5.81703 15.686C5.81703 15.0622 6.10525 14.6483 6.67615 14.4792C8.21702 14.0245 9.79115 13.6864 12.0969 13.6864C15.6941 13.6864 19.1694 14.625 21.9075 16.3389C22.3565 16.6187 22.5338 16.9802 22.5338 17.4874C22.5283 18.117 22.0627 18.6242 21.4586 18.6242ZM23.1768 14.1819C22.8886 14.1819 22.7112 14.1061 22.4618 13.9546C18.5154 11.4769 11.4595 10.8823 6.89231 12.2231C6.69278 12.2814 6.44336 12.3747 6.17731 12.3747C5.44567 12.3747 4.88585 11.7742 4.88585 10.9989C4.88585 10.206 5.35144 9.75715 5.85029 9.60557C7.80132 9.00511 9.98515 8.71945 12.363 8.71945C16.4092 8.71945 20.6493 9.60557 23.7477 11.5061C24.18 11.7684 24.4627 12.1298 24.4627 12.8236C24.4627 13.6164 23.853 14.1819 23.1768 14.1819Z" fill="white"/>
</g>
<defs>
<clipPath id="clip0_313_59">
<rect width="27.4918" height="29.8482" fill="white" transform="translate(0.640137 0.708984)"/>
</clipPath>
</defs>
</svg>
