<svg width="37" height="15" viewBox="0 0 37 15" fill="none" xmlns="http://www.w3.org/2000/svg">
<path d="M6.11193 5.11292V7.51383H9.41302C9.34645 7.89657 9.20391 8.26186 8.99392 8.58788C8.78393 8.9139 8.5108 9.19394 8.19087 9.41127C7.63934 9.79251 6.93518 10.0096 6.10962 10.0096C4.51399 10.0096 3.16523 8.90897 2.68133 7.43583C2.42813 6.66081 2.42813 5.8245 2.68133 5.04948C3.16523 3.56761 4.51399 2.46697 6.10962 2.46697C6.54213 2.45886 6.97192 2.53743 7.37398 2.69811C7.77605 2.85878 8.14236 3.09836 8.4516 3.40289L10.2022 1.62069C9.09964 0.566078 7.63267 -0.0150792 6.11193 0.000297537C4.97431 0.0046925 3.86055 0.32917 2.89641 0.9371C1.93226 1.54503 1.15611 2.4122 0.655585 3.44072C0.22444 4.30993 0 5.26818 0 6.23974C0 7.21131 0.22444 8.16956 0.655585 9.03877V9.0475C1.15625 10.0754 1.9326 10.9418 2.89685 11.5487C3.8611 12.1555 4.97478 12.4787 6.11193 12.4815C7.75785 12.4815 9.14998 11.9268 10.1588 10.9735C11.3151 9.89029 11.9747 8.28735 11.9747 6.3806C11.9754 5.95597 11.9415 5.53199 11.8735 5.11292H6.11193ZM28.6247 4.8801C28.0391 4.33415 27.2412 4.0571 26.2318 4.0571C24.9334 4.0571 23.9575 4.54252 23.3123 5.50405L24.5177 6.27583C24.959 5.61619 25.5614 5.28637 26.3249 5.28637C26.811 5.28756 27.2795 5.4698 27.6402 5.79798C27.8159 5.95161 27.9568 6.14142 28.0535 6.35459C28.1501 6.56776 28.2002 6.79932 28.2004 7.03364V7.35435C27.6743 7.05925 27.0123 6.90327 26.1977 6.90327C25.2473 6.90327 24.4836 7.1291 23.9147 7.58833C23.3458 8.04755 23.0579 8.65404 23.0579 9.42524C23.049 9.7699 23.1168 10.1122 23.2562 10.4271C23.3957 10.742 23.6033 11.0216 23.8638 11.2453C24.3986 11.7307 25.0779 11.9734 25.8751 11.9734C26.8169 11.9734 27.5638 11.5485 28.1298 10.6993H28.1876V11.7307H29.4948V7.15005C29.4988 6.18678 29.2103 5.42373 28.6247 4.8801ZM27.513 10.0777C27.3125 10.2831 27.0734 10.4463 26.8097 10.5578C26.546 10.6693 26.2629 10.7269 25.9769 10.7273C25.5924 10.7337 25.2177 10.6051 24.9172 10.3635C24.777 10.2577 24.6633 10.1203 24.5853 9.96233C24.5073 9.80435 24.4671 9.63018 24.468 9.45376C24.468 9.04633 24.6541 8.70817 25.0195 8.43985C25.3849 8.17153 25.8595 8.03242 26.4111 8.03242C27.1719 8.02311 27.7673 8.19772 28.1917 8.54345C28.1917 9.13306 27.9627 9.64408 27.513 10.0777ZM22.0988 1.81276C21.792 1.50399 21.4265 1.26079 21.024 1.09776C20.6216 0.934737 20.1906 0.855239 19.7568 0.864042H16.1337V11.733H17.4998V7.33048H19.7545C20.6795 7.33048 21.46 7.01851 22.0965 6.4033C22.1474 6.3515 22.1983 6.29911 22.2497 6.24731C22.8068 5.63523 23.1031 4.82752 23.0749 3.99783C23.0466 3.16814 22.6962 2.38272 22.0988 1.81044V1.81276ZM21.1403 5.43479C20.9681 5.61986 20.7586 5.76584 20.526 5.863C20.2933 5.96015 20.0427 6.00624 19.7909 5.9982H17.4998V2.20273H19.7909C20.2799 2.20095 20.7496 2.39409 21.0975 2.73995C21.4514 3.0948 21.6539 3.57465 21.6619 4.07746C21.6699 4.58027 21.4828 5.06639 21.1403 5.43246V5.43479ZM35.5148 4.29807L33.4023 9.63535H33.3763L31.213 4.29807H29.7278L32.7219 11.2563L31.0251 15H32.4328L37 4.29807H35.5148Z" fill="white"/>
</svg>
