<svg width="30" height="25" viewBox="0 0 30 25" fill="none" xmlns="http://www.w3.org/2000/svg">
<g clip-path="url(#clip0_1165_1028)">
<path d="M14.8629 20.9552C14.5953 20.9552 14.3265 20.9077 14.0565 20.8129C13.7864 20.718 13.5488 20.5695 13.3437 20.3671L11.5481 18.7571C9.33174 16.7638 7.35297 14.8056 5.61178 12.8826C3.87059 10.9596 3 8.89952 3 6.70229C3 4.95241 3.59816 3.48745 4.79447 2.30741C5.99078 1.12737 7.47595 0.537354 9.24997 0.537354C10.258 0.537354 11.2536 0.766568 12.2368 1.225C13.2199 1.68342 14.0993 2.42796 14.875 3.45862C15.6506 2.42796 16.53 1.68342 17.5132 1.225C18.4964 0.766568 19.492 0.537354 20.5 0.537354C22.274 0.537354 23.7592 1.12737 24.9555 2.30741C26.1518 3.48745 26.7499 4.95241 26.7499 6.70229C26.7499 8.92324 25.8645 11.0063 24.0937 12.9514C22.3229 14.8965 20.3485 16.8381 18.1706 18.7761L16.3942 20.3671C16.1891 20.5695 15.9495 20.718 15.6754 20.8129C15.4014 20.9077 15.1306 20.9552 14.8629 20.9552ZM13.9759 5.33179C13.2997 4.31535 12.5877 3.57042 11.8401 3.09699C11.0925 2.62354 10.2291 2.38681 9.24997 2.38681C7.99997 2.38681 6.9583 2.79781 6.12497 3.61981C5.29164 4.4418 4.87497 5.4693 4.87497 6.70229C4.87497 7.69185 5.19828 8.72645 5.84491 9.8061C6.49153 10.8858 7.30322 11.9591 8.27997 13.0261C9.25674 14.0931 10.3148 15.1356 11.4543 16.1536C12.5937 17.1716 13.6498 18.1177 14.6225 18.9919C14.6947 19.0551 14.7788 19.0868 14.875 19.0868C14.9711 19.0868 15.0553 19.0551 15.1274 18.9919C16.1002 18.1177 17.1563 17.1716 18.2957 16.1536C19.4351 15.1356 20.4932 14.0931 21.47 13.0261C22.4467 11.9591 23.2584 10.8858 23.905 9.8061C24.5517 8.72645 24.875 7.69185 24.875 6.70229C24.875 5.4693 24.4583 4.4418 23.625 3.61981C22.7916 2.79781 21.75 2.38681 20.5 2.38681C19.5208 2.38681 18.6574 2.62354 17.9098 3.09699C17.1622 3.57042 16.4503 4.31535 15.774 5.33179C15.6682 5.48986 15.5352 5.60842 15.375 5.68747C15.2147 5.76651 15.048 5.80603 14.875 5.80603C14.7019 5.80603 14.5352 5.76651 14.375 5.68747C14.2147 5.60842 14.0817 5.48986 13.9759 5.33179Z" fill="black"/>
</g>
<defs>
<clipPath id="clip0_1165_1028">
<rect width="30" height="23.9011" fill="white" transform="translate(0 0.461548)"/>
</clipPath>
</defs>
</svg>
