<svg width="38" height="30" viewBox="0 0 38 30" fill="none" xmlns="http://www.w3.org/2000/svg">
<path d="M19.4746 15.1666C17.9506 15.1666 16.6461 14.6362 15.5608 13.5755C14.4756 12.5147 13.9329 11.2396 13.9329 9.75C13.9329 8.26042 14.4756 6.98526 15.5608 5.92452C16.6461 4.86376 17.9506 4.33337 19.4746 4.33337C20.9985 4.33337 22.3031 4.86376 23.3883 5.92452C24.4736 6.98526 25.0162 8.26042 25.0162 9.75C25.0162 11.2396 24.4736 12.5147 23.3883 13.5755C22.3031 14.6362 20.9985 15.1666 19.4746 15.1666ZM7.59961 24.6011V23.5119C7.59961 22.7539 7.81022 22.0521 8.23144 21.4062C8.65263 20.7604 9.21541 20.2639 9.91979 19.9167C11.4849 19.1667 13.0636 18.6042 14.6561 18.2292C16.2486 17.8542 17.8547 17.6667 19.4746 17.6667C21.0944 17.6667 22.7006 17.8542 24.293 18.2292C25.8855 18.6042 27.4643 19.1667 29.0294 19.9167C29.7337 20.2639 30.2965 20.7604 30.7177 21.4062C31.1389 22.0521 31.3495 22.7539 31.3495 23.5119V24.6011C31.3495 25.2539 31.1156 25.8089 30.6477 26.2663C30.1798 26.7236 29.612 26.9523 28.9441 26.9523H10.005C9.33719 26.9523 8.76934 26.7236 8.30146 26.2663C7.83356 25.8089 7.59961 25.2539 7.59961 24.6011ZM9.97457 24.6309H28.9746V23.5119C28.9746 23.1984 28.8817 22.9082 28.6959 22.6413C28.5102 22.3745 28.258 22.1567 27.9393 21.988C26.5752 21.3313 25.1843 20.8338 23.7665 20.4955C22.3487 20.1572 20.9181 19.988 19.4746 19.988C18.031 19.988 16.6004 20.1572 15.1826 20.4955C13.7649 20.8338 12.3739 21.3313 11.0098 21.988C10.6911 22.1567 10.4389 22.3745 10.2532 22.6413C10.0674 22.9082 9.97457 23.1984 9.97457 23.5119V24.6309ZM19.4746 12.8452C20.3454 12.8452 21.0909 12.5422 21.711 11.936C22.3312 11.3299 22.6412 10.6012 22.6412 9.75C22.6412 8.89881 22.3312 8.17014 21.711 7.56399C21.0909 6.95784 20.3454 6.65476 19.4746 6.65476C18.6037 6.65476 17.8582 6.95784 17.2381 7.56399C16.618 8.17014 16.3079 8.89881 16.3079 9.75C16.3079 10.6012 16.618 11.3299 17.2381 11.936C17.8582 12.5422 18.6037 12.8452 19.4746 12.8452Z" fill="black"/>
</svg>
