<svg width="25" height="25" viewBox="0 0 25 25" fill="none" xmlns="http://www.w3.org/2000/svg">
<g clip-path="url(#clip0_1165_1037)">
<path d="M10.027 14.4139C8.06306 14.4139 6.4009 13.7429 5.04054 12.4011C3.68018 11.0592 3 9.41969 3 7.48245C3 5.5452 3.68018 3.90566 5.04054 2.5638C6.4009 1.22195 8.06306 0.551025 10.027 0.551025C11.991 0.551025 13.6532 1.22195 15.0135 2.5638C16.3739 3.90566 17.0541 5.5452 17.0541 7.48245C17.0541 8.26445 16.9279 9.00203 16.6757 9.69517C16.4234 10.3883 16.0811 11.0015 15.6486 11.5347L21.7027 17.5063C21.9009 17.7019 22 17.9507 22 18.2528C22 18.5549 21.9009 18.8038 21.7027 18.9993C21.5045 19.1948 21.2523 19.2925 20.9459 19.2925C20.6396 19.2925 20.3874 19.1948 20.1892 18.9993L14.1351 13.0276C13.5946 13.4541 12.973 13.7918 12.2703 14.0406C11.5676 14.2895 10.8198 14.4139 10.027 14.4139ZM10.027 12.2811C11.3784 12.2811 12.527 11.8146 13.473 10.8815C14.4189 9.94843 14.8919 8.81541 14.8919 7.48245C14.8919 6.14948 14.4189 5.01646 13.473 4.08338C12.527 3.15031 11.3784 2.68377 10.027 2.68377C8.67568 2.68377 7.52703 3.15031 6.58108 4.08338C5.63514 5.01646 5.16216 6.14948 5.16216 7.48245C5.16216 8.81541 5.63514 9.94843 6.58108 10.8815C7.52703 11.8146 8.67568 12.2811 10.027 12.2811Z" fill="black"/>
</g>
<defs>
<clipPath id="clip0_1165_1037">
<rect width="25" height="23.9011" fill="white" transform="translate(0 0.551025)"/>
</clipPath>
</defs>
</svg>
