<svg width="33" height="33" viewBox="0 0 33 33" fill="none" xmlns="http://www.w3.org/2000/svg">
<path d="M16 23C15.7848 23 15.583 22.9714 15.3946 22.9141C15.2063 22.8569 15.0314 22.7595 14.87 22.6221L7.44395 16.3015C7.14798 16.0496 7 15.729 7 15.3397C7 14.9504 7.14798 14.6298 7.44395 14.3779C7.73991 14.126 8.11659 14 8.57399 14C9.03139 14 9.40807 14.126 9.70404 14.3779L16 19.7366L22.296 14.3779C22.5919 14.126 22.9686 14 23.426 14C23.8834 14 24.2601 14.126 24.5561 14.3779C24.852 14.6298 25 14.9504 25 15.3397C25 15.729 24.852 16.0496 24.5561 16.3015L17.13 22.6221C16.9686 22.7595 16.7937 22.8569 16.6054 22.9141C16.417 22.9714 16.2152 23 16 23Z" fill="white"/>
</svg>
