<svg width="46" height="46" viewBox="0 0 46 46" fill="none" xmlns="http://www.w3.org/2000/svg">
<path d="M23.0006 39.7708C22.5931 39.7708 22.2518 39.6331 21.9766 39.3575C21.7014 39.0821 21.5638 38.7407 21.5638 38.3334V30.6667C21.5638 30.2594 21.7016 29.918 21.9772 29.6425C22.2529 29.367 22.5944 29.2293 23.0019 29.2293C23.4094 29.2293 23.7507 29.367 24.0259 29.6425C24.3011 29.918 24.4387 30.2594 24.4387 30.6667V33.0626H38.3346C38.7419 33.0626 39.0833 33.2004 39.3588 33.476C39.6343 33.7517 39.772 34.0932 39.772 34.5007C39.772 34.9081 39.6343 35.2495 39.3588 35.5247C39.0833 35.7999 38.7419 35.9375 38.3346 35.9375H24.4387V38.3334C24.4387 38.7407 24.3009 39.0821 24.0253 39.3575C23.7496 39.6331 23.4081 39.7708 23.0006 39.7708ZM7.66792 35.9375C7.26063 35.9375 6.91924 35.7997 6.64375 35.5241C6.36823 35.2484 6.23047 34.9069 6.23047 34.4994C6.23047 34.0919 6.36823 33.7506 6.64375 33.4754C6.91924 33.2002 7.26063 33.0626 7.66792 33.0626H15.3346C15.7419 33.0626 16.0833 33.2004 16.3588 33.476C16.6343 33.7517 16.772 34.0932 16.772 34.5007C16.772 34.9081 16.6343 35.2495 16.3588 35.5247C16.0833 35.7999 15.7419 35.9375 15.3346 35.9375H7.66792ZM15.334 28.2708C14.9265 28.2708 14.5851 28.1331 14.3099 27.8575C14.0347 27.5821 13.8971 27.2407 13.8971 26.8334V24.4375H7.66792C7.26063 24.4375 6.91924 24.2997 6.64375 24.0241C6.36823 23.7484 6.23047 23.4069 6.23047 22.9994C6.23047 22.5919 6.36823 22.2506 6.64375 21.9754C6.91924 21.7002 7.26063 21.5626 7.66792 21.5626H13.8971V19.1667C13.8971 18.7594 14.0349 18.418 14.3106 18.1425C14.5862 17.867 14.9278 17.7292 15.3352 17.7292C15.7427 17.7292 16.084 17.867 16.3592 18.1425C16.6344 18.418 16.772 18.7594 16.772 19.1667V26.8334C16.772 27.2407 16.6342 27.5821 16.3586 27.8575C16.083 28.1331 15.7414 28.2708 15.334 28.2708ZM23.0013 24.4375C22.594 24.4375 22.2526 24.2997 21.9771 24.0241C21.7016 23.7484 21.5638 23.4069 21.5638 22.9994C21.5638 22.5919 21.7016 22.2506 21.9771 21.9754C22.2526 21.7002 22.594 21.5626 23.0013 21.5626H38.3346C38.7419 21.5626 39.0833 21.7004 39.3588 21.976C39.6343 22.2517 39.772 22.5932 39.772 23.0007C39.772 23.4081 39.6343 23.7495 39.3588 24.0247C39.0833 24.2999 38.7419 24.4375 38.3346 24.4375H23.0013ZM30.6673 16.7708C30.2598 16.7708 29.9185 16.6331 29.6433 16.3576C29.3681 16.0821 29.2305 15.7407 29.2305 15.3334V7.6667C29.2305 7.25941 29.3683 6.918 29.6439 6.64248C29.9195 6.36699 30.2611 6.22925 30.6685 6.22925C31.076 6.22925 31.4174 6.36699 31.6926 6.64248C31.9678 6.918 32.1054 7.25941 32.1054 7.6667V10.0626H38.3346C38.7419 10.0626 39.0833 10.2004 39.3588 10.476C39.6343 10.7517 39.772 11.0932 39.772 11.5007C39.772 11.9081 39.6343 12.2495 39.3588 12.5247C39.0833 12.7999 38.7419 12.9375 38.3346 12.9375H32.1054V15.3334C32.1054 15.7407 31.9676 16.0821 31.692 16.3576C31.4163 16.6331 31.0748 16.7708 30.6673 16.7708ZM7.66792 12.9375C7.26063 12.9375 6.91924 12.7997 6.64375 12.5241C6.36823 12.2484 6.23047 11.9069 6.23047 11.4994C6.23047 11.0919 6.36823 10.7506 6.64375 10.4754C6.91924 10.2002 7.26063 10.0626 7.66792 10.0626H23.0013C23.4085 10.0626 23.7499 10.2004 24.0254 10.476C24.3009 10.7517 24.4387 11.0932 24.4387 11.5007C24.4387 11.9081 24.3009 12.2495 24.0254 12.5247C23.7499 12.7999 23.4085 12.9375 23.0013 12.9375H7.66792Z" fill="white"/>
</svg>
