<svg width="24" height="22" viewBox="0 0 24 22" fill="none" xmlns="http://www.w3.org/2000/svg">
<path d="M11.9879 21.6369C11.7203 21.6369 11.4515 21.5889 11.1815 21.4927C10.9114 21.3965 10.6738 21.2459 10.4687 21.0408L8.67309 19.4086C6.45674 17.3878 4.47797 15.4026 2.73678 13.4531C0.995594 11.5035 0.125 9.41501 0.125 7.18747C0.125 5.41345 0.723156 3.92828 1.91947 2.73197C3.11578 1.53566 4.60095 0.9375 6.37497 0.9375C7.38297 0.9375 8.37856 1.16988 9.36175 1.63463C10.3449 2.09938 11.2243 2.85419 12 3.89906C12.7756 2.85419 13.655 2.09938 14.6382 1.63463C15.6214 1.16988 16.617 0.9375 17.625 0.9375C19.399 0.9375 20.8842 1.53566 22.0805 2.73197C23.2768 3.92828 23.8749 5.41345 23.8749 7.18747C23.8749 9.43905 22.9895 11.5508 21.2187 13.5228C19.4479 15.4947 17.4735 17.4631 15.2956 19.4278L13.5192 21.0408C13.3141 21.2459 13.0745 21.3965 12.8004 21.4927C12.5264 21.5889 12.2556 21.6369 11.9879 21.6369ZM11.1009 5.79806C10.4247 4.7676 9.71273 4.0124 8.96513 3.53244C8.21752 3.05246 7.35414 2.81247 6.37497 2.81247C5.12497 2.81247 4.0833 3.22914 3.24997 4.06247C2.41664 4.8958 1.99997 5.93747 1.99997 7.18747C1.99997 8.19068 2.32328 9.23955 2.96991 10.3341C3.61653 11.4286 4.42822 12.5168 5.40497 13.5985C6.38174 14.6802 7.43983 15.7371 8.57925 16.7692C9.71867 17.8012 10.7748 18.7603 11.7475 19.6466C11.8197 19.7107 11.9038 19.7428 12 19.7428C12.0961 19.7428 12.1803 19.7107 12.2524 19.6466C13.2252 18.7603 14.2813 17.8012 15.4207 16.7692C16.5601 15.7371 17.6182 14.6802 18.595 13.5985C19.5717 12.5168 20.3834 11.4286 21.03 10.3341C21.6767 9.23955 22 8.19068 22 7.18747C22 5.93747 21.5833 4.8958 20.75 4.06247C19.9166 3.22914 18.875 2.81247 17.625 2.81247C16.6458 2.81247 15.7824 3.05246 15.0348 3.53244C14.2872 4.0124 13.5753 4.7676 12.899 5.79806C12.7932 5.95831 12.6602 6.07851 12.5 6.15866C12.3397 6.23878 12.173 6.27884 12 6.27884C11.8269 6.27884 11.6602 6.23878 11.5 6.15866C11.3397 6.07851 11.2067 5.95831 11.1009 5.79806Z" fill="black"/>
</svg>
