<svg width="424" height="31" viewBox="0 0 424 31" fill="none" xmlns="http://www.w3.org/2000/svg">
<path d="M37.025 1.686L40.067 30H29.966L29.342 9.798L25.442 30H15.224L11.246 9.954L10.661 30H0.56L3.602 1.686H16.862L20.255 20.133L23.219 1.686H37.025ZM66.2662 1.647H75.9382V17.169C75.8862 20.991 74.5732 24.15 71.9992 26.646C69.4512 29.142 65.1482 30.39 59.0902 30.39C52.9542 30.39 48.7552 29.207 46.4932 26.841C44.2312 24.449 43.1262 21.316 43.1782 17.442V1.647H52.8502V16.818C52.8502 17.962 52.9282 18.898 53.0842 19.626C53.2662 20.328 53.8122 20.991 54.7222 21.615C55.6582 22.239 57.1532 22.551 59.2072 22.551C61.4432 22.551 63.0812 22.239 64.1212 21.615C65.1612 20.965 65.7722 20.25 65.9542 19.47C66.1622 18.69 66.2662 17.689 66.2662 16.467V1.647ZM79.0551 26.646C79.9391 25.32 80.6671 24.085 81.2391 22.941C81.8371 21.797 82.4091 20.471 82.9551 18.963C84.8011 20.029 86.9461 20.861 89.3901 21.459C91.8341 22.057 94.1091 22.356 96.2151 22.356C98.3731 22.356 99.8941 22.174 100.778 21.81C101.662 21.42 102.104 21.004 102.104 20.562C102.104 18.976 99.6861 18.183 94.8501 18.183C89.5461 18.183 85.6981 17.637 83.3061 16.545C80.9141 15.427 79.7181 13.633 79.7181 11.163C79.7181 7.653 81.1741 5.066 84.0861 3.402C86.9981 1.738 90.7811 0.905998 95.4351 0.905998C98.1391 0.905998 100.908 1.257 103.742 1.959C106.602 2.635 109.176 3.571 111.464 4.767C110.71 6.483 109.917 8.576 109.085 11.046C108.929 11.566 108.799 11.956 108.695 12.216C107.369 11.15 105.367 10.266 102.689 9.564C100.011 8.836 97.6451 8.472 95.5911 8.472C93.1211 8.472 91.4571 8.641 90.5991 8.979C89.7411 9.291 89.3121 9.759 89.3121 10.383C89.3121 11.007 89.8971 11.514 91.0671 11.904C92.2631 12.268 93.9791 12.45 96.2151 12.45C101.727 12.45 105.731 13.087 108.227 14.361C110.723 15.609 111.971 17.533 111.971 20.133C111.971 23.773 110.645 26.399 107.993 28.011C105.341 29.597 101.324 30.39 95.9421 30.39C93.0561 30.39 90.1181 30.078 87.1281 29.454C84.1381 28.804 81.4471 27.868 79.0551 26.646ZM137.743 9.447C134.649 9.291 132.361 9.2 130.879 9.174V22.512C132.387 22.486 134.675 22.395 137.743 22.239V30H115.084V22.239C118.074 22.395 120.349 22.486 121.909 22.512V9.174C120.349 9.2 118.074 9.291 115.084 9.447V1.686H137.743V9.447ZM158.029 30.39C152.153 30.39 147.824 29.142 145.042 26.646C142.26 24.15 140.869 20.588 140.869 15.96C140.869 11.306 142.26 7.627 145.042 4.923C147.824 2.219 152.153 0.866998 158.029 0.866998C166.245 0.866998 171.744 3.688 174.526 9.33C172.186 10.136 169.443 11.345 166.297 12.957C165.543 11.501 164.347 10.422 162.709 9.72C161.097 9.018 159.446 8.667 157.756 8.667C155.26 8.667 153.401 9.33 152.179 10.656C150.957 11.956 150.346 13.568 150.346 15.492C150.346 17.572 150.996 19.275 152.296 20.601C153.622 21.901 155.637 22.551 158.341 22.551C160.499 22.551 162.215 22.2 163.489 21.498C164.763 20.77 165.699 19.626 166.297 18.066C168.429 19.21 171.159 20.497 174.487 21.927C173.187 25.073 171.016 27.27 167.974 28.518C164.932 29.766 161.617 30.39 158.029 30.39ZM213.547 19.353L215.575 1.686H225.091L219.865 30H207.892L205.24 14.205L202.159 30H190.693L185.467 1.686H194.983L196.972 19.119L200.092 1.686H210.505L213.547 19.353ZM237.404 22.863C247.284 22.811 254.447 22.668 258.893 22.434C258.711 23.5 258.594 24.605 258.542 25.749C258.516 26.867 258.503 28.284 258.503 30H228.2C228.408 24.956 228.512 20.237 228.512 15.843C228.512 11.449 228.408 6.73 228.2 1.686H258.503V8.745H237.404V12.489C238.652 12.515 240.498 12.528 242.942 12.528C247.076 12.528 251.353 12.45 255.773 12.294V19.002C251.353 18.846 247.076 18.768 242.942 18.768C240.498 18.768 238.652 18.781 237.404 18.807V22.863ZM271.224 22.863C281.104 22.811 288.267 22.668 292.713 22.434C292.531 23.5 292.414 24.605 292.362 25.749C292.336 26.867 292.323 28.284 292.323 30H262.02C262.228 24.956 262.332 20.237 262.332 15.843C262.332 11.449 262.228 6.73 262.02 1.686H292.323V8.745H271.224V12.489C272.472 12.515 274.318 12.528 276.762 12.528C280.896 12.528 285.173 12.45 289.593 12.294V19.002C285.173 18.846 280.896 18.768 276.762 18.768C274.318 18.768 272.472 18.781 271.224 18.807V22.863ZM305.356 22.122C312.896 22.07 319.136 21.94 324.076 21.732C323.738 23.058 323.53 24.332 323.452 25.554C323.374 26.776 323.335 28.258 323.335 30H295.84C296.048 24.956 296.152 20.237 296.152 15.843C296.152 11.449 296.048 6.73 295.84 1.686H305.356V22.122ZM346.781 30C345.559 27.79 343.531 24.41 340.697 19.86L336.134 24.384V30H326.423C326.631 24.956 326.735 20.237 326.735 15.843C326.735 11.449 326.631 6.73 326.423 1.686H336.134V13.113C340.918 8.381 344.324 4.572 346.352 1.686H358.988L346.703 13.854C348.523 16.402 350.564 19.171 352.826 22.161C355.114 25.151 357.181 27.764 359.027 30H346.781ZM371.664 22.122C379.204 22.07 385.444 21.94 390.384 21.732C390.046 23.058 389.838 24.332 389.76 25.554C389.682 26.776 389.643 28.258 389.643 30H362.148C362.356 24.956 362.46 20.237 362.46 15.843C362.46 11.449 362.356 6.73 362.148 1.686H371.664V22.122ZM423.137 1.686L422.396 2.817C419.614 7.133 417.222 10.955 415.22 14.283C413.244 17.585 411.593 20.627 410.267 23.409V30H400.088V22.746C399.126 20.796 397.995 18.794 396.695 16.74C395.395 14.66 393.549 11.813 391.157 8.199C389.285 5.443 387.855 3.272 386.867 1.686H397.787C398.567 3.272 399.841 5.625 401.609 8.745C403.377 11.917 404.586 14.153 405.236 15.453C406.146 13.555 407.368 11.228 408.902 8.472C410.696 5.248 411.905 2.986 412.529 1.686H423.137Z" fill="white"/>
</svg>
