<svg width="578" height="37" viewBox="0 0 578 37" fill="none" xmlns="http://www.w3.org/2000/svg">
<path d="M45.8 1.152L49.544 36H37.112L36.344 11.136L31.544 36H18.968L14.072 11.328L13.352 36H0.92L4.664 1.152H20.984L25.16 23.856L28.808 1.152H45.8ZM81.7891 1.104H93.6931V20.208C93.6291 24.912 92.0131 28.8 88.8451 31.872C85.7091 34.944 80.4131 36.48 72.9571 36.48C65.4051 36.48 60.2371 35.024 57.4531 32.112C54.6691 29.168 53.3091 25.312 53.3731 20.544V1.104H65.2771V19.776C65.2771 21.184 65.3731 22.336 65.5651 23.232C65.7891 24.096 66.4611 24.912 67.5811 25.68C68.7331 26.448 70.5731 26.832 73.1011 26.832C75.8531 26.832 77.8691 26.448 79.1491 25.68C80.4291 24.88 81.1811 24 81.4051 23.04C81.6611 22.08 81.7891 20.848 81.7891 19.344V1.104ZM97.5294 31.872C98.6174 30.24 99.5134 28.72 100.217 27.312C100.953 25.904 101.657 24.272 102.329 22.416C104.601 23.728 107.241 24.752 110.249 25.488C113.257 26.224 116.057 26.592 118.649 26.592C121.305 26.592 123.177 26.368 124.265 25.92C125.353 25.44 125.897 24.928 125.897 24.384C125.897 22.432 122.921 21.456 116.969 21.456C110.441 21.456 105.705 20.784 102.761 19.44C99.8174 18.064 98.3454 15.856 98.3454 12.816C98.3454 8.496 100.137 5.312 103.721 3.264C107.305 1.216 111.961 0.191998 117.689 0.191998C121.017 0.191998 124.425 0.623998 127.913 1.488C131.433 2.32 134.601 3.472 137.417 4.944C136.489 7.056 135.513 9.632 134.489 12.672C134.297 13.312 134.137 13.792 134.009 14.112C132.377 12.8 129.913 11.712 126.617 10.848C123.321 9.952 120.409 9.504 117.881 9.504C114.841 9.504 112.793 9.712 111.737 10.128C110.681 10.512 110.153 11.088 110.153 11.856C110.153 12.624 110.873 13.248 112.313 13.728C113.785 14.176 115.897 14.4 118.649 14.4C125.433 14.4 130.361 15.184 133.433 16.752C136.505 18.288 138.041 20.656 138.041 23.856C138.041 28.336 136.409 31.568 133.145 33.552C129.881 35.504 124.937 36.48 118.313 36.48C114.761 36.48 111.145 36.096 107.465 35.328C103.785 34.528 100.473 33.376 97.5294 31.872ZM169.761 10.704C165.953 10.512 163.137 10.4 161.313 10.368V26.784C163.169 26.752 165.985 26.64 169.761 26.448V36H141.873V26.448C145.553 26.64 148.353 26.752 150.273 26.784V10.368C148.353 10.4 145.553 10.512 141.873 10.704V1.152H169.761V10.704ZM194.728 36.48C187.496 36.48 182.168 34.944 178.743 31.872C175.32 28.8 173.608 24.416 173.608 18.72C173.608 12.992 175.32 8.464 178.743 5.136C182.168 1.808 187.496 0.143998 194.728 0.143998C204.84 0.143998 211.608 3.616 215.032 10.56C212.152 11.552 208.776 13.04 204.904 15.024C203.976 13.232 202.504 11.904 200.488 11.04C198.504 10.176 196.472 9.744 194.392 9.744C191.32 9.744 189.032 10.56 187.528 12.192C186.024 13.792 185.272 15.776 185.272 18.144C185.272 20.704 186.072 22.8 187.672 24.432C189.304 26.032 191.784 26.832 195.112 26.832C197.768 26.832 199.88 26.4 201.448 25.536C203.016 24.64 204.168 23.232 204.904 21.312C207.528 22.72 210.888 24.304 214.984 26.064C213.384 29.936 210.712 32.64 206.968 34.176C203.224 35.712 199.144 36.48 194.728 36.48ZM250.29 1.2C256.658 1.2 261.09 2.336 263.586 4.608C266.082 6.848 267.33 10.016 267.33 14.112C267.33 16.928 266.834 19.328 265.842 21.312C264.85 23.264 263.106 24.8 260.61 25.92C258.114 27.008 254.674 27.552 250.29 27.552H240.306V36H228.498C228.754 29.792 228.882 23.984 228.882 18.576C228.882 13.168 228.754 7.36 228.498 1.152H240.306V1.2H250.29ZM246.93 18.288C249.586 18.288 251.57 18.192 252.882 18C254.226 17.776 255.154 17.392 255.666 16.848C256.21 16.304 256.482 15.504 256.482 14.448C256.482 13.392 256.226 12.608 255.714 12.096C255.234 11.552 254.322 11.184 252.978 10.992C251.666 10.8 249.65 10.704 246.93 10.704H240.306V18.288H246.93ZM309.698 12.768C309.698 15.552 309.01 17.904 307.634 19.824C306.29 21.744 303.97 23.136 300.674 24C301.058 24.512 301.33 24.912 301.49 25.2L309.266 36H296.21C294.802 33.376 292.578 29.664 289.538 24.864H282.482V36H271.154C271.41 29.792 271.538 23.984 271.538 18.576C271.538 13.168 271.41 7.36 271.154 1.152H282.482V1.2H292.322C298.786 1.2 303.298 2.24 305.858 4.32C308.418 6.4 309.698 9.216 309.698 12.768ZM282.482 10.416V15.888H288.962C291.682 15.888 293.73 15.808 295.106 15.648C296.514 15.456 297.49 15.168 298.034 14.784C298.578 14.4 298.85 13.84 298.85 13.104C298.85 12.4 298.594 11.856 298.082 11.472C297.57 11.088 296.61 10.816 295.202 10.656C293.794 10.496 291.714 10.416 288.962 10.416H282.482ZM334.889 36.48C327.561 36.48 322.169 34.896 318.713 31.728C315.257 28.528 313.529 24.048 313.529 18.288C313.529 12.592 315.241 8.144 318.665 4.944C322.121 1.744 327.529 0.143998 334.889 0.143998C342.281 0.143998 347.689 1.744 351.113 4.944C354.569 8.144 356.297 12.592 356.297 18.288C356.297 24.08 354.585 28.56 351.161 31.728C347.737 34.896 342.313 36.48 334.889 36.48ZM334.889 26.688C338.441 26.688 341.001 26.016 342.569 24.672C344.137 23.296 344.921 21.168 344.921 18.288C344.921 15.472 344.137 13.376 342.569 12C341.001 10.624 338.441 9.936 334.889 9.936C331.369 9.936 328.825 10.624 327.257 12C325.689 13.376 324.905 15.472 324.905 18.288C324.905 21.136 325.689 23.248 327.257 24.624C328.825 26 331.369 26.688 334.889 26.688ZM375.483 0.623998C381.499 0.623998 386.251 1.36 389.739 2.832C393.227 4.272 395.659 6.288 397.035 8.88C398.443 11.44 399.147 14.592 399.147 18.336C399.147 21.888 398.347 24.992 396.747 27.648C395.147 30.304 392.747 32.368 389.547 33.84C386.347 35.28 382.411 36 377.739 36C374.891 36 371.995 36 369.051 36C366.107 36 363.131 35.984 360.123 35.952C360.379 29.648 360.507 23.776 360.507 18.336C360.507 12.832 360.379 7.088 360.123 1.104C363.931 0.783998 369.051 0.623998 375.483 0.623998ZM379.083 26.448C382.059 26.448 384.043 25.728 385.035 24.288C386.027 22.848 386.523 20.864 386.523 18.336C386.523 15.904 385.995 13.936 384.939 12.432C383.915 10.928 381.963 10.176 379.083 10.176C375.979 10.176 373.659 10.272 372.123 10.464V26.448H379.083ZM431.383 1.104H443.287V20.208C443.223 24.912 441.607 28.8 438.439 31.872C435.303 34.944 430.007 36.48 422.551 36.48C414.999 36.48 409.831 35.024 407.047 32.112C404.263 29.168 402.903 25.312 402.967 20.544V1.104H414.871V19.776C414.871 21.184 414.967 22.336 415.159 23.232C415.383 24.096 416.055 24.912 417.175 25.68C418.327 26.448 420.167 26.832 422.695 26.832C425.447 26.832 427.463 26.448 428.743 25.68C430.023 24.88 430.775 24 430.999 23.04C431.255 22.08 431.383 20.848 431.383 19.344V1.104ZM468.243 36.48C461.011 36.48 455.683 34.944 452.259 31.872C448.835 28.8 447.123 24.416 447.123 18.72C447.123 12.992 448.835 8.464 452.259 5.136C455.683 1.808 461.011 0.143998 468.243 0.143998C478.355 0.143998 485.123 3.616 488.547 10.56C485.667 11.552 482.291 13.04 478.419 15.024C477.491 13.232 476.019 11.904 474.003 11.04C472.019 10.176 469.987 9.744 467.907 9.744C464.835 9.744 462.547 10.56 461.043 12.192C459.539 13.792 458.787 15.776 458.787 18.144C458.787 20.704 459.587 22.8 461.187 24.432C462.819 26.032 465.299 26.832 468.627 26.832C471.283 26.832 473.395 26.4 474.963 25.536C476.531 24.64 477.683 23.232 478.419 21.312C481.043 22.72 484.403 24.304 488.499 26.064C486.899 29.936 484.227 32.64 480.483 34.176C476.739 35.712 472.659 36.48 468.243 36.48ZM533.636 11.232C528.612 11.072 523.732 10.976 518.996 10.944V36H506.996V10.944C502.228 10.976 497.364 11.072 492.404 11.232V1.152H533.636V11.232ZM537.498 31.872C538.586 30.24 539.482 28.72 540.186 27.312C540.922 25.904 541.626 24.272 542.298 22.416C544.57 23.728 547.21 24.752 550.218 25.488C553.226 26.224 556.026 26.592 558.618 26.592C561.274 26.592 563.146 26.368 564.234 25.92C565.322 25.44 565.866 24.928 565.866 24.384C565.866 22.432 562.89 21.456 556.938 21.456C550.41 21.456 545.674 20.784 542.73 19.44C539.786 18.064 538.314 15.856 538.314 12.816C538.314 8.496 540.106 5.312 543.69 3.264C547.274 1.216 551.93 0.191998 557.658 0.191998C560.986 0.191998 564.394 0.623998 567.882 1.488C571.402 2.32 574.57 3.472 577.386 4.944C576.458 7.056 575.482 9.632 574.458 12.672C574.266 13.312 574.106 13.792 573.978 14.112C572.346 12.8 569.882 11.712 566.586 10.848C563.29 9.952 560.378 9.504 557.85 9.504C554.81 9.504 552.762 9.712 551.706 10.128C550.65 10.512 550.122 11.088 550.122 11.856C550.122 12.624 550.842 13.248 552.282 13.728C553.754 14.176 555.866 14.4 558.618 14.4C565.402 14.4 570.33 15.184 573.402 16.752C576.474 18.288 578.01 20.656 578.01 23.856C578.01 28.336 576.378 31.568 573.114 33.552C569.85 35.504 564.906 36.48 558.282 36.48C554.73 36.48 551.114 36.096 547.434 35.328C543.754 34.528 540.442 33.376 537.498 31.872Z" fill="white"/>
</svg>
