<svg width="103" height="39" viewBox="0 0 103 39" fill="none" xmlns="http://www.w3.org/2000/svg">
<g filter="url(#filter0_d_2047_278)">
<path d="M16.984 24.2756C22.184 23.9876 26.216 23.6676 29.08 23.3156C28.808 24.1476 28.6 25.0276 28.456 25.9556C28.312 26.8836 28.24 27.7236 28.24 28.4756H11.08L11.056 27.9716C11.056 26.4036 11.512 25.0436 12.424 23.8916C13.352 22.7396 14.64 21.6756 16.288 20.6996C16.768 20.4116 17.52 20.0436 18.544 19.5956C19.872 19.0196 20.896 18.5156 21.616 18.0836C22.336 17.6356 22.696 17.1956 22.696 16.7636C22.696 16.2196 22.472 15.7876 22.024 15.4676C21.576 15.1476 20.88 14.9876 19.936 14.9876C18.896 14.9876 18.104 15.2516 17.56 15.7796C17.032 16.3076 16.768 16.9796 16.768 17.7956C16.768 18.0516 16.792 18.3156 16.84 18.5876C14.824 18.3316 12.864 18.1556 10.96 18.0596C10.96 16.6996 11.312 15.4756 12.016 14.3876C12.736 13.2836 13.808 12.4116 15.232 11.7716C16.672 11.1316 18.432 10.8116 20.512 10.8116C22.416 10.8116 24 11.0756 25.264 11.6036C26.544 12.1156 27.48 12.7716 28.072 13.5716C28.68 14.3556 28.984 15.1636 28.984 15.9956C28.984 16.9556 28.768 17.7796 28.336 18.4676C27.92 19.1556 27.312 19.7716 26.512 20.3156C25.728 20.8436 24.672 21.4196 23.344 22.0436C23.152 22.1396 22.84 22.2516 22.408 22.3796C21.976 22.4916 21.704 22.5636 21.592 22.5956C20.456 22.9316 19.552 23.2116 18.88 23.4356C18.208 23.6596 17.576 23.9396 16.984 24.2756ZM42.4951 28.7156C39.0551 28.7156 36.5191 27.9236 34.8871 26.3396C33.2551 24.7556 32.4391 22.5556 32.4391 19.7396C32.4391 16.9396 33.2551 14.7556 34.8871 13.1876C36.5351 11.6036 39.0711 10.8116 42.4951 10.8116C45.9191 10.8116 48.4471 11.6036 50.0791 13.1876C51.7111 14.7556 52.5271 16.9396 52.5271 19.7396C52.5271 22.5556 51.7111 24.7556 50.0791 26.3396C48.4471 27.9236 45.9191 28.7156 42.4951 28.7156ZM42.5191 24.5156C43.9911 24.5156 45.0631 24.0676 45.7351 23.1716C46.4071 22.2596 46.7431 21.1156 46.7431 19.7396C46.7431 18.3796 46.4071 17.2516 45.7351 16.3556C45.0631 15.4436 43.9911 14.9876 42.5191 14.9876C40.9991 14.9876 39.8951 15.4436 39.2071 16.3556C38.5351 17.2516 38.1991 18.3796 38.1991 19.7396C38.1991 21.0996 38.5351 22.2356 39.2071 23.1476C39.8951 24.0596 40.9991 24.5156 42.5191 24.5156ZM65.9429 28.7156C62.5029 28.7156 59.9669 27.9236 58.3349 26.3396C56.7029 24.7556 55.8869 22.5556 55.8869 19.7396C55.8869 16.9396 56.7029 14.7556 58.3349 13.1876C59.9829 11.6036 62.5189 10.8116 65.9429 10.8116C69.3669 10.8116 71.8949 11.6036 73.5269 13.1876C75.1589 14.7556 75.9749 16.9396 75.9749 19.7396C75.9749 22.5556 75.1589 24.7556 73.5269 26.3396C71.8949 27.9236 69.3669 28.7156 65.9429 28.7156ZM65.9669 24.5156C67.4389 24.5156 68.5109 24.0676 69.1829 23.1716C69.8549 22.2596 70.1909 21.1156 70.1909 19.7396C70.1909 18.3796 69.8549 17.2516 69.1829 16.3556C68.5109 15.4436 67.4389 14.9876 65.9669 14.9876C64.4469 14.9876 63.3429 15.4436 62.6549 16.3556C61.9829 17.2516 61.6469 18.3796 61.6469 19.7396C61.6469 21.0996 61.9829 22.2356 62.6549 23.1476C63.3429 24.0596 64.4469 24.5156 65.9669 24.5156ZM88.9827 24.0356C90.4227 24.0036 91.4867 23.9716 92.1747 23.9396V28.4756H79.4787V23.9396C81.2067 24.0036 82.5107 24.0356 83.3907 24.0356V15.7556C82.8147 17.0196 81.6387 17.8356 79.8627 18.2036C79.8147 16.3156 79.6387 14.5956 79.3347 13.0436C80.6147 12.8676 81.5027 12.6516 81.9987 12.3956C82.5107 12.1236 82.9027 11.8276 83.1747 11.5076C83.4627 11.1876 83.6547 10.9716 83.7507 10.8596V10.8116H88.9827V24.0356Z" fill="#FF005C"/>
</g>
<defs>
<filter id="filter0_d_2047_278" x="0.960938" y="0.811523" width="101.213" height="37.9043" filterUnits="userSpaceOnUse" color-interpolation-filters="sRGB">
<feFlood flood-opacity="0" result="BackgroundImageFix"/>
<feColorMatrix in="SourceAlpha" type="matrix" values="0 0 0 0 0 0 0 0 0 0 0 0 0 0 0 0 0 0 127 0" result="hardAlpha"/>
<feOffset/>
<feGaussianBlur stdDeviation="5"/>
<feComposite in2="hardAlpha" operator="out"/>
<feColorMatrix type="matrix" values="0 0 0 0 1 0 0 0 0 0 0 0 0 0 0.360784 0 0 0 1 0"/>
<feBlend mode="normal" in2="BackgroundImageFix" result="effect1_dropShadow_2047_278"/>
<feBlend mode="normal" in="SourceGraphic" in2="effect1_dropShadow_2047_278" result="shape"/>
</filter>
</defs>
</svg>
