<svg width="97" height="39" viewBox="0 0 97 39" fill="none" xmlns="http://www.w3.org/2000/svg">
<g filter="url(#filter0_d_2047_273)">
<path d="M20.608 24.0356C22.048 24.0036 23.112 23.9716 23.8 23.9396V28.4756H11.104V23.9396C12.832 24.0036 14.136 24.0356 15.016 24.0356V15.7556C14.44 17.0196 13.264 17.8356 11.488 18.2036C11.44 16.3156 11.264 14.5956 10.96 13.0436C12.24 12.8676 13.128 12.6516 13.624 12.3956C14.136 12.1236 14.528 11.8276 14.8 11.5076C15.088 11.1876 15.28 10.9716 15.376 10.8596V10.8116H20.608V24.0356ZM42.3494 19.0676C43.0534 19.3236 43.6534 19.6836 44.1494 20.1476C44.6454 20.6116 45.0134 21.1236 45.2534 21.6836C45.4934 22.2276 45.6134 22.7396 45.6134 23.2196C45.6134 25.1076 44.7734 26.4996 43.0934 27.3956C41.4294 28.2756 39.0934 28.7156 36.0854 28.7156C33.0614 28.7156 30.7094 28.2756 29.0294 27.3956C27.3494 26.4996 26.5094 25.1076 26.5094 23.2196C26.5094 22.4516 26.7814 21.6676 27.3254 20.8676C27.8854 20.0516 28.6614 19.4516 29.6534 19.0676C28.7734 18.6516 28.1094 18.1956 27.6614 17.6996C27.2294 17.1876 27.0134 16.5076 27.0134 15.6596C27.0134 14.6676 27.3574 13.7876 28.0454 13.0196C28.7334 12.2356 29.7574 11.6276 31.1174 11.1956C32.4934 10.7636 34.1494 10.5476 36.0854 10.5476C38.0054 10.5476 39.6454 10.7636 41.0054 11.1956C42.3654 11.6276 43.3894 12.2356 44.0774 13.0196C44.7654 13.7876 45.1094 14.6676 45.1094 15.6596C45.1094 16.5236 44.8774 17.2036 44.4134 17.6996C43.9654 18.1956 43.2774 18.6516 42.3494 19.0676ZM36.1334 17.6516C37.0614 17.6516 37.8294 17.4916 38.4374 17.1716C39.0614 16.8516 39.3734 16.4276 39.3734 15.8996C39.3734 15.3716 39.0614 14.9556 38.4374 14.6516C37.8134 14.3316 37.0454 14.1716 36.1334 14.1716C35.2054 14.1716 34.4294 14.3316 33.8054 14.6516C33.1814 14.9556 32.8694 15.3716 32.8694 15.8996C32.8694 16.4436 33.1814 16.8756 33.8054 17.1956C34.4294 17.4996 35.2054 17.6516 36.1334 17.6516ZM36.1334 24.3716C37.0614 24.3716 37.8294 24.2116 38.4374 23.8916C39.0614 23.5716 39.3734 23.1476 39.3734 22.6196C39.3734 22.0916 39.0614 21.6756 38.4374 21.3716C37.8134 21.0516 37.0454 20.8916 36.1334 20.8916C35.2054 20.8916 34.4294 21.0516 33.8054 21.3716C33.1814 21.6756 32.8694 22.0916 32.8694 22.6196C32.8694 23.1636 33.1814 23.5956 33.8054 23.9156C34.4294 24.2196 35.2054 24.3716 36.1334 24.3716ZM48.9728 11.0276H66.3488V14.1236C63.2128 18.8756 60.7888 23.6596 59.0768 28.4756H52.5968C54.3408 24.1396 56.6368 19.8276 59.4848 15.5396C55.0528 15.5396 51.5488 15.6196 48.9728 15.7796V11.0276ZM69.0691 11.0276H86.4451V14.1236C83.3091 18.8756 80.8851 23.6596 79.1731 28.4756H72.6931C74.4371 24.1396 76.7331 19.8276 79.5811 15.5396C75.1491 15.5396 71.6451 15.6196 69.0691 15.7796V11.0276Z" fill="#FF005C"/>
</g>
<defs>
<filter id="filter0_d_2047_273" x="0.960938" y="0.547852" width="95.4844" height="38.168" filterUnits="userSpaceOnUse" color-interpolation-filters="sRGB">
<feFlood flood-opacity="0" result="BackgroundImageFix"/>
<feColorMatrix in="SourceAlpha" type="matrix" values="0 0 0 0 0 0 0 0 0 0 0 0 0 0 0 0 0 0 127 0" result="hardAlpha"/>
<feOffset/>
<feGaussianBlur stdDeviation="5"/>
<feComposite in2="hardAlpha" operator="out"/>
<feColorMatrix type="matrix" values="0 0 0 0 1 0 0 0 0 0.194444 0 0 0 0 0.484445 0 0 0 1 0"/>
<feBlend mode="normal" in2="BackgroundImageFix" result="effect1_dropShadow_2047_273"/>
<feBlend mode="normal" in="SourceGraphic" in2="effect1_dropShadow_2047_273" result="shape"/>
</filter>
</defs>
</svg>
