<svg width="99" height="39" viewBox="0 0 99 39" fill="none" xmlns="http://www.w3.org/2000/svg">
<g filter="url(#filter0_d_2047_276)">
<path d="M20.608 24.0356C22.048 24.0036 23.112 23.9716 23.8 23.9396V28.4756H11.104V23.9396C12.832 24.0036 14.136 24.0356 15.016 24.0356V15.7556C14.44 17.0196 13.264 17.8356 11.488 18.2036C11.44 16.3156 11.264 14.5956 10.96 13.0436C12.24 12.8676 13.128 12.6516 13.624 12.3956C14.136 12.1236 14.528 11.8276 14.8 11.5076C15.088 11.1876 15.28 10.9716 15.376 10.8596V10.8116H20.608V24.0356ZM35.9174 10.8116C37.7094 10.8116 39.3014 11.1716 40.6934 11.8916C42.1014 12.5956 43.1894 13.5796 43.9574 14.8436C44.7414 16.1076 45.1334 17.5476 45.1334 19.1636C45.1334 22.3796 44.2374 24.7796 42.4454 26.3636C40.6694 27.9316 38.2694 28.7156 35.2454 28.7156C31.5654 28.7156 28.6614 27.7876 26.5334 25.9316C27.4934 24.9076 28.3734 23.7796 29.1734 22.5476C29.7974 23.0596 30.6854 23.4596 31.8374 23.7476C32.9894 24.0196 34.0374 24.1556 34.9814 24.1556C36.3734 24.1556 37.5414 23.8116 38.4854 23.1236C39.4294 22.4196 40.0054 21.4196 40.2134 20.1236C40.2294 20.0436 40.2374 19.9316 40.2374 19.7876C39.4694 20.9076 38.4534 21.7316 37.1894 22.2596C35.9254 22.7716 34.6374 23.0276 33.3254 23.0276C32.0454 23.0276 30.8854 22.7956 29.8454 22.3316C28.8054 21.8676 27.9894 21.2356 27.3974 20.4356C26.8054 19.6196 26.5094 18.7076 26.5094 17.6996C26.5094 16.2436 26.9174 14.9956 27.7334 13.9556C28.5654 12.9156 29.6934 12.1316 31.1174 11.6036C32.5414 11.0756 34.1414 10.8116 35.9174 10.8116ZM35.6774 19.2596C36.2854 19.2596 36.8454 19.1716 37.3574 18.9956C37.8854 18.8036 38.3014 18.5556 38.6054 18.2516C38.9254 17.9476 39.0854 17.6196 39.0854 17.2676C39.0854 16.7236 38.7494 16.2596 38.0774 15.8756C37.4214 15.4916 36.6214 15.2996 35.6774 15.2996C34.7334 15.2996 33.9254 15.4916 33.2534 15.8756C32.5974 16.2596 32.2694 16.7236 32.2694 17.2676C32.2694 17.8276 32.5974 18.2996 33.2534 18.6836C33.9254 19.0676 34.7334 19.2596 35.6774 19.2596ZM60.3121 16.5716C61.5761 16.5716 62.7281 16.8356 63.7681 17.3636C64.8081 17.8756 65.6241 18.5716 66.2161 19.4516C66.8241 20.3316 67.1281 21.2756 67.1281 22.2836C67.1281 23.5956 66.7121 24.7396 65.8801 25.7156C65.0481 26.6916 63.9201 27.4356 62.4961 27.9476C61.0721 28.4596 59.4801 28.7156 57.7201 28.7156C55.9281 28.7156 54.3281 28.3636 52.9201 27.6596C51.5281 26.9396 50.4401 25.9476 49.6561 24.6836C48.8881 23.4196 48.5041 21.9796 48.5041 20.3636C48.5041 17.1476 49.3921 14.7556 51.1681 13.1876C52.9601 11.6036 55.3681 10.8116 58.3921 10.8116C62.0721 10.8116 64.9761 11.7396 67.1041 13.5956C66.1441 14.6196 65.2641 15.7476 64.4641 16.9796C63.8241 16.4996 62.9201 16.1156 61.7521 15.8276C60.6001 15.5236 59.5681 15.3716 58.6561 15.3716C57.2641 15.3716 56.0961 15.7236 55.1521 16.4276C54.2081 17.1156 53.6321 18.1076 53.4241 19.4036C53.4081 19.4836 53.4001 19.5956 53.4001 19.7396C54.1681 18.6196 55.1761 17.8116 56.4241 17.3156C57.6881 16.8196 58.9841 16.5716 60.3121 16.5716ZM57.9601 24.1556C58.5681 24.1556 59.1361 24.0756 59.6641 23.9156C60.1921 23.7396 60.6081 23.5076 60.9121 23.2196C61.2161 22.9156 61.3681 22.5956 61.3681 22.2596C61.3681 21.7316 61.0321 21.2836 60.3601 20.9156C59.7041 20.5316 58.9041 20.3396 57.9601 20.3396C57.0161 20.3396 56.2081 20.5316 55.5361 20.9156C54.8801 21.2836 54.5521 21.7316 54.5521 22.2596C54.5521 22.5956 54.7041 22.9156 55.0081 23.2196C55.3121 23.5076 55.7281 23.7396 56.2561 23.9156C56.7841 24.0756 57.3521 24.1556 57.9601 24.1556ZM76.5227 24.2756C81.7228 23.9876 85.7548 23.6676 88.6188 23.3156C88.3468 24.1476 88.1388 25.0276 87.9948 25.9556C87.8508 26.8836 87.7788 27.7236 87.7788 28.4756H70.6187L70.5947 27.9716C70.5947 26.4036 71.0507 25.0436 71.9627 23.8916C72.8907 22.7396 74.1788 21.6756 75.8268 20.6996C76.3068 20.4116 77.0588 20.0436 78.0827 19.5956C79.4107 19.0196 80.4348 18.5156 81.1548 18.0836C81.8748 17.6356 82.2348 17.1956 82.2348 16.7636C82.2348 16.2196 82.0108 15.7876 81.5628 15.4676C81.1148 15.1476 80.4188 14.9876 79.4748 14.9876C78.4348 14.9876 77.6428 15.2516 77.0988 15.7796C76.5707 16.3076 76.3067 16.9796 76.3067 17.7956C76.3067 18.0516 76.3307 18.3156 76.3788 18.5876C74.3628 18.3316 72.4027 18.1556 70.4987 18.0596C70.4987 16.6996 70.8507 15.4756 71.5547 14.3876C72.2747 13.2836 73.3467 12.4116 74.7707 11.7716C76.2108 11.1316 77.9708 10.8116 80.0508 10.8116C81.9548 10.8116 83.5388 11.0756 84.8028 11.6036C86.0828 12.1156 87.0188 12.7716 87.6108 13.5716C88.2188 14.3556 88.5227 15.1636 88.5227 15.9956C88.5227 16.9556 88.3068 17.7796 87.8748 18.4676C87.4588 19.1556 86.8508 19.7716 86.0508 20.3156C85.2668 20.8436 84.2108 21.4196 82.8828 22.0436C82.6908 22.1396 82.3788 22.2516 81.9468 22.3796C81.5148 22.4916 81.2427 22.5636 81.1307 22.5956C79.9948 22.9316 79.0908 23.2116 78.4187 23.4356C77.7467 23.6596 77.1147 23.9396 76.5227 24.2756Z" fill="#FF005C"/>
</g>
<defs>
<filter id="filter0_d_2047_276" x="0.960938" y="0.811523" width="97.6582" height="37.9043" filterUnits="userSpaceOnUse" color-interpolation-filters="sRGB">
<feFlood flood-opacity="0" result="BackgroundImageFix"/>
<feColorMatrix in="SourceAlpha" type="matrix" values="0 0 0 0 0 0 0 0 0 0 0 0 0 0 0 0 0 0 127 0" result="hardAlpha"/>
<feOffset/>
<feGaussianBlur stdDeviation="5"/>
<feComposite in2="hardAlpha" operator="out"/>
<feColorMatrix type="matrix" values="0 0 0 0 1 0 0 0 0 0 0 0 0 0 0.360784 0 0 0 1 0"/>
<feBlend mode="normal" in2="BackgroundImageFix" result="effect1_dropShadow_2047_276"/>
<feBlend mode="normal" in="SourceGraphic" in2="effect1_dropShadow_2047_276" result="shape"/>
</filter>
</defs>
</svg>
