<svg width="101" height="39" viewBox="0 0 101 39" fill="none" xmlns="http://www.w3.org/2000/svg">
<g filter="url(#filter0_d_2047_279)">
<path d="M16.984 24.2756C22.184 23.9876 26.216 23.6676 29.08 23.3156C28.808 24.1476 28.6 25.0276 28.456 25.9556C28.312 26.8836 28.24 27.7236 28.24 28.4756H11.08L11.056 27.9716C11.056 26.4036 11.512 25.0436 12.424 23.8916C13.352 22.7396 14.64 21.6756 16.288 20.6996C16.768 20.4116 17.52 20.0436 18.544 19.5956C19.872 19.0196 20.896 18.5156 21.616 18.0836C22.336 17.6356 22.696 17.1956 22.696 16.7636C22.696 16.2196 22.472 15.7876 22.024 15.4676C21.576 15.1476 20.88 14.9876 19.936 14.9876C18.896 14.9876 18.104 15.2516 17.56 15.7796C17.032 16.3076 16.768 16.9796 16.768 17.7956C16.768 18.0516 16.792 18.3156 16.84 18.5876C14.824 18.3316 12.864 18.1556 10.96 18.0596C10.96 16.6996 11.312 15.4756 12.016 14.3876C12.736 13.2836 13.808 12.4116 15.232 11.7716C16.672 11.1316 18.432 10.8116 20.512 10.8116C22.416 10.8116 24 11.0756 25.264 11.6036C26.544 12.1156 27.48 12.7716 28.072 13.5716C28.68 14.3556 28.984 15.1636 28.984 15.9956C28.984 16.9556 28.768 17.7796 28.336 18.4676C27.92 19.1556 27.312 19.7716 26.512 20.3156C25.728 20.8436 24.672 21.4196 23.344 22.0436C23.152 22.1396 22.84 22.2516 22.408 22.3796C21.976 22.4916 21.704 22.5636 21.592 22.5956C20.456 22.9316 19.552 23.2116 18.88 23.4356C18.208 23.6596 17.576 23.9396 16.984 24.2756ZM42.4951 28.7156C39.0551 28.7156 36.5191 27.9236 34.8871 26.3396C33.2551 24.7556 32.4391 22.5556 32.4391 19.7396C32.4391 16.9396 33.2551 14.7556 34.8871 13.1876C36.5351 11.6036 39.0711 10.8116 42.4951 10.8116C45.9191 10.8116 48.4471 11.6036 50.0791 13.1876C51.7111 14.7556 52.5271 16.9396 52.5271 19.7396C52.5271 22.5556 51.7111 24.7556 50.0791 26.3396C48.4471 27.9236 45.9191 28.7156 42.4951 28.7156ZM42.5191 24.5156C43.9911 24.5156 45.0631 24.0676 45.7351 23.1716C46.4071 22.2596 46.7431 21.1156 46.7431 19.7396C46.7431 18.3796 46.4071 17.2516 45.7351 16.3556C45.0631 15.4436 43.9911 14.9876 42.5191 14.9876C40.9991 14.9876 39.8951 15.4436 39.2071 16.3556C38.5351 17.2516 38.1991 18.3796 38.1991 19.7396C38.1991 21.0996 38.5351 22.2356 39.2071 23.1476C39.8951 24.0596 40.9991 24.5156 42.5191 24.5156ZM65.5349 24.0356C66.9749 24.0036 68.0389 23.9716 68.7269 23.9396V28.4756H56.0309V23.9396C57.7589 24.0036 59.0629 24.0356 59.9429 24.0356V15.7556C59.3669 17.0196 58.1909 17.8356 56.4149 18.2036C56.3669 16.3156 56.1909 14.5956 55.8869 13.0436C57.1669 12.8676 58.0549 12.6516 58.5509 12.3956C59.0629 12.1236 59.4549 11.8276 59.7269 11.5076C60.0149 11.1876 60.2069 10.9716 60.3029 10.8596V10.8116H65.5349V24.0356ZM82.4283 16.2116C84.2523 16.2116 85.7803 16.4676 87.0122 16.9796C88.2603 17.4756 89.1883 18.1556 89.7963 19.0196C90.4203 19.8676 90.7323 20.8196 90.7323 21.8756C90.7323 24.2756 89.8923 26.0196 88.2123 27.1076C86.5483 28.1796 84.3163 28.7156 81.5162 28.7156C79.1643 28.7156 77.0923 28.3236 75.3002 27.5396C73.5242 26.7396 72.2362 25.4036 71.4362 23.5316C72.3162 23.4036 73.2762 23.1956 74.3162 22.9076C75.3722 22.6196 76.3242 22.3236 77.1723 22.0196C77.5082 22.7076 77.9803 23.2116 78.5883 23.5316C79.1963 23.8356 80.0123 23.9876 81.0363 23.9876C82.1243 23.9876 83.0203 23.8116 83.7243 23.4596C84.4443 23.1076 84.8042 22.6196 84.8042 21.9956C84.8042 21.3556 84.4922 20.8196 83.8683 20.3876C83.2443 19.9556 82.2923 19.7396 81.0122 19.7396C80.1803 19.7396 79.4203 19.8916 78.7322 20.1956C78.0443 20.4836 77.5483 20.8996 77.2442 21.4436H71.7002C72.0842 19.7956 72.4202 18.0196 72.7082 16.1156C73.0122 14.2116 73.1962 12.5236 73.2602 11.0516H90.1083V15.7076C88.3323 15.5956 86.6523 15.5316 85.0683 15.5156C83.5003 15.4836 81.3003 15.4676 78.4682 15.4676L78.2283 16.8116C79.4443 16.4116 80.8443 16.2116 82.4283 16.2116Z" fill="#FF005C"/>
</g>
<defs>
<filter id="filter0_d_2047_279" x="0.960938" y="0.811523" width="99.7715" height="37.9043" filterUnits="userSpaceOnUse" color-interpolation-filters="sRGB">
<feFlood flood-opacity="0" result="BackgroundImageFix"/>
<feColorMatrix in="SourceAlpha" type="matrix" values="0 0 0 0 0 0 0 0 0 0 0 0 0 0 0 0 0 0 127 0" result="hardAlpha"/>
<feOffset/>
<feGaussianBlur stdDeviation="5"/>
<feComposite in2="hardAlpha" operator="out"/>
<feColorMatrix type="matrix" values="0 0 0 0 1 0 0 0 0 0 0 0 0 0 0.360784 0 0 0 1 0"/>
<feBlend mode="normal" in2="BackgroundImageFix" result="effect1_dropShadow_2047_279"/>
<feBlend mode="normal" in="SourceGraphic" in2="effect1_dropShadow_2047_279" result="shape"/>
</filter>
</defs>
</svg>
