<svg width="38" height="41" viewBox="0 0 38 41" fill="none" xmlns="http://www.w3.org/2000/svg">
<g clip-path="url(#clip0_313_61)">
<path d="M1.95427 26.7126L2.55637 23.9248L1.95427 21.0454C1.93775 20.9598 1.78539 20.8942 1.60366 20.8942C1.41642 20.8942 1.2659 20.9598 1.25305 21.0454L0.720703 23.9248L1.25121 26.7106C1.2659 26.8001 1.41642 26.8618 1.60183 26.8618C1.78539 26.8638 1.93775 26.8021 1.95427 26.7126ZM5.71924 28.2587L6.22772 23.9526L5.71924 17.2905C5.70272 17.1233 5.50997 16.988 5.28051 16.988C5.04738 16.988 4.8528 17.1233 4.84362 17.2905L4.39205 23.9526L4.84362 28.2587C4.85464 28.4299 5.04738 28.5612 5.28051 28.5612C5.50997 28.5612 5.70272 28.4299 5.71924 28.2587ZM9.47319 28.1891L9.89906 23.9566L9.47319 15.0877C9.46217 14.8768 9.23638 14.7136 8.95553 14.7136C8.6765 14.7136 8.45072 14.8768 8.4397 15.0877L8.06339 23.9566L8.4397 28.1931C8.45072 28.398 8.6765 28.5632 8.95553 28.5632C9.23638 28.5612 9.46217 28.398 9.47319 28.1891ZM13.2216 28.1274L13.5704 23.9566L13.2216 15.022C13.2124 14.7773 12.9536 14.5823 12.6342 14.5823C12.3111 14.5823 12.0541 14.7773 12.045 15.022L11.7347 23.9566L12.0468 28.1274C12.0541 28.3721 12.313 28.5672 12.6342 28.5672C12.9536 28.5652 13.2124 28.3761 13.2216 28.1274ZM16.9664 28.0717L17.2417 23.9606L16.9664 13.7147C16.9591 13.4321 16.6653 13.2073 16.3092 13.2073C15.9531 13.2073 15.6594 13.4361 15.6539 13.7167L15.4061 23.9566L15.6539 28.0717C15.6594 28.3523 15.9531 28.5811 16.3092 28.5811C16.6653 28.5811 16.9591 28.3562 16.9664 28.0717ZM19.5859 28.5851L32.7018 28.593C35.3158 28.593 37.4341 26.3703 37.4341 23.6303C37.4341 20.8902 35.3158 18.6715 32.7018 18.6715C32.0538 18.6715 31.437 18.8108 30.8734 19.0555C30.4971 14.5862 26.9212 11.0801 22.5597 11.0801C21.527 11.0822 20.5029 11.2822 19.5345 11.6711C19.1747 11.8183 19.0811 11.9656 19.0774 12.2581V27.9981C19.0817 28.1462 19.1358 28.2876 19.2294 28.3957C19.323 28.5038 19.4498 28.5711 19.5859 28.5851Z" fill="white"/>
</g>
<defs>
<clipPath id="clip0_313_61">
<rect width="36.7134" height="39.7976" fill="white" transform="translate(0.720703 0.734375)"/>
</clipPath>
</defs>
</svg>
