<svg width="20" height="20" viewBox="0 0 20 20" fill="none" xmlns="http://www.w3.org/2000/svg">
<path d="M9.99997 9.61539C8.79686 9.61539 7.76693 9.18701 6.91016 8.33026C6.05339 7.47349 5.625 6.44355 5.625 5.24045C5.625 4.03732 6.05339 3.00738 6.91016 2.15063C7.76693 1.29386 8.79686 0.865479 9.99997 0.865479C11.2031 0.865479 12.233 1.29386 13.0898 2.15063C13.9466 3.00738 14.3749 4.03732 14.3749 5.24045C14.3749 6.44355 13.9466 7.47349 13.0898 8.33026C12.233 9.18701 11.2031 9.61539 9.99997 9.61539ZM0.625 17.2356V16.3558C0.625 15.7436 0.791271 15.1767 1.12381 14.6551C1.45633 14.1335 1.90064 13.7324 2.45672 13.452C3.6923 12.8462 4.9387 12.3919 6.19591 12.089C7.45311 11.7861 8.72114 11.6347 9.99997 11.6347C11.2788 11.6347 12.5468 11.7861 13.804 12.089C15.0612 12.3919 16.3076 12.8462 17.5432 13.452C18.0993 13.7324 18.5436 14.1335 18.8761 14.6551C19.2087 15.1767 19.3749 15.7436 19.3749 16.3558V17.2356C19.3749 17.7628 19.1902 18.2111 18.8208 18.5805C18.4515 18.9499 18.0032 19.1346 17.4759 19.1346H2.524C1.99677 19.1346 1.54847 18.9499 1.17909 18.5805C0.809698 18.2111 0.625 17.7628 0.625 17.2356ZM2.49997 17.2596H17.5V16.3558C17.5 16.1026 17.4266 15.8682 17.28 15.6527C17.1334 15.4371 16.9343 15.2612 16.6827 15.125C15.6057 14.5946 14.5076 14.1927 13.3883 13.9195C12.2691 13.6462 11.1396 13.5096 9.99997 13.5096C8.86034 13.5096 7.73089 13.6462 6.61159 13.9195C5.4923 14.1927 4.3942 14.5946 3.31728 15.125C3.06568 15.2612 2.86656 15.4371 2.71994 15.6527C2.57329 15.8682 2.49997 16.1026 2.49997 16.3558V17.2596ZM9.99997 7.74045C10.6875 7.74045 11.276 7.49566 11.7656 7.00607C12.2552 6.51649 12.5 5.92795 12.5 5.24045C12.5 4.55295 12.2552 3.96441 11.7656 3.47482C11.276 2.98524 10.6875 2.74045 9.99997 2.74045C9.31247 2.74045 8.72393 2.98524 8.23434 3.47482C7.74476 3.96441 7.49997 4.55295 7.49997 5.24045C7.49997 5.92795 7.74476 6.51649 8.23434 7.00607C8.72393 7.49566 9.31247 7.74045 9.99997 7.74045Z" fill="black"/>
</svg>
