<svg width="18" height="12" viewBox="0 0 18 12" fill="none" xmlns="http://www.w3.org/2000/svg">
<path d="M8.72133 0.580994C8.9254 0.580994 9.11671 0.614677 9.29527 0.682042C9.47383 0.749408 9.63964 0.86393 9.79269 1.02561L16.833 8.46279C17.1136 8.7592 17.2539 9.13645 17.2539 9.59454C17.2539 10.0526 17.1136 10.4299 16.833 10.7263C16.5524 11.0227 16.1953 11.1709 15.7617 11.1709C15.328 11.1709 14.9709 11.0227 14.6903 10.7263L8.72133 4.42084L2.75236 10.7263C2.47176 11.0227 2.11465 11.1709 1.681 11.1709C1.24736 11.1709 0.89024 11.0227 0.609648 10.7263C0.329054 10.4299 0.188757 10.0526 0.188757 9.59454C0.188757 9.13645 0.329054 8.7592 0.609648 8.46279L7.64998 1.02561C7.80303 0.86393 7.96883 0.749408 8.14739 0.682042C8.32595 0.614677 8.51727 0.580994 8.72133 0.580994Z" fill="#3D2B3C"/>
</svg>
