<svg width="37" height="34" viewBox="0 0 37 34" fill="none" xmlns="http://www.w3.org/2000/svg">
<g clip-path="url(#clip0_313_77)">
<path d="M12.1037 21.2302C12.1037 22.0125 11.4851 22.6089 10.7007 22.6089C10.114 22.6089 9.6804 22.2754 9.6804 21.647C9.6804 20.8646 10.2862 20.2362 11.0642 20.2362C11.6573 20.2362 12.1037 20.6017 12.1037 21.2302ZM5.35672 18.12H5.05699C4.96134 18.12 4.86568 18.1841 4.85293 18.2931L4.57871 20.0053L5.10163 19.9861C5.80312 19.9861 6.34517 19.8899 6.47271 19.0755C6.61939 18.2162 6.07733 18.12 5.35672 18.12ZM23.4677 18.12H23.1807C23.066 18.12 22.9894 18.1841 22.9767 18.2931L22.7088 20.0053L23.219 19.9861C24.048 19.9861 24.622 19.7937 24.622 18.8318C24.6156 18.1521 24.0098 18.12 23.4677 18.12ZM36.9553 9.80271V32.3754C36.9553 34.0748 35.5842 35.4535 33.8943 35.4535H3.28416C1.59422 35.4535 0.223145 34.0748 0.223145 32.3754V9.80271C0.223145 8.10334 1.59422 6.72461 3.28416 6.72461H33.8943C35.5842 6.72461 36.9553 8.10334 36.9553 9.80271ZM8.40498 18.4855C8.40498 17.1388 7.37189 16.69 6.19212 16.69H3.64128C3.48185 16.69 3.32242 16.8182 3.30967 16.9914L2.26382 23.5387C2.24469 23.667 2.34035 23.7952 2.46789 23.7952H3.67954C3.85172 23.7952 4.01115 23.6093 4.03028 23.4297L4.31725 21.7239C4.38102 21.2622 5.15903 21.4225 5.46513 21.4225C7.28898 21.4225 8.40498 20.3324 8.40498 18.4855ZM13.7745 19.0498H12.5629C12.3205 19.0498 12.3078 19.4025 12.295 19.5757C11.9251 19.0306 11.3895 18.9344 10.7836 18.9344C9.22125 18.9344 8.02873 20.3131 8.02873 21.8329C8.02873 23.0834 8.80674 23.8978 10.0503 23.8978C10.6242 23.8978 11.3385 23.5836 11.7402 23.1347C11.7083 23.2309 11.6764 23.4361 11.6764 23.5323C11.6764 23.6798 11.7402 23.7888 11.8805 23.7888H12.9774C13.1495 23.7888 13.2962 23.6028 13.3281 23.4233L13.9786 19.2999C13.9977 19.1781 13.902 19.0498 13.7745 19.0498ZM16.3572 25.3279L20.4195 19.3897C20.4513 19.3576 20.4513 19.3256 20.4513 19.2807C20.4513 19.1717 20.3557 19.0562 20.2473 19.0562H19.0229C18.9145 19.0562 18.7997 19.1204 18.7359 19.2166L17.046 21.7175L16.3445 19.3128C16.2935 19.1717 16.1532 19.0562 15.9937 19.0562H14.8012C14.6928 19.0562 14.5972 19.1717 14.5972 19.2807C14.5972 19.3576 15.8407 22.9231 15.9491 23.263C15.7769 23.5067 14.6418 25.097 14.6418 25.2894C14.6418 25.4048 14.7375 25.4946 14.8459 25.4946H16.0703C16.1851 25.4882 16.2935 25.4241 16.3572 25.3279ZM26.516 18.4855C26.516 17.1388 25.4829 16.69 24.3031 16.69H21.7714C21.5992 16.69 21.4398 16.8182 21.4207 16.9914L20.3876 23.5323C20.3748 23.6606 20.4705 23.7888 20.5916 23.7888H21.8989C22.0265 23.7888 22.1221 23.6926 22.154 23.5836L22.441 21.7239C22.5048 21.2622 23.2828 21.4225 23.5889 21.4225C25.4 21.4225 26.516 20.3324 26.516 18.4855ZM31.8855 19.0498H30.6739C30.4315 19.0498 30.4188 19.4025 30.3996 19.5757C30.0489 19.0306 29.5068 18.9344 28.8883 18.9344C27.3259 18.9344 26.1333 20.3131 26.1333 21.8329C26.1333 23.0834 26.9114 23.8978 28.1549 23.8978C28.748 23.8978 29.4622 23.5836 29.8448 23.1347C29.8257 23.2309 29.7811 23.4361 29.7811 23.5323C29.7811 23.6798 29.8448 23.7888 29.9851 23.7888H31.0884C31.2605 23.7888 31.4072 23.6028 31.4391 23.4233L32.0896 19.2999C32.1087 19.1781 32.013 19.0498 31.8855 19.0498ZM34.9146 16.9144C34.9146 16.7861 34.819 16.69 34.7106 16.69H33.5308C33.4351 16.69 33.3395 16.7669 33.3267 16.8631L32.2936 23.5323L32.2745 23.5644C32.2745 23.6798 32.3702 23.7888 32.4977 23.7888H33.5499C33.7094 23.7888 33.8688 23.6028 33.8815 23.4233L34.9146 16.9336V16.9144ZM29.1752 20.2362C28.3972 20.2362 27.7914 20.8582 27.7914 21.647C27.7914 22.269 28.2378 22.6089 28.8245 22.6089C29.5897 22.6089 30.2083 22.0189 30.2083 21.2302C30.2147 20.6017 29.7683 20.2362 29.1752 20.2362Z" fill="white"/>
</g>
<defs>
<clipPath id="clip0_313_77">
<rect width="36.7322" height="32.8331" fill="white" transform="translate(0.223145 0.734375)"/>
</clipPath>
</defs>
</svg>
