<svg width="22" height="21" viewBox="0 0 22 21" fill="none" xmlns="http://www.w3.org/2000/svg">
<path d="M10.6111 11.5433L6.1194 15.8308C5.95135 15.9912 5.73746 16.0714 5.47773 16.0714C5.21801 16.0714 5.00412 15.9912 4.83607 15.8308C4.66801 15.6704 4.58398 15.4662 4.58398 15.2183C4.58398 14.9704 4.66801 14.7662 4.83607 14.6058L9.32773 10.3183L4.83607 6.03081C4.66801 5.87039 4.58398 5.66623 4.58398 5.41831C4.58398 5.17039 4.66801 4.96623 4.83607 4.80581C5.00412 4.64539 5.21801 4.56519 5.47773 4.56519C5.73746 4.56519 5.95135 4.64539 6.1194 4.80581L10.6111 9.09331L15.1027 4.80581C15.2708 4.64539 15.4847 4.56519 15.7444 4.56519C16.0041 4.56519 16.218 4.64539 16.3861 4.80581C16.5541 4.96623 16.6382 5.17039 16.6382 5.41831C16.6382 5.66623 16.5541 5.87039 16.3861 6.03081L11.8944 10.3183L16.3861 14.6058C16.5541 14.7662 16.6382 14.9704 16.6382 15.2183C16.6382 15.4662 16.5541 15.6704 16.3861 15.8308C16.218 15.9912 16.0041 16.0714 15.7444 16.0714C15.4847 16.0714 15.2708 15.9912 15.1027 15.8308L10.6111 11.5433Z" fill="white"/>
</svg>
