<svg width="111" height="43" viewBox="0 0 111 43" fill="none" xmlns="http://www.w3.org/2000/svg">
<rect width="111" height="43" fill="#0075FF"/>
<path d="M14.416 25.072C18.4693 25.0507 21.408 24.992 23.232 24.896C23.1573 25.3333 23.1093 25.7867 23.088 26.256C23.0773 26.7147 23.072 27.296 23.072 28H10.64C10.7253 25.9307 10.768 23.9947 10.768 22.192C10.768 20.3893 10.7253 18.4533 10.64 16.384H23.072V19.28H14.416V20.816C14.928 20.8267 15.6853 20.832 16.688 20.832C18.384 20.832 20.1387 20.8 21.952 20.736V23.488C20.1387 23.424 18.384 23.392 16.688 23.392C15.6853 23.392 14.928 23.3973 14.416 23.408V25.072ZM31.443 23.52L34.803 28H30.835C30.6323 27.5947 30.259 27.0027 29.715 26.224L29.347 25.696C29.283 25.792 29.2083 25.8933 29.123 26C29.0483 26.1067 28.9737 26.224 28.899 26.352C28.6857 26.6507 28.483 26.944 28.291 27.232C28.1097 27.52 27.9603 27.776 27.843 28H23.875L27.235 23.52L24.003 19.264H27.955C28.1043 19.5627 28.3923 20.0267 28.819 20.656L29.347 21.456L29.795 20.768C30.243 20.096 30.5523 19.5947 30.723 19.264H34.675L31.443 23.52ZM38.3724 23.632C38.3937 24.176 38.5644 24.6133 38.8844 24.944C39.215 25.2747 39.7004 25.44 40.3404 25.44C40.6924 25.44 41.007 25.376 41.2844 25.248C41.5617 25.1093 41.8177 24.9067 42.0524 24.64C42.959 24.992 44.0204 25.296 45.2364 25.552C44.8844 26.3733 44.287 27.0133 43.4444 27.472C42.6124 27.9307 41.5297 28.16 40.1964 28.16C38.415 28.16 37.0977 27.744 36.2444 26.912C35.391 26.08 34.9644 24.9867 34.9644 23.632C34.9644 22.2773 35.391 21.184 36.2444 20.352C37.0977 19.52 38.415 19.104 40.1964 19.104C41.5297 19.104 42.6124 19.3333 43.4444 19.792C44.287 20.2507 44.8844 20.8907 45.2364 21.712C44.287 21.9147 43.2257 22.2187 42.0524 22.624C41.8177 22.3573 41.5617 22.16 41.2844 22.032C41.007 21.8933 40.6924 21.824 40.3404 21.824C39.7004 21.824 39.215 21.9893 38.8844 22.32C38.5644 22.6507 38.3937 23.088 38.3724 23.632ZM50.1969 21.6C50.1862 22.24 50.1809 23.2213 50.1809 24.544C50.1809 26.1333 50.1915 27.2853 50.2129 28H46.4369L46.4529 26.192C46.4742 24.208 46.4849 22.6773 46.4849 21.6C46.4849 20.576 46.4742 19.1253 46.4529 17.248L46.4369 15.52H50.2129C50.1915 17.0347 50.1809 18.272 50.1809 19.232C50.1809 20.2987 50.1862 21.088 50.1969 21.6ZM61.3394 19.264C61.2647 20.608 61.2274 22.0587 61.2274 23.616C61.2274 25.184 61.2647 26.6453 61.3394 28C60.6567 27.968 60.118 27.952 59.7234 27.952C59.35 27.952 58.8114 27.968 58.1074 28L57.6434 25.648C57.398 26.5013 57.014 27.136 56.4914 27.552C55.9687 27.9573 55.3607 28.16 54.6674 28.16C54.0274 28.16 53.4727 28.0213 53.0034 27.744C52.534 27.456 52.1767 27.072 51.9314 26.592C51.6967 26.112 51.5794 25.5733 51.5794 24.976V22.672C51.5794 21.2533 51.5527 20.1173 51.4994 19.264H55.0994C55.0354 20.832 55.0034 22.384 55.0034 23.92C55.0034 24.3893 55.1154 24.7627 55.3394 25.04C55.574 25.3173 55.8674 25.456 56.2194 25.456C56.55 25.456 56.838 25.312 57.0834 25.024C57.3394 24.7253 57.494 24.32 57.5474 23.808V23.44C57.5687 22.608 57.5794 22.032 57.5794 21.712C57.5794 20.976 57.558 20.16 57.5154 19.264H61.3394ZM67.7924 28.16C66.8964 28.16 65.9844 28.0373 65.0564 27.792C64.139 27.536 63.275 27.152 62.4644 26.64L64.1444 24.352C64.635 24.704 65.227 24.9813 65.9204 25.184C66.6137 25.376 67.211 25.472 67.7124 25.472C68.1924 25.472 68.5604 25.408 68.8164 25.28C69.083 25.1413 69.2164 24.9653 69.2164 24.752C69.2164 24.5813 69.1524 24.448 69.0244 24.352C68.8964 24.256 68.7204 24.208 68.4964 24.208C68.3577 24.208 68.1977 24.2133 68.0164 24.224C67.8457 24.2347 67.707 24.2453 67.6004 24.256C67.0457 24.32 66.475 24.352 65.8884 24.352C64.939 24.352 64.1657 24.176 63.5684 23.824C62.9817 23.4613 62.6884 22.8747 62.6884 22.064C62.6884 21.1253 63.131 20.4 64.0164 19.888C64.9017 19.3653 66.203 19.104 67.9204 19.104C68.763 19.104 69.611 19.2267 70.4644 19.472C71.3284 19.7067 72.091 20.064 72.7524 20.544L70.9124 22.4C70.3044 22.08 69.7337 21.856 69.2004 21.728C68.6777 21.5893 68.1497 21.52 67.6164 21.52C67.243 21.52 66.923 21.5947 66.6564 21.744C66.3897 21.8933 66.2564 22.064 66.2564 22.256C66.2564 22.4053 66.3097 22.5227 66.4164 22.608C66.5337 22.6933 66.683 22.736 66.8644 22.736C67.0457 22.736 67.2964 22.72 67.6164 22.688C68.395 22.6347 68.9764 22.608 69.3604 22.608C70.4697 22.608 71.3284 22.7947 71.9364 23.168C72.5444 23.5413 72.8484 24.112 72.8484 24.88C72.8484 26.032 72.4004 26.8693 71.5044 27.392C70.6084 27.904 69.371 28.16 67.7924 28.16ZM76.1121 18.32C75.4401 18.32 74.9388 18.1547 74.6081 17.824C74.2881 17.4933 74.1281 17.0613 74.1281 16.528C74.1281 16.0053 74.2881 15.5733 74.6081 15.232C74.9388 14.8907 75.4401 14.72 76.1121 14.72C76.7521 14.72 77.2428 14.896 77.5841 15.248C77.9255 15.5893 78.0961 16.016 78.0961 16.528C78.0961 17.0613 77.9308 17.4933 77.6001 17.824C77.2695 18.1547 76.7735 18.32 76.1121 18.32ZM74.2561 28C74.3308 26.2827 74.3681 24.864 74.3681 23.744C74.3681 22.4107 74.3255 20.9173 74.2401 19.264H78.0801C77.9948 20.8533 77.9521 22.3467 77.9521 23.744C77.9521 24.9173 77.9895 26.336 78.0641 28H74.2561ZM90.0586 19.264C88.9066 22.368 87.8826 25.28 86.9866 28H81.9786C81.0186 25.088 79.9893 22.176 78.8906 19.264H82.6506L84.5066 25.856L86.3466 19.264H90.0586ZM98.3696 24H93.1536C93.239 24.4693 93.447 24.8533 93.7776 25.152C94.119 25.44 94.599 25.584 95.2176 25.584C95.6656 25.584 96.087 25.4987 96.4816 25.328C96.8763 25.1467 97.191 24.896 97.4256 24.576C98.1403 24.928 99.0896 25.3067 100.274 25.712C99.943 26.4587 99.3403 27.056 98.4656 27.504C97.6016 27.9413 96.471 28.16 95.0736 28.16C93.2603 28.16 91.9163 27.744 91.0416 26.912C90.1776 26.0693 89.7456 24.9653 89.7456 23.6C89.7456 22.2667 90.1776 21.184 91.0416 20.352C91.9056 19.52 93.2496 19.104 95.0736 19.104C96.1616 19.104 97.1056 19.2853 97.9056 19.648C98.7056 20.0107 99.319 20.5173 99.7456 21.168C100.172 21.808 100.386 22.544 100.386 23.376C100.386 23.6533 100.375 23.8613 100.354 24H98.3696ZM95.2976 21.52C94.7643 21.52 94.327 21.6213 93.9856 21.824C93.6443 22.0267 93.4043 22.304 93.2656 22.656H97.0416C96.9136 22.3147 96.7056 22.0427 96.4176 21.84C96.1296 21.6267 95.7563 21.52 95.2976 21.52Z" fill="white"/>
</svg>
