<svg width="64" height="43" viewBox="0 0 64 43" fill="none" xmlns="http://www.w3.org/2000/svg">
<rect width="64" height="43" fill="#FF005C"/>
<path d="M10.64 26.624C11.0027 26.08 11.3013 25.5733 11.536 25.104C11.7813 24.6347 12.016 24.0907 12.24 23.472C12.9973 23.9093 13.8773 24.2507 14.88 24.496C15.8827 24.7413 16.816 24.864 17.68 24.864C18.5653 24.864 19.1893 24.7893 19.552 24.64C19.9147 24.48 20.096 24.3093 20.096 24.128C20.096 23.4773 19.104 23.152 17.12 23.152C14.944 23.152 13.3653 22.928 12.384 22.48C11.4027 22.0213 10.912 21.2853 10.912 20.272C10.912 18.832 11.5093 17.7707 12.704 17.088C13.8987 16.4053 15.4507 16.064 17.36 16.064C18.4693 16.064 19.6053 16.208 20.768 16.496C21.9413 16.7733 22.9973 17.1573 23.936 17.648C23.6267 18.352 23.3013 19.2107 22.96 20.224C22.896 20.4373 22.8427 20.5973 22.8 20.704C22.256 20.2667 21.4347 19.904 20.336 19.616C19.2373 19.3173 18.2667 19.168 17.424 19.168C16.4107 19.168 15.728 19.2373 15.376 19.376C15.024 19.504 14.848 19.696 14.848 19.952C14.848 20.208 15.088 20.416 15.568 20.576C16.0587 20.7253 16.7627 20.8 17.68 20.8C19.9413 20.8 21.584 21.0613 22.608 21.584C23.632 22.096 24.144 22.8853 24.144 23.952C24.144 25.4453 23.6 26.5227 22.512 27.184C21.424 27.8347 19.776 28.16 17.568 28.16C16.384 28.16 15.1787 28.032 13.952 27.776C12.7253 27.5093 11.6213 27.1253 10.64 26.624ZM35.6773 25.344C35.6773 25.7067 35.7199 25.9627 35.8053 26.112C35.8906 26.2613 36.0613 26.368 36.3173 26.432L36.2533 27.936C35.9119 27.9893 35.6133 28.0267 35.3573 28.048C35.1119 28.0693 34.7813 28.08 34.3653 28.08C33.4479 28.08 32.8399 27.8773 32.5413 27.472C32.2426 27.056 32.0933 26.528 32.0933 25.888V25.488C31.7839 26.3627 31.3306 27.0133 30.7333 27.44C30.1466 27.8667 29.3946 28.08 28.4773 28.08C27.4106 28.08 26.6053 27.8667 26.0613 27.44C25.5279 27.0133 25.2613 26.3787 25.2613 25.536C25.2613 24.8427 25.4906 24.2987 25.9493 23.904C26.4079 23.5093 27.1173 23.2373 28.0773 23.088C27.2666 22.512 26.4559 22.0107 25.6453 21.584C26.2853 20.7733 27.0159 20.16 27.8373 19.744C28.6586 19.3173 29.6559 19.104 30.8293 19.104C32.4719 19.104 33.6879 19.4613 34.4773 20.176C35.2773 20.88 35.6773 21.968 35.6773 23.44V25.344ZM31.1653 21.92C30.6213 21.92 30.1413 22.0107 29.7253 22.192C29.3093 22.3733 28.9359 22.6453 28.6053 23.008C29.2453 22.9333 30.0453 22.896 31.0053 22.896C31.3999 22.896 31.6773 22.848 31.8373 22.752C31.9973 22.656 32.0773 22.5333 32.0773 22.384C32.0773 22.256 31.9973 22.1493 31.8373 22.064C31.6773 21.968 31.4533 21.92 31.1653 21.92ZM29.4852 25.472C30.0826 25.472 30.6213 25.36 31.1013 25.136C31.5813 24.9013 31.9119 24.5973 32.0933 24.224V23.808C31.8373 23.936 31.5546 24.0373 31.2453 24.112C30.9359 24.176 30.5626 24.24 30.1253 24.304L29.5493 24.4C28.9519 24.5173 28.6533 24.72 28.6533 25.008C28.6533 25.3173 28.9306 25.472 29.4852 25.472ZM41.0406 21.6C41.03 22.24 41.0246 23.2213 41.0246 24.544C41.0246 26.1333 41.0353 27.2853 41.0566 28H37.2806L37.2966 26.192C37.318 24.208 37.3286 22.6773 37.3286 21.6C37.3286 20.576 37.318 19.1253 37.2966 17.248L37.2806 15.52H41.0566C41.0353 17.0347 41.0246 18.272 41.0246 19.232C41.0246 20.2987 41.03 21.088 41.0406 21.6ZM50.8071 24H45.5911C45.6765 24.4693 45.8845 24.8533 46.2151 25.152C46.5565 25.44 47.0365 25.584 47.6551 25.584C48.1031 25.584 48.5245 25.4987 48.9191 25.328C49.3138 25.1467 49.6285 24.896 49.8631 24.576C50.5778 24.928 51.5271 25.3067 52.7111 25.712C52.3805 26.4587 51.7778 27.056 50.9031 27.504C50.0391 27.9413 48.9085 28.16 47.5111 28.16C45.6978 28.16 44.3538 27.744 43.4791 26.912C42.6151 26.0693 42.1831 24.9653 42.1831 23.6C42.1831 22.2667 42.6151 21.184 43.4791 20.352C44.3431 19.52 45.6871 19.104 47.5111 19.104C48.5991 19.104 49.5431 19.2853 50.3431 19.648C51.1431 20.0107 51.7565 20.5173 52.1831 21.168C52.6098 21.808 52.8231 22.544 52.8231 23.376C52.8231 23.6533 52.8125 23.8613 52.7911 24H50.8071ZM47.7351 21.52C47.2018 21.52 46.7645 21.6213 46.4231 21.824C46.0818 22.0267 45.8418 22.304 45.7031 22.656H49.4791C49.3511 22.3147 49.1431 22.0427 48.8551 21.84C48.5671 21.6267 48.1938 21.52 47.7351 21.52Z" fill="white"/>
</svg>
