<svg width="30" height="30" viewBox="0 0 30 30" fill="none" xmlns="http://www.w3.org/2000/svg">
<g clip-path="url(#clip0_1165_1032)">
<path d="M7.88462 23.9914C7.25321 23.9914 6.71875 23.7756 6.28125 23.3441C5.84375 22.9125 5.625 22.3853 5.625 21.7625V7.72543C5.625 7.10261 5.84375 6.57542 6.28125 6.14387C6.71875 5.71232 7.25321 5.49655 7.88462 5.49655H10.3125V5.1883C10.3125 3.91104 10.77 2.82111 11.6851 1.9185C12.6001 1.01588 13.7051 0.564575 15 0.564575C16.2948 0.564575 17.3998 1.01588 18.3148 1.9185C19.2299 2.82111 19.6874 3.91104 19.6874 5.1883V5.49655H22.1153C22.7467 5.49655 23.2812 5.71232 23.7187 6.14387C24.1562 6.57542 24.3749 7.10261 24.3749 7.72543V21.7625C24.3749 22.3853 24.1562 22.9125 23.7187 23.3441C23.2812 23.7756 22.7467 23.9914 22.1153 23.9914H7.88462ZM7.88462 22.1419H22.1153C22.2115 22.1419 22.2996 22.1024 22.3798 22.0234C22.4599 21.9443 22.5 21.8574 22.5 21.7625V7.72543C22.5 7.63057 22.4599 7.54362 22.3798 7.46456C22.2996 7.38553 22.2115 7.34601 22.1153 7.34601H19.6874V10.1203C19.6874 10.3827 19.5977 10.6024 19.4182 10.7794C19.2387 10.9565 19.016 11.045 18.75 11.045C18.4839 11.045 18.2612 10.9565 18.0817 10.7794C17.9022 10.6024 17.8125 10.3827 17.8125 10.1203V7.34601H12.1874V10.1203C12.1874 10.3827 12.0977 10.6024 11.9182 10.7794C11.7387 10.9565 11.516 11.045 11.25 11.045C10.9839 11.045 10.7612 10.9565 10.5817 10.7794C10.4022 10.6024 10.3125 10.3827 10.3125 10.1203V7.34601H7.88462C7.78846 7.34601 7.7003 7.38553 7.62016 7.46456C7.54003 7.54362 7.49997 7.63057 7.49997 7.72543V21.7625C7.49997 21.8574 7.54003 21.9443 7.62016 22.0234C7.7003 22.1024 7.78846 22.1419 7.88462 22.1419ZM12.1874 5.49655H17.8125V5.1883C17.8125 4.4153 17.5397 3.75967 16.994 3.22143C16.4483 2.68317 15.7836 2.41404 15 2.41404C14.2163 2.41404 13.5516 2.68317 13.006 3.22143C12.4603 3.75967 12.1874 4.4153 12.1874 5.1883V5.49655Z" fill="black"/>
<ellipse cx="22.2861" cy="18.6016" rx="6" ry="5.91837" fill="black"/>
<path d="M22 15.1349C22.85 15.1349 23.49 15.5049 23.93 16.2649C24.31 16.9049 24.5 17.7649 24.5 18.8449C24.5 19.9249 24.31 20.7849 23.93 21.4249C23.49 22.1749 22.85 22.5549 22 22.5549C21.14 22.5549 20.5 22.1749 20.07 21.4249C19.69 20.7849 19.5 19.9249 19.5 18.8449C19.5 17.7649 19.69 16.9049 20.07 16.2649C20.5 15.5049 21.14 15.1349 22 15.1349ZM22 15.8349C21.36 15.8349 20.9 16.1749 20.62 16.8649C20.42 17.3449 20.32 18.0049 20.32 18.8449C20.32 19.6749 20.42 20.3349 20.62 20.8249C20.9 21.5049 21.36 21.8549 22 21.8549C22.64 21.8549 23.1 21.5049 23.38 20.8249C23.58 20.3349 23.69 19.6749 23.69 18.8449C23.69 18.0049 23.58 17.3449 23.38 16.8649C23.1 16.1749 22.64 15.8349 22 15.8349Z" fill="white"/>
</g>
<defs>
<clipPath id="clip0_1165_1032">
<rect width="30" height="28.6054" fill="white" transform="translate(0 0.564575)"/>
</clipPath>
</defs>
</svg>
