<svg width="33" height="45" viewBox="0 0 33 45" fill="none" xmlns="http://www.w3.org/2000/svg">
<g clip-path="url(#clip0_313_81)">
<path d="M3.44891 21.6258C3.18644 23.058 2.14406 29.7341 1.8366 31.6213C1.8141 31.7555 1.76161 31.8078 1.61163 31.8078H-3.98272C-4.55266 31.8078 -4.96511 31.3154 -4.89012 30.7709L-0.495629 3.02974C-0.383142 2.31364 0.261784 1.76911 1.0042 1.76911C12.4254 1.76911 13.3853 1.49312 16.3024 2.61947C20.8094 4.35749 21.2218 8.54963 19.602 13.0849C17.9897 17.7544 14.1652 19.761 9.09575 19.8206C5.84113 19.8729 3.88386 19.2985 3.44891 21.6258ZM21.8743 10.8918C21.7393 10.7949 21.6868 10.7576 21.6493 10.9888C21.4993 11.8392 21.2668 12.6672 20.9894 13.4951C17.9972 21.9838 9.70318 21.2454 5.65366 21.2454C5.19621 21.2454 4.89624 21.4915 4.83625 21.9466C3.14145 32.4194 2.80399 34.605 2.80399 34.605C2.729 35.1346 3.06646 35.5673 3.5989 35.5673H8.36084C9.00576 35.5673 9.5382 35.0973 9.66569 34.4558C9.71818 34.053 9.5832 34.9108 10.7456 27.6455C11.0905 26.0044 11.8179 26.176 12.9428 26.176C18.2672 26.176 22.4217 24.0277 23.6591 17.7992C24.1465 15.2033 24.004 12.4732 21.8743 10.8918Z" fill="white"/>
</g>
<defs>
<clipPath id="clip0_313_81">
<rect width="32.7611" height="43.7774" fill="white" transform="translate(0.0649414 0.744141)"/>
</clipPath>
</defs>
</svg>
