<svg width="30" height="29" viewBox="0 0 30 29" fill="none" xmlns="http://www.w3.org/2000/svg">
<path d="M15.1574 20.3838C15.961 20.3838 16.6823 20.1888 17.3212 19.7988C17.9601 19.4088 18.2796 18.7833 18.2796 17.9223C18.2796 17.2057 18.0049 16.6347 17.4556 16.2095C16.9063 15.7843 15.8814 15.3041 14.3809 14.7688C12.9293 14.2618 11.8823 13.6939 11.2398 13.0653C10.5972 12.4368 10.2759 11.6066 10.2759 10.5748C10.2759 9.68919 10.6044 8.87838 11.2615 8.1424C11.9185 7.40641 12.837 6.93718 14.0171 6.7347V6.00841C14.0171 5.75839 14.1135 5.53962 14.3063 5.35211C14.499 5.1646 14.7239 5.07085 14.9809 5.07085C15.2379 5.07085 15.4628 5.1646 15.6556 5.35211C15.8483 5.53962 15.9447 5.75839 15.9447 6.00841V6.7347C16.6089 6.78048 17.2271 6.99045 17.799 7.3646C18.3709 7.73874 18.8379 8.20313 19.1999 8.75776C19.3284 8.94793 19.3402 9.15084 19.2352 9.3665C19.1302 9.58219 18.9537 9.73405 18.7058 9.82208C18.4723 9.91011 18.2366 9.92156 17.9986 9.85641C17.7606 9.79127 17.5656 9.65922 17.4135 9.46027C17.142 9.14158 16.8094 8.8832 16.4158 8.68511C16.0221 8.48703 15.5556 8.38799 15.0162 8.38799C14.1384 8.38799 13.4501 8.59048 12.9515 8.99546C12.4528 9.40041 12.2035 9.92687 12.2035 10.5748C12.2035 11.2228 12.4469 11.7272 12.9338 12.0882C13.4207 12.4491 14.4062 12.8761 15.8904 13.3691C17.5845 13.9642 18.723 14.6315 19.3058 15.371C19.8886 16.1105 20.18 16.9609 20.18 17.9223C20.18 18.5773 20.0556 19.1521 19.8067 19.6469C19.5578 20.1417 19.2325 20.5576 18.8307 20.8948C18.4289 21.232 17.9714 21.4983 17.4583 21.6937C16.9452 21.8892 16.4171 22.0265 15.8741 22.1057V22.832C15.8741 23.0821 15.7777 23.3008 15.585 23.4883C15.3922 23.6758 15.1673 23.7696 14.9103 23.7696C14.6533 23.7696 14.4284 23.6758 14.2357 23.4883C14.0429 23.3008 13.9465 23.0821 13.9465 22.832V22.0371C13.0796 21.854 12.3284 21.526 11.6931 21.0533C11.0578 20.5805 10.5429 19.9638 10.1484 19.2032C10.0343 18.962 10.0334 18.7234 10.1456 18.4875C10.2578 18.2515 10.4379 18.0896 10.6859 18.0015C10.9194 17.9135 11.1574 17.9148 11.3999 18.0055C11.6424 18.0962 11.8279 18.248 11.9564 18.4611C12.3221 19.0914 12.7804 19.5694 13.3316 19.8952C13.8827 20.2209 14.4913 20.3838 15.1574 20.3838ZM14.9456 28.8404C12.1927 28.8404 9.69446 28.1775 7.45099 26.8517C5.20755 25.5258 3.44782 23.7493 2.17182 21.522V24.5883C2.17182 24.8806 2.07046 25.1253 1.86776 25.3225C1.66503 25.5197 1.41344 25.6183 1.11299 25.6183C0.812567 25.6183 0.560989 25.5197 0.358259 25.3225C0.155553 25.1253 0.0541992 24.8806 0.0541992 24.5883V19.3061C0.0541992 18.9523 0.175917 18.6569 0.419354 18.4201C0.66279 18.1833 0.966414 18.0649 1.33023 18.0649H6.7601C7.06053 18.0649 7.31211 18.1635 7.51484 18.3607C7.71754 18.5578 7.8189 18.8026 7.8189 19.0949C7.8189 19.3871 7.71754 19.6319 7.51484 19.8291C7.31211 20.0262 7.06053 20.1248 6.7601 20.1248H3.80887C4.8297 22.125 6.3383 23.7344 8.33469 24.9528C10.3311 26.1712 12.5347 26.7804 14.9456 26.7804C18.2271 26.7804 21.0596 25.7266 23.4434 23.6191C25.8271 21.5115 27.2018 18.881 27.5674 15.7276C27.6054 15.4406 27.7294 15.2082 27.9393 15.0303C28.1493 14.8525 28.4017 14.7636 28.6968 14.7636C28.9972 14.7636 29.2502 14.8618 29.4556 15.0581C29.661 15.2544 29.7447 15.489 29.7067 15.7619C29.5329 17.6018 29.0289 19.3145 28.1945 20.9001C27.3601 22.4856 26.2827 23.8669 24.9624 25.0439C23.642 26.2209 22.1271 27.1479 20.4176 27.8249C18.7081 28.5019 16.8841 28.8404 14.9456 28.8404ZM14.9456 2.06C11.7185 2.06 8.9017 3.09839 6.49536 5.17516C4.08902 7.2519 2.69853 9.89341 2.32387 13.0997C2.28584 13.3867 2.16185 13.6213 1.9519 13.8035C1.74197 13.9857 1.4895 14.0768 1.19449 14.0768C0.884979 14.0768 0.629778 13.9787 0.428883 13.7824C0.227965 13.5861 0.146517 13.3471 0.184541 13.0653C0.3764 11.1902 0.896308 9.45764 1.74426 7.86772C2.59222 6.27781 3.67639 4.90094 4.99677 3.73711C6.31713 2.57328 7.82753 1.65947 9.52799 0.995684C11.2284 0.331895 13.0343 0 14.9456 0C17.6714 0 20.1696 0.665118 22.4402 1.99535C24.7108 3.32559 26.4706 5.11758 27.7194 7.37132V4.25216C27.7194 3.95988 27.8208 3.71515 28.0235 3.51796C28.2262 3.32077 28.4778 3.22217 28.7782 3.22217C29.0787 3.22217 29.3302 3.32077 29.533 3.51796C29.7357 3.71515 29.837 3.95988 29.837 4.25216V9.53429C29.837 9.88819 29.7153 10.1835 29.4719 10.4203C29.2284 10.6572 28.9248 10.7756 28.561 10.7756H23.1311C22.8307 10.7756 22.5791 10.677 22.3764 10.4798C22.1737 10.2826 22.0723 10.0379 22.0723 9.74559C22.0723 9.45331 22.1737 9.20858 22.3764 9.01139C22.5791 8.8142 22.8307 8.7156 23.1311 8.7156H26.0824C25.0887 6.7506 23.5914 5.15009 21.5905 3.91407C19.5895 2.67802 17.3746 2.06 14.9456 2.06Z" fill="#3D2B3C"/>
</svg>
