<svg width="44" height="18" viewBox="0 0 44 18" fill="none" xmlns="http://www.w3.org/2000/svg">
<path d="M8.03983 2.31595C7.52425 2.92577 6.69932 3.4054 5.87439 3.33689C5.77127 2.51466 6.17686 1.63761 6.6512 1.10316C7.16678 0.479635 8.06733 0.0342596 8.80289 0C8.88539 0.849638 8.54854 1.69243 8.03983 2.31595ZM8.78915 3.49448C7.59299 3.42596 6.5687 4.17282 6.005 4.17282C5.42755 4.17282 4.56137 3.52874 3.6127 3.5493C2.38217 3.56985 1.24102 4.2619 0.615443 5.36506C-0.676951 7.57823 0.278596 10.8466 1.52974 12.6486C2.14157 13.5394 2.87026 14.5192 3.83268 14.485C4.74698 14.4507 5.10445 13.8957 6.20436 13.8957C7.31114 13.8957 7.63424 14.485 8.59666 14.4713C9.59345 14.4507 10.219 13.5805 10.8309 12.6898C11.5252 11.6757 11.8139 10.6959 11.8276 10.641C11.807 10.6205 9.9028 9.89418 9.88218 7.70156C9.86156 5.86525 11.3877 4.99505 11.4564 4.94024C10.5971 3.66578 9.25661 3.52874 8.78915 3.49448ZM15.6911 1.01408V14.3685H17.774V9.8051H20.6544C23.2873 9.8051 25.1297 8.00305 25.1297 5.39931C25.1297 2.79558 23.3148 1.01408 20.7232 1.01408H15.6911ZM17.774 2.76132H20.1732C21.9812 2.76132 23.0124 3.72059 23.0124 5.40617C23.0124 7.09174 21.9812 8.06471 20.1663 8.06471H17.774V2.76132ZM28.9244 14.4713C30.2305 14.4713 31.4404 13.8135 31.9904 12.7651H32.0316V14.3685H33.9565V7.72212C33.9565 5.79673 32.4097 4.54968 30.0311 4.54968C27.8245 4.54968 26.1883 5.81043 26.1265 7.53711H28.0032C28.1613 6.71488 28.9244 6.17358 29.9693 6.17358C31.241 6.17358 31.956 6.76285 31.956 7.8523V8.59231L29.3575 8.7499C26.9445 8.89379 25.6384 9.88047 25.6384 11.5935C25.6453 13.3201 26.9926 14.4713 28.9244 14.4713ZM29.4881 12.8885C28.3813 12.8885 27.6732 12.354 27.6732 11.5455C27.6732 10.7027 28.3538 10.2162 29.6531 10.1408L31.9629 9.99695V10.7507C31.9629 11.9977 30.8973 12.8885 29.4881 12.8885ZM36.5344 18C38.5623 18 39.5179 17.2257 40.3497 14.8892L44 4.67986H41.8827L39.4354 12.5664H39.3941L36.9468 4.67986H34.7745L38.2942 14.4027L38.1017 14.992C37.7855 15.9924 37.2699 16.3829 36.3488 16.3829C36.1838 16.3829 35.8675 16.3624 35.7369 16.3487V17.952C35.8607 17.9794 36.3763 18 36.5344 18Z" fill="white"/>
</svg>
