<svg width="11" height="20" viewBox="0 0 11 20" fill="none" xmlns="http://www.w3.org/2000/svg">
<path d="M10.9176 10.1117C10.9176 10.3339 10.8829 10.5422 10.8135 10.7367C10.744 10.9311 10.626 11.1117 10.4593 11.2783L2.79264 18.945C2.48709 19.2505 2.0982 19.4033 1.62598 19.4033C1.15375 19.4033 0.764865 19.2505 0.45931 18.945C0.153754 18.6394 0.000976512 18.2505 0.000976491 17.7783C0.000976471 17.3061 0.153754 16.9172 0.45931 16.6117L6.95931 10.1117L0.459309 3.61165C0.153754 3.3061 0.000975842 2.91721 0.000975821 2.44499C0.000975801 1.97276 0.153754 1.58388 0.459309 1.27832C0.764865 0.972765 1.15375 0.819988 1.62598 0.819988C2.0982 0.819988 2.48709 0.972765 2.79264 1.27832L10.4593 8.94499C10.626 9.11165 10.744 9.29221 10.8135 9.48665C10.8829 9.6811 10.9176 9.88943 10.9176 10.1117Z" fill="#FF005C"/>
</svg>
