<svg width="40" height="40" viewBox="0 0 40 40" fill="none" xmlns="http://www.w3.org/2000/svg">
<path d="M24.9167 19.9998C24.9167 20.2221 24.8819 20.4304 24.8125 20.6248C24.7431 20.8193 24.625 20.9998 24.4583 21.1665L16.7917 28.8332C16.4861 29.1387 16.0972 29.2915 15.625 29.2915C15.1528 29.2915 14.7639 29.1387 14.4583 28.8332C14.1528 28.5276 14 28.1387 14 27.6665C14 27.1943 14.1528 26.8054 14.4583 26.4998L20.9583 19.9998L14.4583 13.4998C14.1528 13.1943 14 12.8054 14 12.3332C14 11.8609 14.1528 11.4721 14.4583 11.1665C14.7639 10.8609 15.1528 10.7082 15.625 10.7082C16.0972 10.7082 16.4861 10.8609 16.7917 11.1665L24.4583 18.8332C24.625 18.9998 24.7431 19.1804 24.8125 19.3748C24.8819 19.5693 24.9167 19.7776 24.9167 19.9998Z" fill="#3D2B3C"/>
</svg>
