<svg width="11" height="20" viewBox="0 0 11 20" fill="none" xmlns="http://www.w3.org/2000/svg">
<path d="M10.9167 9.99984C10.9167 10.2221 10.8819 10.4304 10.8125 10.6248C10.7431 10.8193 10.625 10.9998 10.4583 11.1665L2.79167 18.8332C2.48611 19.1387 2.09722 19.2915 1.625 19.2915C1.15278 19.2915 0.763889 19.1387 0.458333 18.8332C0.152778 18.5276 -5.03895e-08 18.1387 -7.1031e-08 17.6665C-9.16725e-08 17.1943 0.152778 16.8054 0.458333 16.4998L6.95833 9.99984L0.458333 3.49984C0.152777 3.19428 -7.20631e-07 2.80539 -7.41272e-07 2.33317C-7.61914e-07 1.86095 0.152777 1.47206 0.458333 1.16651C0.763888 0.860949 1.15278 0.708172 1.625 0.708172C2.09722 0.708172 2.48611 0.860948 2.79167 1.16651L10.4583 8.83317C10.625 8.99984 10.7431 9.18039 10.8125 9.37484C10.8819 9.56928 10.9167 9.77762 10.9167 9.99984Z" fill="#3D2B3C"/>
</svg>
