<svg width="39" height="38" viewBox="0 0 39 38" fill="none" xmlns="http://www.w3.org/2000/svg">
<g clip-path="url(#clip0_313_83)">
<path d="M1.625 6.33301H37.375V9.49967H1.625V6.33301ZM1.625 28.4997H37.375V31.6663H1.625V28.4997ZM31.8857 23.6135L31.603 22.236H28.4359L27.9321 23.6024L25.3939 23.6072C27.027 19.7977 28.2376 16.973 29.0274 15.1395C29.2337 14.6598 29.601 14.4159 30.1405 14.4191C30.5532 14.4223 31.2276 14.4223 32.1636 14.4191L34.125 23.6103L31.8857 23.6151V23.6135ZM29.1492 20.3487H31.1902L30.4265 16.897L29.1492 20.3487ZM12.792 14.4175L15.3432 14.4207L11.3994 23.6135L8.81562 23.6119C7.943 20.3344 7.30113 17.9024 6.89162 16.3207C6.7665 15.8346 6.51787 15.4958 6.03687 15.3358C5.6095 15.1933 4.89775 14.9717 3.9 14.6724V14.4191H7.97712C8.68237 14.4191 9.0935 14.7516 9.22675 15.4324L10.2342 20.64L12.792 14.4175ZM18.8484 14.4207L16.8334 23.6119L14.404 23.6088L16.419 14.4175L18.8484 14.4207ZM23.7754 14.2497C24.5001 14.2497 25.4166 14.4682 25.9431 14.6724L25.5174 16.5788C25.0412 16.3919 24.258 16.1402 23.5999 16.1513C22.6411 16.1655 22.0496 16.5566 22.0496 16.9318C22.0496 17.5398 23.0766 17.847 24.1361 18.5136C25.3435 19.2736 25.5011 19.9544 25.4865 20.6954C25.4702 22.2328 24.1361 23.7497 21.32 23.7497C20.0346 23.7307 19.5715 23.6262 18.525 23.2652L18.967 21.2765C20.033 21.7103 20.4864 21.8481 21.3964 21.8481C22.2332 21.8481 22.9499 21.5203 22.9564 20.9488C22.9596 20.5418 22.7045 20.3408 21.7669 19.8373C20.8292 19.3353 19.5162 18.6403 19.5325 17.2406C19.5536 15.4514 21.3005 14.2497 23.7754 14.2497Z" fill="white"/>
</g>
<defs>
<clipPath id="clip0_313_83">
<rect width="39" height="38" fill="white"/>
</clipPath>
</defs>
</svg>
