<svg width="33" height="38" viewBox="0 0 33 38" fill="none" xmlns="http://www.w3.org/2000/svg">
<path d="M18.2453 33.5974H16.5C11.9059 33.5974 8.00739 31.9674 4.80445 28.7072C1.60148 25.4471 0 21.4789 0 16.8028C0 12.1266 1.60124 8.15708 4.80373 4.89427C8.00622 1.63142 11.9042 0 16.4977 0C18.7944 0 20.9403 0.436805 22.9354 1.31041C24.9304 2.18398 26.6776 3.38397 28.1769 4.91039C29.6762 6.43683 30.8549 8.21436 31.7129 10.2429C32.571 12.2715 33 14.4568 33 16.7987C33 21.1518 31.8445 25.1725 29.5334 28.8607C27.2223 32.5488 24.2952 35.5169 20.752 37.7647C20.4875 37.9061 20.2231 37.9838 19.9587 37.998C19.6943 38.0121 19.451 37.9519 19.2289 37.8172C19.0068 37.6826 18.8191 37.509 18.6657 37.2964C18.5123 37.0837 18.4251 36.8252 18.4039 36.5211L18.2453 33.5974ZM21.6563 33.2825C24.0969 31.1827 26.0821 28.7241 27.6118 25.9068C29.1414 23.0895 29.9063 20.0535 29.9063 16.7987C29.9063 12.984 28.6086 9.75548 26.0133 7.11318C23.418 4.47087 20.2469 3.14972 16.5 3.14972C12.7531 3.14972 9.58201 4.47087 6.98669 7.11318C4.39137 9.75548 3.09371 12.984 3.09371 16.7987C3.09371 20.6134 4.39137 23.842 6.98669 26.4843C9.58201 29.1266 12.7531 30.4477 16.5 30.4477H21.6563V33.2825ZM16.511 27.8713C17.014 27.8713 17.442 27.6906 17.795 27.3291C18.148 26.9676 18.3245 26.5308 18.3245 26.0187C18.3245 25.5066 18.147 25.0709 17.7919 24.7115C17.4369 24.3521 17.0079 24.1724 16.5048 24.1724C16.0019 24.1724 15.5739 24.3532 15.2209 24.7147C14.8679 25.0761 14.6914 25.5129 14.6914 26.025C14.6914 26.5371 14.8689 26.9728 15.2239 27.3322C15.579 27.6916 16.008 27.8713 16.511 27.8713ZM12.1263 12.1548C12.4349 12.2894 12.7431 12.2907 13.051 12.1587C13.359 12.0268 13.6109 11.8141 13.8068 11.5208C14.103 11.0739 14.4837 10.7233 14.9491 10.4689C15.4145 10.2145 15.9447 10.0873 16.5397 10.0873C17.4587 10.0873 18.2054 10.3403 18.7798 10.8464C19.3542 11.3526 19.6414 12.0188 19.6414 12.8452C19.6414 13.3568 19.5092 13.8502 19.2447 14.3254C18.9803 14.8005 18.5215 15.3706 17.8684 16.0355C16.9958 16.8593 16.3599 17.599 15.9606 18.2545C15.5613 18.91 15.3617 19.5608 15.3617 20.2069C15.3617 20.5545 15.479 20.8514 15.7136 21.0975C15.9482 21.3437 16.2312 21.4668 16.5624 21.4668C16.8936 21.4668 17.1703 21.3396 17.3924 21.0852C17.6145 20.8308 17.7679 20.5273 17.8525 20.1746C17.9715 19.6605 18.2412 19.1483 18.6616 18.6381C19.0821 18.128 19.5276 17.6333 19.9983 17.1541C20.7466 16.3922 21.2946 15.6528 21.6423 14.9358C21.9901 14.2188 22.164 13.5018 22.164 12.7848C22.164 11.2599 21.649 10.0333 20.619 9.10514C19.5891 8.17698 18.2426 7.71289 16.5794 7.71289C15.5236 7.71289 14.5504 7.97403 13.6596 8.49629C12.7688 9.01856 12.0703 9.68999 11.5642 10.5106C11.3855 10.8449 11.3504 11.1688 11.4588 11.4825C11.5672 11.7961 11.7897 12.0202 12.1263 12.1548Z" fill="black"/>
</svg>
