<svg width="29" height="31" viewBox="0 0 29 31" fill="none" xmlns="http://www.w3.org/2000/svg">
<path d="M14.1931 7.98039C10.1958 7.98039 6.97156 11.3971 6.97156 15.6331C6.97156 19.8691 10.1958 23.2858 14.1931 23.2858C18.1905 23.2858 21.4147 19.8691 21.4147 15.6331C21.4147 11.3971 18.1905 7.98039 14.1931 7.98039ZM14.1931 20.6084C11.61 20.6084 9.49816 18.3772 9.49816 15.6331C9.49816 12.889 11.6037 10.6578 14.1931 10.6578C16.7826 10.6578 18.8881 12.889 18.8881 15.6331C18.8881 18.3772 16.7763 20.6084 14.1931 20.6084ZM23.3945 7.66736C23.3945 8.65974 22.6403 9.45232 21.7101 9.45232C20.7736 9.45232 20.0257 8.65308 20.0257 7.66736C20.0257 6.68163 20.7799 5.88239 21.7101 5.88239C22.6403 5.88239 23.3945 6.68163 23.3945 7.66736ZM28.1775 9.47896C28.0706 7.08791 27.5553 4.96992 25.9023 3.22492C24.2556 1.47992 22.2569 0.93377 20.0006 0.813884C17.6751 0.674018 10.7049 0.674018 8.37942 0.813884C6.12935 0.92711 4.13069 1.47326 2.47771 3.21826C0.824731 4.96326 0.315638 7.08125 0.202506 9.4723C0.0705189 11.9366 0.0705189 19.3229 0.202506 21.7872C0.309353 24.1783 0.824731 26.2963 2.47771 28.0413C4.13069 29.7863 6.12307 30.3324 8.37942 30.4523C10.7049 30.5922 17.6751 30.5922 20.0006 30.4523C22.2569 30.3391 24.2556 29.7929 25.9023 28.0413C27.549 26.2963 28.0643 24.1783 28.1775 21.7872C28.3095 19.3229 28.3095 11.9433 28.1775 9.47896ZM25.1732 24.4314C24.683 25.7368 23.7339 26.7425 22.4958 27.2687C20.6416 28.0479 16.2421 27.8681 14.1931 27.8681C12.1442 27.8681 7.73834 28.0413 5.89052 27.2687C4.65864 26.7492 3.70959 25.7435 3.21307 24.4314C2.47771 22.4666 2.64741 17.8044 2.64741 15.6331C2.64741 13.4618 2.484 8.79295 3.21307 6.83482C3.70331 5.52939 4.65235 4.52368 5.89052 3.99752C7.74462 3.21826 12.1442 3.39809 14.1931 3.39809C16.2421 3.39809 20.6479 3.22492 22.4958 3.99752C23.7276 4.51702 24.6767 5.52273 25.1732 6.83482C25.9086 8.79961 25.7389 13.4618 25.7389 15.6331C25.7389 17.8044 25.9086 22.4732 25.1732 24.4314Z" fill="white"/>
</svg>
