<svg width="42" height="42" viewBox="0 0 42 42" fill="none" xmlns="http://www.w3.org/2000/svg">
<g clip-path="url(#clip0_313_87)">
<path d="M29.5272 19.752C29.2039 19.7654 28.8401 19.752 28.1527 19.8868L27.991 20.7221C28.2473 20.6953 28.9345 20.5875 29.2982 20.6007C29.6623 20.6143 30.0664 20.5605 29.945 21.1398C29.6756 21.1669 27.789 20.8703 27.4926 22.4871C27.3712 23.2825 28.0585 23.6865 28.5975 23.6595C29.1364 23.6324 29.2844 23.5653 29.4733 23.4305L29.6083 23.6462H30.5918L31.0097 21.5443C31.1175 21.0188 31.2925 19.752 29.5272 19.752ZM29.6891 22.3388C29.6212 22.6898 29.1235 22.9134 28.7864 22.7836C28.4359 22.6486 28.5301 22.2447 28.867 22.0156C29.204 21.7866 29.5947 21.894 29.7701 21.9214L29.6891 22.3388Z" fill="white"/>
<path d="M26.5898 19.8725C26.9401 19.8725 27.1288 19.8994 27.3982 20.0611L28.0856 19.3739C27.8161 19.0773 27.5061 18.786 26.6436 18.7539C25.9162 18.7271 24.6693 19.2581 24.272 20.7079C23.7329 22.6751 24.9188 23.6455 26.0104 23.6455C26.5898 23.6455 26.9401 23.5647 27.2906 23.4027L26.9807 22.4598C25.9027 22.8234 25.1345 22.2707 25.3097 21.1526C25.458 20.2073 26.2396 19.8725 26.5898 19.8725Z" fill="white"/>
<path d="M15.7287 21.611C15.5266 21.4766 15.1897 21.2879 14.9741 21.1933C14.7586 21.0992 14.5967 20.7353 14.9877 20.6276C15.2301 20.6005 15.7287 20.6005 16.0253 20.6815L16.2676 19.8998C15.769 19.7112 15.3783 19.7517 15.23 19.7517C15.0818 19.7517 13.8199 19.7362 13.6265 20.6679C13.4784 21.3819 13.7399 21.6776 13.9903 21.7863C14.3947 21.9616 14.6239 22.1232 14.8394 22.2311C15.1061 22.364 15.0572 22.8104 14.7046 22.8104C14.5427 22.8104 13.8421 22.8912 13.3166 22.7159L13.1685 23.511C13.6536 23.6459 14.0441 23.6459 14.4083 23.6459C14.6642 23.6459 15.9173 23.7133 16.0924 22.5543C16.178 21.9891 15.9307 21.7323 15.7287 21.611Z" fill="white"/>
<path d="M21.5772 21.9208C21.6983 21.3007 21.9815 19.7646 20.1354 19.7646C18.4375 19.7646 18.2219 21.4489 18.1816 21.6913C18.1411 21.9341 18.1141 23.6454 19.933 23.6454C20.378 23.6587 21.0245 23.6049 21.2809 23.47L21.4426 22.675C21.2809 22.7154 20.6746 22.7695 20.2567 22.7695C19.839 22.7695 19.1654 22.7966 19.2864 21.9208H21.5772ZM20.1895 20.5192C20.6069 20.5192 20.7283 20.8426 20.6609 21.2199H19.3536C19.475 20.7348 19.7713 20.5192 20.1895 20.5192Z" fill="white"/>
<path d="M23.3185 20.1965L23.2243 19.8193H22.3212L21.6074 23.6461H22.6583L22.9818 21.8941C23.2914 20.7492 23.79 20.8298 24.046 20.8298L24.3157 19.8193C23.7899 19.8193 23.48 20.0078 23.3185 20.1965Z" fill="white"/>
<path d="M39.5098 7.97363H2.4537C1.08886 7.97363 -0.0175781 9.08007 -0.0175781 10.4449V31.6008C-0.0175781 32.9657 1.08886 34.0721 2.4537 34.0721H39.5098C40.8747 34.0721 41.9811 32.9657 41.9811 31.6008V10.4449C41.9811 9.08007 40.8747 7.97363 39.5098 7.97363ZM28.2313 31.6418C25.7277 31.6418 23.4499 30.7655 21.6507 29.2972C23.023 27.9722 24.0707 26.3131 24.6327 24.438H23.7647C23.2209 26.1049 22.2655 27.5761 21.0233 28.7563C19.7886 27.5792 18.842 26.1025 18.2998 24.4426H17.4315C17.9913 26.3072 19.0211 27.9687 20.3829 29.2896C18.5881 30.7432 16.3208 31.6418 13.8315 31.6418C8.06217 31.6418 3.385 26.9646 3.385 21.1955C3.385 15.4261 8.06217 10.749 13.8315 10.749C16.3208 10.749 18.5881 11.6475 20.3829 13.1011C19.0211 14.4219 17.9913 16.0832 17.4315 17.9478H18.2998C18.842 16.2882 19.7886 14.8115 21.0233 13.6342C22.2655 14.8147 23.2209 16.2856 23.7647 17.9528L24.6327 17.9527C24.0707 16.0777 23.023 14.4185 21.6507 13.0937C23.45 11.6251 25.7278 10.749 28.2313 10.749C34.0005 10.749 38.6777 15.4262 38.6777 21.1955C38.6777 26.9646 34.0005 31.6418 28.2313 31.6418Z" fill="white"/>
<path d="M32.7285 20.1585L32.6334 19.7773H31.7215L31 23.6427H32.0617L32.3885 21.873C32.7015 20.7166 33.1914 20.7844 33.45 20.7844L33.7357 19.7774C33.2051 19.7773 32.8919 19.9677 32.7285 20.1585Z" fill="white"/>
<path d="M8.35823 18.9834L7.07788 21.8134L6.87576 18.9834H5.19141L4.28857 23.6458H5.33956L5.98629 20.2769L6.2693 23.6458H7.26664L8.73549 20.358L8.11541 23.6458H9.20709L10.0829 18.9834H8.35823Z" fill="white"/>
<path d="M17.4 22.2173L17.6967 20.6543H18.2357L18.4242 19.819H17.8584L18.0739 18.7949H17.0228L16.2953 22.4601C16.093 23.5108 16.8883 23.659 17.1307 23.659C17.3732 23.659 17.6832 23.6186 17.9122 23.4704L17.9798 22.6892C17.3732 22.7834 17.3461 22.5139 17.4 22.2173Z" fill="white"/>
<path d="M33.543 21.4092C33.2009 22.5799 33.8932 23.646 34.6478 23.646C34.9982 23.6322 35.3485 23.4843 35.5641 23.3362L35.699 23.646H36.8309L37.7471 18.7412H36.642L36.3593 20.2234C36.1568 20.0753 36.0358 19.7654 35.5372 19.7654C34.9579 19.7653 34.0548 19.6576 33.543 21.4092ZM35.9145 20.857C36.031 21.0122 36.0899 21.4496 35.9819 21.7998C35.7932 22.2713 35.5509 22.5815 35.1599 22.5815C34.7963 22.5815 34.473 22.1635 34.6209 21.6112C34.8477 20.7666 35.5913 20.4257 35.9145 20.857Z" fill="white"/>
<path d="M11.7401 19.752C11.4168 19.7654 11.053 19.752 10.3656 19.8868L10.2039 20.7221C10.4601 20.6953 11.1474 20.5875 11.511 20.6007C11.8751 20.6143 12.2792 20.5605 12.1578 21.1398C11.8882 21.1669 10.0019 20.8703 9.70551 22.4871C9.58411 23.2825 10.2713 23.6865 10.8103 23.6595C11.3493 23.6324 11.4975 23.5653 11.6863 23.4305L11.8212 23.6462H12.8047L13.2225 21.5443C13.3303 21.0188 13.5053 19.752 11.7401 19.752ZM11.9019 22.3388C11.8341 22.6898 11.3363 22.9134 10.999 22.7836C10.6485 22.6486 10.7427 22.2447 11.0798 22.0156C11.4168 21.7866 11.8076 21.894 11.9828 21.9214L11.9019 22.3388Z" fill="white"/>
</g>
<defs>
<clipPath id="clip0_313_87">
<rect width="42" height="42" fill="white"/>
</clipPath>
</defs>
</svg>
