<svg width="24" height="26" viewBox="0 0 24 26" fill="none" xmlns="http://www.w3.org/2000/svg">
<path d="M2.88462 23.8749C2.25321 23.8749 1.71875 23.6562 1.28125 23.2187C0.84375 22.7812 0.625 22.2467 0.625 21.6153V7.38463C0.625 6.75321 0.84375 6.21875 1.28125 5.78125C1.71875 5.34375 2.25321 5.125 2.88462 5.125H5.3125V4.8125C5.3125 3.51763 5.77003 2.41266 6.68509 1.49759C7.60013 0.582532 8.70509 0.125 9.99997 0.125C11.2948 0.125 12.3998 0.582532 13.3148 1.49759C14.2299 2.41266 14.6874 3.51763 14.6874 4.8125V5.125H17.1153C17.7467 5.125 18.2812 5.34375 18.7187 5.78125C19.1562 6.21875 19.3749 6.75321 19.3749 7.38463V21.6153C19.3749 22.2467 19.1562 22.7812 18.7187 23.2187C18.2812 23.6562 17.7467 23.8749 17.1153 23.8749H2.88462ZM2.88462 22H17.1153C17.2115 22 17.2996 21.9599 17.3798 21.8798C17.4599 21.7996 17.5 21.7115 17.5 21.6153V7.38463C17.5 7.28846 17.4599 7.2003 17.3798 7.12016C17.2996 7.04003 17.2115 6.99997 17.1153 6.99997H14.6874V9.8125C14.6874 10.0785 14.5977 10.3013 14.4182 10.4808C14.2387 10.6602 14.016 10.75 13.75 10.75C13.4839 10.75 13.2612 10.6602 13.0817 10.4808C12.9022 10.3013 12.8125 10.0785 12.8125 9.8125V6.99997H7.18744V9.8125C7.18744 10.0785 7.0977 10.3013 6.91822 10.4808C6.73874 10.6602 6.51599 10.75 6.24997 10.75C5.98395 10.75 5.7612 10.6602 5.58172 10.4808C5.40224 10.3013 5.3125 10.0785 5.3125 9.8125V6.99997H2.88462C2.78846 6.99997 2.7003 7.04003 2.62016 7.12016C2.54003 7.2003 2.49997 7.28846 2.49997 7.38463V21.6153C2.49997 21.7115 2.54003 21.7996 2.62016 21.8798C2.7003 21.9599 2.78846 22 2.88462 22ZM7.18744 5.125H12.8125V4.8125C12.8125 4.02883 12.5397 3.36417 11.994 2.8185C11.4483 2.27281 10.7836 1.99997 9.99997 1.99997C9.2163 1.99997 8.55163 2.27281 8.00597 2.8185C7.46028 3.36417 7.18744 4.02883 7.18744 4.8125V5.125Z" fill="black"/>
<circle cx="17.2856" cy="19.2858" r="6" fill="black"/>
<path d="M17 15.72C17.85 15.72 18.49 16.09 18.93 16.85C19.31 17.49 19.5 18.35 19.5 19.43C19.5 20.51 19.31 21.37 18.93 22.01C18.49 22.76 17.85 23.14 17 23.14C16.14 23.14 15.5 22.76 15.07 22.01C14.69 21.37 14.5 20.51 14.5 19.43C14.5 18.35 14.69 17.49 15.07 16.85C15.5 16.09 16.14 15.72 17 15.72ZM17 16.42C16.36 16.42 15.9 16.76 15.62 17.45C15.42 17.93 15.32 18.59 15.32 19.43C15.32 20.26 15.42 20.92 15.62 21.41C15.9 22.09 16.36 22.44 17 22.44C17.64 22.44 18.1 22.09 18.38 21.41C18.58 20.92 18.69 20.26 18.69 19.43C18.69 18.59 18.58 17.93 18.38 17.45C18.1 16.76 17.64 16.42 17 16.42Z" fill="white"/>
</svg>
