<?xml version="1.0" encoding="UTF-8"?>
<svg id="_圖層_2" data-name="圖層 2" xmlns="http://www.w3.org/2000/svg" viewBox="0 0 502.78 73.21">
  <defs>
    <style>
      .cls-1 {
        font-family: DelaGothicOne-Regular, 'Dela Gothic One';
        font-size: 62.68px;
      }

      .cls-2 {
        fill: #fff;
      }

      .cls-3 {
        letter-spacing: .08em;
      }

      .cls-4 {
        letter-spacing: .06em;
      }

      .cls-5 {
        letter-spacing: .02em;
      }
    </style>
  </defs>
  <g id="_字_黑膠" data-name="字&amp;amp;黑膠">
    <g>
      <text class="cls-1" transform="translate(.81 55.16) scale(.81 1)"><tspan class="cls-3" x="0" y="0" xml:space="preserve">銷售排行     </tspan><tspan class="cls-5" x="355.71" y="0">Ｒ</tspan><tspan class="cls-4" x="419.33" y="0">Ａ</tspan><tspan class="cls-3" x="485.46" y="0">ＮＫ</tspan></text>
      <g>
        <path d="m252.75,11.16c-12.11,0-21.93,9.82-21.93,21.93s9.82,21.93,21.93,21.93,21.93-9.82,21.93-21.93-9.82-21.93-21.93-21.93Zm0,28.08c-3.39,0-6.15-2.75-6.15-6.15s2.75-6.15,6.15-6.15,6.15,2.75,6.15,6.15-2.75,6.15-6.15,6.15Z"/>
        <g>
          <path d="m252.73,57.5c-13.47,0-24.42-10.96-24.42-24.42s10.96-24.42,24.42-24.42,24.42,10.96,24.42,24.42-10.96,24.42-24.42,24.42Zm0-42.84c-10.16,0-18.42,8.26-18.42,18.42s8.26,18.42,18.42,18.42,18.42-8.26,18.42-18.42-8.26-18.42-18.42-18.42Z"/>
          <path class="cls-2" d="m270.12,20.92l-.16-.3c-.61.34-.77.81-.91,1.23-.14.4-.25.74-.74,1.02-.49.27-.84.19-1.24.1-.42-.1-.89-.21-1.51.13-.61.34-.77.81-.91,1.23-.14.4-.25.74-.74,1.02-.49.27-.84.19-1.24.1-.42-.1-.89-.21-1.51.13-.61.34-.77.81-.91,1.23-.14.4-.25.74-.74,1.02-.49.27-.84.19-1.24.1-.42-.1-.89-.21-1.51.13l.18.34c.49-.27.84-.19,1.24-.1.1.02.2.05.3.06,2.96,4.23,1.25,7.57.62,8.53,0-.02-.01-.04-.02-.06-.14-.41-.18-.8-.79-1.14l-.18.34c.49.27.49.53.62.93.14.41.3.88.91,1.23.61.34,1.09.23,1.51.13.4-.1.75-.18,1.24.1.49.27.6.62.74,1.02.14.41.3.88.91,1.23.61.34,1.09.23,1.51.13.4-.1.75-.18,1.24.1.49.27.6.62.74,1.02.14.41.3.88.91,1.23.31.18.59.23.85.23s.46-.05.66-.1c.4-.1.8-.1,1.28.18l.14-.27c6.3-11.24-.77-21.57-1.25-22.24Z"/>
          <path class="cls-2" d="m235.33,45.27l.16.3c.61-.34.77-.81.91-1.23.13-.4.25-.74.73-1.02.48-.27.83-.19,1.23-.1.41.1.89.21,1.49-.13.61-.34.77-.81.91-1.23.13-.4.25-.74.73-1.02.48-.27.83-.19,1.23-.1.41.1.89.21,1.49-.13.61-.34.77-.81.91-1.23.13-.4.25-.74.73-1.02.48-.27.83-.19,1.23-.1.41.1.88.21,1.49-.13l-.18-.34c-.48.27-.83.19-1.23.1-.1-.02-.19-.05-.3-.06-2.94-4.23-1.24-7.57-.62-8.53,0,.02.01.04.02.06.14.41.3.88.91,1.23l.18-.34c-.48-.27-.6-.62-.73-1.02-.14-.41-.3-.88-.91-1.23-.61-.34-1.08-.23-1.49-.13-.4.1-.75.18-1.23-.1-.48-.27-.6-.62-.73-1.02-.14-.41-.3-.88-.91-1.23-.61-.34-1.08-.23-1.49-.13-.4.1-.75.18-1.23-.1-.48-.27-.6-.62-.73-1.02-.14-.41-.3-.88-.91-1.23-.31-.18-.59-.23-.84-.23s-.45.05-.66.1c-.4.1-.79.1-1.27-.18l-.14.27c-6.24,11.24.77,21.57,1.24,22.24Z"/>
          <path d="m252.73,42.1c-4.97,0-9.02-4.05-9.02-9.02s4.05-9.02,9.02-9.02,9.02,4.05,9.02,9.02-4.05,9.02-9.02,9.02Zm0-15.04c-3.32,0-6.02,2.7-6.02,6.02s2.7,6.02,6.02,6.02,6.02-2.7,6.02-6.02-2.7-6.02-6.02-6.02Z"/>
          <circle cx="252.73" cy="33.08" r="1.61"/>
        </g>
      </g>
    </g>
  </g>
</svg>