<svg width="2006" height="32" viewBox="0 0 2006 32" fill="none" xmlns="http://www.w3.org/2000/svg">
<rect width="26" height="32" fill="white"/>
<rect x="55" width="26" height="32" fill="white"/>
<rect x="110" width="26" height="32" fill="white"/>
<rect x="165" width="26" height="32" fill="white"/>
<rect x="220" width="26" height="32" fill="white"/>
<rect x="275" width="26" height="32" fill="white"/>
<rect x="330" width="26" height="32" fill="white"/>
<rect x="385" width="26" height="32" fill="white"/>
<rect x="440" width="26" height="32" fill="white"/>
<rect x="495" width="26" height="32" fill="white"/>
<rect x="550" width="26" height="32" fill="white"/>
<rect x="605" width="26" height="32" fill="white"/>
<rect x="660" width="26" height="32" fill="white"/>
<rect x="715" width="26" height="32" fill="white"/>
<rect x="770" width="26" height="32" fill="white"/>
<rect x="825" width="26" height="32" fill="white"/>
<rect x="880" width="26" height="32" fill="white"/>
<rect x="935" width="26" height="32" fill="white"/>
<rect x="990" width="26" height="32" fill="white"/>
<rect x="1045" width="26" height="32" fill="white"/>
<rect x="1100" width="26" height="32" fill="white"/>
<rect x="1155" width="26" height="32" fill="white"/>
<rect x="1210" width="26" height="32" fill="white"/>
<rect x="1265" width="26" height="32" fill="white"/>
<rect x="1320" width="26" height="32" fill="white"/>
<rect x="1375" width="26" height="32" fill="white"/>
<rect x="1430" width="26" height="32" fill="white"/>
<rect x="1485" width="26" height="32" fill="white"/>
<rect x="1540" width="26" height="32" fill="white"/>
<rect x="1595" width="26" height="32" fill="white"/>
<rect x="1650" width="26" height="32" fill="white"/>
<rect x="1705" width="26" height="32" fill="white"/>
<rect x="1760" width="26" height="32" fill="white"/>
<rect x="1815" width="26" height="32" fill="white"/>
<rect x="1870" width="26" height="32" fill="white"/>
<rect x="1925" width="26" height="32" fill="white"/>
<rect x="1980" width="26" height="32" fill="white"/>
</svg>
